<?xml version="1.0" encoding="UTF-8"?>
<svg version="1.1" xmlns="http://www.w3.org/2000/svg" width="969" height="722">
<path d="M0 0 C2.71294485 2.56222569 4.98809116 5.15220552 7.25 8.125 C7.25 8.785 7.25 9.445 7.25 10.125 C7.91 10.125 8.57 10.125 9.25 10.125 C10.24 12.105 10.24 12.105 11.25 14.125 C11.76949219 13.38894531 12.28898437 12.65289063 12.82421875 11.89453125 C22.83985339 -2.11995197 22.83985339 -2.11995197 31.25 -4.875 C41.316687 -6.45408816 51.13365599 0.39410855 59.265625 5.57421875 C59.92046875 6.08597656 60.5753125 6.59773438 61.25 7.125 C61.25 7.785 61.25 8.445 61.25 9.125 C61.83394531 9.34800781 62.41789062 9.57101563 63.01953125 9.80078125 C67.52674715 12.47669402 69.85850111 17.59373894 72.25 22.125 C73.1875 25.8125 73.1875 25.8125 73.25 29.125 C73.415 30.40375 73.58 31.6825 73.75 33 C73.7068929 38.52848604 69.92883366 42.33400678 66.25 46.125 C62.80054476 48.98158012 59.37465249 50.45927496 55.25 52.125 C56.24580078 53.01251953 56.24580078 53.01251953 57.26171875 53.91796875 C61.70280831 57.89225765 66.03567501 61.91067501 70.25 66.125 C71.19488281 66.87652344 72.13976562 67.62804687 73.11328125 68.40234375 C76.16078664 70.92572636 78.36921124 73.71834323 80.6875 76.9375 C84.73192262 82.39647828 89.1386418 87.38472882 93.8125 92.3125 C94.4631543 93.00158447 95.11380859 93.69066895 95.78417969 94.40063477 C98.42341135 97.18533852 101.07389395 99.94916489 103.7890625 102.66015625 C110.91178087 110.00303137 115.7070554 118.80774219 120.79125977 127.61108398 C124.51732521 134.03238873 128.35425958 140.36260883 132.4375 146.5625 C140.24566075 158.58820743 147.19797857 171.14039773 154.125 183.6875 C154.56505371 184.48365723 155.00510742 185.27981445 155.45849609 186.10009766 C163.84607429 201.39809592 163.84607429 201.39809592 166.25 209.125 C167.82797085 213.17283827 169.04387984 216.1976729 172.25 219.125 C172.9413304 220.44571363 173.61090345 221.77823431 174.25 223.125 C174.77916016 222.86509277 175.30832031 222.60518555 175.85351562 222.33740234 C193.42899819 213.73972671 211.29074947 205.8783103 229.25 198.125 C229.25 195.62852778 228.42072588 194.53210018 227.1875 192.375 C225.85841358 189.71682715 225.25592725 188.26132677 225.125 185.25 C227.28875394 179.23957238 229.95668639 173.63858698 235.375 170.0625 C236.32375 169.753125 237.2725 169.44375 238.25 169.125 C238.86875 168.898125 239.4875 168.67125 240.125 168.4375 C247.75490758 167.31545477 253.4457177 168.51720265 260.25 172.125 C265.16711309 176.18696299 268.77484916 180.670054 270 187 C270.12375 188.546875 270.12375 188.546875 270.25 190.125 C271.3946875 189.8465625 271.3946875 189.8465625 272.5625 189.5625 C275.25 189.125 275.25 189.125 278.25 190.125 C281.96135554 190.35423078 285.66685837 190.5176977 289.3828125 190.64257812 C294.32183655 190.85999364 298.55123467 191.57340236 303.25 193.125 C302.92 192.465 302.59 191.805 302.25 191.125 C301.29274503 177.79706545 301.29274503 177.79706545 305.25 172.125 C305.67539062 171.46886719 306.10078125 170.81273437 306.5390625 170.13671875 C309.69839159 165.51598877 312.88937184 162.15500622 318.25 160.125 C321.27923348 159.71752665 324.14877868 159.87369647 327.1875 160.125 C327.94740234 160.15722656 328.70730469 160.18945312 329.49023438 160.22265625 C336.2083271 160.67014663 341.46962701 162.75499716 346.60546875 167.1328125 C357.89610068 180.1808349 357.89610068 180.1808349 357.375 188.25 C356.58704523 192.18181473 354.52565001 195.11849163 352.11328125 198.265625 C350.98014125 200.13730502 350.98014125 200.13730502 351.9921875 202.20703125 C354.92962 206.68615969 358.43090885 210.39077754 362.25 214.125 C363.71165192 215.55912552 365.1696522 216.99697748 366.625 218.4375 C367.33398438 219.13488281 368.04296875 219.83226562 368.7734375 220.55078125 C381.98459092 234.2828792 393.53061805 249.59080609 404.6940918 264.99316406 C406.19240412 267.04608469 407.7101582 269.08248284 409.23828125 271.11328125 C412.51140836 275.46327902 415.73448466 279.84817359 418.9375 284.25 C419.50533203 285.02214844 420.07316406 285.79429687 420.65820312 286.58984375 C423.60643587 290.64755212 426.07131444 294.59150759 428.25 299.125 C429.28403006 300.58311328 430.34723995 302.02093884 431.4375 303.4375 C434.96839916 308.38811487 437.42453127 313.52130948 439.91235352 319.03588867 C443.17896965 326.18834427 446.95561528 333.02531179 450.86206055 339.84667969 C455.05901596 347.32573433 458.20450848 355.12792688 461.25 363.125 C461.75985196 364.45071299 462.2697807 365.77639645 462.77978516 367.10205078 C473.03333114 393.8752887 483.23115599 421.0370613 489.25 449.125 C489.48323975 450.19282715 489.48323975 450.19282715 489.72119141 451.28222656 C493.06283182 466.95312026 495.29907672 485.1200141 492.375 501 C492.19453125 502.00289063 492.0140625 503.00578125 491.828125 504.0390625 C491.63734375 505.05742188 491.4465625 506.07578125 491.25 507.125 C490.8749018 509.20831566 490.49989625 511.29164799 490.125 513.375 C489.83424419 514.95850085 489.54293565 516.54190095 489.25 518.125 C520.88375559 515.28151635 548.22325638 490.44031393 570.33984375 469.8203125 C572.5715394 467.7533729 574.81907065 465.73220277 577.125 463.75 C586.88541403 455.28412509 596.24936778 446.33887505 605.21362305 437.03662109 C606.52316251 435.69667599 607.882283 434.40550643 609.25 433.125 C609.91 433.125 610.57 433.125 611.25 433.125 C611.45238281 432.59390625 611.65476562 432.0628125 611.86328125 431.515625 C613.85467794 428.08256929 616.5951384 425.61679979 619.4375 422.875 C624.26621419 418.1231406 628.94955062 413.36813661 633.25 408.125 C633.6919873 407.58617187 634.13397461 407.04734375 634.58935547 406.4921875 C641.55926224 397.9640881 648.13783347 389.29324979 654.25 380.125 C654.91 380.125 655.57 380.125 656.25 380.125 C656.311875 379.42375 656.37375 378.7225 656.4375 378 C658.20269216 371.75393543 664.05554204 366.79238352 669.25 363.125 C671.75 362.25 671.75 362.25 674.25 362.125 C675.44625 362.0425 676.6425 361.96 677.875 361.875 C681.25 362.125 681.25 362.125 683.0625 363.4375 C685.97425569 367.57525808 687.0680192 371.08282464 687.9375 376 C688.139198 377.13912842 688.139198 377.13912842 688.3449707 378.30126953 C689.25169136 383.93821739 689.31039088 389.12112203 688.57421875 394.8046875 C688.29777534 397.63573444 688.29437355 400.21418148 688.375 403.046875 C688.41256246 409.67020172 687.25004474 416.01508582 685.96118164 422.48535156 C685.56498331 424.48745114 685.19268827 426.4929917 684.82226562 428.5 C682.7421419 439.38967595 679.2930741 449.25855371 674.25 459.125 C674.806875 458.93164062 675.36375 458.73828125 675.9375 458.5390625 C686.03947827 455.0921037 694.47900501 453.51718795 705.25 454.125 C705.91 454.455 706.57 454.785 707.25 455.125 C708.64233 459.58326878 709.88698682 464.58663147 708.73046875 469.1953125 C707.72360182 471.03766475 706.61057907 472.52453922 705.25 474.125 C704.66863281 474.85074219 704.08726562 475.57648438 703.48828125 476.32421875 C701.80317709 478.34846337 700.16150096 480.31236978 698.25 482.125 C697.59 482.125 696.93 482.125 696.25 482.125 C695.981875 482.764375 695.71375 483.40375 695.4375 484.0625 C694.25 486.125 694.25 486.125 691.25 487.125 C690.54605388 488.43903276 689.88654342 489.7770257 689.25 491.125 C685.07757664 497.0626794 679.21629961 502.02316902 673.25 506.125 C672.59 506.125 671.93 506.125 671.25 506.125 C671.25 506.785 671.25 507.445 671.25 508.125 C664.03303968 513.37968461 655.85022807 517.53722672 648.0625 521.875 C647.24426758 522.33447021 646.42603516 522.79394043 645.58300781 523.26733398 C639.95741941 526.36343525 634.25482308 528.86095702 628.25 531.125 C627.19776245 531.53274658 627.19776245 531.53274658 626.12426758 531.94873047 C618.25883034 534.99347782 610.39176074 537.89384441 602.25 540.125 C606.20590557 541.55352146 610.15624229 542.56821187 614.25 543.5 C619.06959864 544.66893251 622.40162923 546.02492355 626.25 549.125 C623.57203606 554.09836161 621.43695684 556.46673238 616.0625 558.375 C569.60930685 571.56680485 521.93234136 562.71775497 476.25 551.125 C475.90066406 551.96804688 475.55132813 552.81109375 475.19140625 553.6796875 C474.73636719 554.77539062 474.28132812 555.87109375 473.8125 557 C473.36003906 558.09054687 472.90757812 559.18109375 472.44140625 560.3046875 C471.75456537 561.93058624 471.03934113 563.54631774 470.25 565.125 C470.82943359 565.39812012 471.40886719 565.67124023 472.00585938 565.95263672 C474.22514178 567.1120138 476.14110069 568.40012536 478.15625 569.8828125 C478.89407715 570.42236572 479.6319043 570.96191895 480.39208984 571.51782227 C481.1702002 572.08944092 481.94831055 572.66105957 482.75 573.25 C484.37672662 574.42959654 486.0043318 575.60798246 487.6328125 576.78515625 C492.03361576 579.96709642 492.03361576 579.96709642 494.06933594 581.45263672 C502.1832125 587.3399947 510.89736034 592.57593167 521.25 592.125 C521.25 591.135 521.25 590.145 521.25 589.125 C522.57 588.795 523.89 588.465 525.25 588.125 C534.3885947 608.77822403 538.34090725 631.45033766 538.6875 654 C538.70973633 654.80163574 538.73197266 655.60327148 538.75488281 656.42919922 C538.73360184 662.0296421 537.48264925 666.48995665 534.25 671.125 C531.625 672.875 531.625 672.875 528.25 673.125 C515.78258579 670.55505601 508.89751273 660.06029617 502.09765625 650.23828125 C500.31477156 647.2341394 499.2086999 644.4729206 498.25 641.125 C497.59 641.455 496.93 641.785 496.25 642.125 C469.86161289 645.30858558 442.66115974 640.04413842 418.40625 629.484375 C413.0139772 627.16196048 407.14670493 625.26506386 401.25 626.125 C399.29121353 627.15983059 397.48876544 628.36020507 395.640625 629.58203125 C382.06390422 638.34478404 366.5981735 642.51447305 351.25 647.125 C350.04786865 647.49286621 348.8457373 647.86073242 347.60717773 648.23974609 C340.81346626 650.26532027 334.34873959 651.64485231 327.3125 652.375 C319.80280555 653.29737027 319.80280555 653.29737027 314 657.875 C313.05814862 659.27504935 312.13998966 660.69142384 311.25 662.125 C297.97031444 677.49050005 278.42610931 688.65704751 260.25 697.125 C259.280625 697.58132813 258.31125 698.03765625 257.3125 698.5078125 C251.60227273 701.125 251.60227273 701.125 249.25 701.125 C248.59 702.445 247.93 703.765 247.25 705.125 C222.187148 706.5865486 190.26083397 696.71950367 171.25 680.125 C166.97066397 675.38716368 167.1357196 670.40320106 167.01953125 664.30859375 C167.28889605 661.75647638 167.80513054 660.24927516 169.25 658.125 C179.34662642 652.31835648 193.48737271 654.33947834 204.25 657.125 C206.59431645 657.76134527 208.92163259 658.43144375 211.25 659.125 C211.60191406 658.35929688 211.60191406 658.35929688 211.9609375 657.578125 C213.73089197 654.20984801 215.80158635 651.06287348 217.875 647.875 C218.29523438 647.2253125 218.71546875 646.575625 219.1484375 645.90625 C220.18045673 644.31131119 221.21498028 642.71799331 222.25 641.125 C221.14966431 640.93707886 221.14966431 640.93707886 220.02709961 640.74536133 C217.37960764 640.15395235 215.26004968 639.35605424 212.81640625 638.19921875 C211.5953418 637.62204102 211.5953418 637.62204102 210.34960938 637.03320312 C209.51236328 636.63037109 208.67511719 636.22753906 207.8125 635.8125 C206.97912109 635.42126953 206.14574219 635.03003906 205.28710938 634.62695312 C199.55535788 631.89474273 194.50116259 628.95734164 189.5625 624.9375 C187.29974976 622.9547297 187.29974976 622.9547297 184.25 622.125 C184.25 621.465 184.25 620.805 184.25 620.125 C183.26 619.795 182.27 619.465 181.25 619.125 C179.6015625 617.48828125 179.6015625 617.48828125 177.875 615.4375 C177.26140625 614.715625 176.6478125 613.99375 176.015625 613.25 C174.54740148 611.48293452 173.08484094 609.71148392 171.625 607.9375 C169.33443335 605.13084486 169.33443335 605.13084486 166.875 602.8203125 C158.57457692 594.29755666 153.28021753 583.7653599 148.25 573.125 C147.3597375 571.30975724 146.46448233 569.49694784 145.5625 567.6875 C145.03076172 566.60662109 145.03076172 566.60662109 144.48828125 565.50390625 C143.488003 563.58223605 142.38212628 561.71576256 141.24609375 559.87109375 C138.99277371 555.95083319 137.95867534 552.01761899 137 547.625 C136.82726562 546.90441406 136.65453125 546.18382812 136.4765625 545.44140625 C135.44178107 540.89986551 135.07850232 536.77993695 135.25 532.125 C134.27289063 532.05023437 133.29578125 531.97546875 132.2890625 531.8984375 C127.53209759 531.20794887 123.7634171 529.10233527 119.625 526.75 C118.8424585 526.31171875 118.05991699 525.8734375 117.25366211 525.421875 C110.82552955 521.7032617 105.24505793 517.35118501 99.75390625 512.375 C97.26984716 510.03456459 97.26984716 510.03456459 94.25 508.125 C94.25 507.465 94.25 506.805 94.25 506.125 C93.445625 505.7846875 93.445625 505.7846875 92.625 505.4375 C90.25 504.125 90.25 504.125 87.6875 501.375 C85.56647178 499.55394861 84.71739658 499.09581791 81.88818359 499.27246094 C81.00469238 499.46614258 80.12120117 499.65982422 79.2109375 499.859375 C78.23471436 500.06272461 77.25849121 500.26607422 76.25268555 500.47558594 C75.26179932 500.68989258 74.27091309 500.90419922 73.25 501.125 C71.45305064 501.46488959 69.65488168 501.79840383 67.85546875 502.125 C66.97084961 502.28895264 66.08623047 502.45290527 65.17480469 502.62182617 C61.37918253 503.31954088 57.5805962 503.99994981 53.78076172 504.67431641 C51.72879961 505.03973432 49.67857064 505.41487532 47.62890625 505.79296875 C7.0586926 512.5293463 7.0586926 512.5293463 -5.75 506.125 C-5.86601562 506.71410156 -5.98203125 507.30320312 -6.1015625 507.91015625 C-9.43470765 519.29505564 -23.54210807 531.05199211 -31.60205078 539.63549805 C-38.36962227 546.43633228 -38.36962227 546.43633228 -41.75 555.125 C-44.56027388 556.99851592 -45.98868658 557.5455796 -49.1875 558.1875 C-52.37706868 558.82818658 -52.37706868 558.82818658 -55.5234375 559.64453125 C-76.05806291 564.07568726 -101.67144117 561.61306767 -119.85546875 551 C-128.22105039 545.58099975 -128.22105039 545.58099975 -131.75 542.125 C-131.75 541.465 -131.75 540.805 -131.75 540.125 C-132.74 540.125 -133.73 540.125 -134.75 540.125 C-139.31205222 534.98380084 -143.84078256 528.79273667 -143.703125 521.71484375 C-142.88110206 510.98112115 -142.88110206 510.98112115 -138.8125 507.4375 C-127.19248914 502.45749534 -113.64044715 503.4850672 -101.75 507.125 C-98.20716721 500.30497771 -95.08929354 493.41525654 -92.3125 486.25 C-91.74885742 484.86554688 -91.74885742 484.86554688 -91.17382812 483.453125 C-90.6565918 482.11894531 -90.6565918 482.11894531 -90.12890625 480.7578125 C-89.8151001 479.96262207 -89.50129395 479.16743164 -89.17797852 478.34814453 C-88.63839285 475.54525401 -89.20678677 474.47574901 -90.75 472.125 C-92.41408076 470.43462247 -92.41408076 470.43462247 -94.375 468.875 C-123.20824581 444.24228101 -137.38109817 407.05528987 -141.75 370.125 C-141.92855616 366.74036886 -141.91396037 363.51351421 -141.75 360.125 C-142.49765625 360.13660156 -143.2453125 360.14820313 -144.015625 360.16015625 C-145.49289063 360.17369141 -145.49289063 360.17369141 -147 360.1875 C-147.97453125 360.19910156 -148.9490625 360.21070313 -149.953125 360.22265625 C-152.40758678 360.13695577 -154.41168914 359.83206066 -156.75 359.125 C-156.61980469 359.78886719 -156.48960937 360.45273437 -156.35546875 361.13671875 C-155.23823324 368.28911429 -155.23823324 368.28911429 -157.625 372.1875 C-164.62797352 376.52934358 -172.31975735 375.24828814 -180.1875 373.9765625 C-188.74842956 371.93019995 -195.68955015 367.4969642 -202.41796875 361.96875 C-205.03988907 359.89580797 -207.76503877 358.07869061 -210.5625 356.25 C-220.7494136 349.5019808 -229.67043229 343.22693536 -236.75 333.125 C-237.50603516 332.10599609 -237.50603516 332.10599609 -238.27734375 331.06640625 C-241.66724815 326.18297875 -243.70343839 321.13144711 -243.75 315.125 C-242.88153656 311.81631412 -241.48849748 309.05836056 -239.75 306.125 C-239.151875 305.09375 -238.55375 304.0625 -237.9375 303 C-226.72826902 288.26786786 -211.29981174 281.9557926 -194 276.9375 C-181.56658027 273.21942929 -169.73714931 268.61718577 -157.96875 263.12719727 C-156.40321192 262.42005226 -154.81502792 261.76204472 -153.21362305 261.14038086 C-150.91519825 260.19308637 -148.93438884 259.13019561 -146.83203125 257.8125 C-146.13529297 257.37679688 -145.43855469 256.94109375 -144.72070312 256.4921875 C-143.65239258 255.81542969 -143.65239258 255.81542969 -142.5625 255.125 C-141.83869141 254.67382812 -141.11488281 254.22265625 -140.36914062 253.7578125 C-136.33410183 251.23306924 -136.33410183 251.23306924 -132.75 248.125 C-131.76 248.125 -130.77 248.125 -129.75 248.125 C-129.523125 247.568125 -129.29625 247.01125 -129.0625 246.4375 C-126.79399551 242.44061114 -124.13100054 239.58533351 -119.75 238.125 C-118.40226617 235.90486461 -118.40226617 235.90486461 -117.25390625 233.11328125 C-116.54766113 231.52555908 -116.54766113 231.52555908 -115.82714844 229.90576172 C-115.32731445 228.76123535 -114.82748047 227.61670898 -114.3125 226.4375 C-108.73493892 213.97540745 -102.48392352 202.00138923 -95.75 190.125 C-110.36245638 195.8963063 -124.71263007 201.95934392 -138.71777344 209.09277344 C-142.0534197 210.78704451 -145.40216685 212.45497673 -148.75 214.125 C-152.81208027 216.15329717 -156.87218909 218.18525155 -160.92578125 220.23046875 C-164.26291582 221.91353169 -167.60911646 223.57734749 -170.96044922 225.23193359 C-172.59859488 226.04944203 -174.22387342 226.89260368 -175.84765625 227.73828125 C-183.10897556 231.36383449 -188.82799021 232.75254457 -196.6796875 230.15625 C-202.06837788 227.69774935 -205.23333182 225.3775612 -207.5 219.8125 C-210.63374808 208.44498246 -205.84831215 199.23610931 -200.79174805 189.20629883 C-199.81672648 187.25831222 -198.86695626 185.30045156 -197.92578125 183.3359375 C-193.48034047 174.13372061 -188.48488248 165.57664427 -182.75 157.125 C-182.31252441 156.47499023 -181.87504883 155.82498047 -181.42431641 155.15527344 C-175.44549366 146.28374619 -169.2272488 137.64098941 -162.75 129.125 C-161.76692572 127.81086991 -160.78523595 126.49570333 -159.8046875 125.1796875 C-154.24674214 117.72271184 -148.6552897 110.31288656 -142.75 103.125 C-142.24210937 102.49335937 -141.73421875 101.86171875 -141.2109375 101.2109375 C-138.73801554 98.20904827 -136.18317067 95.57285477 -133.20703125 93.06640625 C-127.05987809 87.74257013 -121.4679104 81.85421375 -115.79101562 76.0390625 C-109.80799735 69.98120146 -103.68688374 64.09654748 -96.75 59.125 C-96.09 59.125 -95.43 59.125 -94.75 59.125 C-94.75 58.465 -94.75 57.805 -94.75 57.125 C-92.5625 55.3984375 -92.5625 55.3984375 -89.75 53.5 C-88.821875 52.86835937 -87.89375 52.23671875 -86.9375 51.5859375 C-86.215625 51.10382812 -85.49375 50.62171875 -84.75 50.125 C-85.4925 49.403125 -86.235 48.68125 -87 47.9375 C-91.89434231 42.02233772 -94.23343345 33.55038208 -93.8125 25.9375 C-92.67507516 19.02285792 -89.93403899 12.38137679 -84.25 8.0625 C-81.41666529 6.33574665 -79.10057692 5.36432692 -75.75 5.125 C-74.78126953 5.04958984 -74.78126953 5.04958984 -73.79296875 4.97265625 C-67.44007372 4.69450848 -60.01911372 5.41977271 -54.9609375 9.60546875 C-53.75 11.125 -53.75 11.125 -53.75 13.125 C-46.17316601 11.82333462 -46.17316601 11.82333462 -40.375 7.25 C-39.83875 6.21875 -39.3025 5.1875 -38.75 4.125 C-36.25 1.4375 -36.25 1.4375 -33.75 -0.875 C-33.1725 -1.431875 -32.595 -1.98875 -32 -2.5625 C-21.45942264 -8.71117013 -9.59890499 -6.54470795 0 0 Z M682.25 379.125 C683.25 381.125 683.25 381.125 683.25 381.125 Z " fill="#FEBC48" transform="translate(255.75,9.875)"/>
<path d="M0 0 C2.71294485 2.56222569 4.98809116 5.15220552 7.25 8.125 C7.25 8.785 7.25 9.445 7.25 10.125 C7.91 10.125 8.57 10.125 9.25 10.125 C10.24 12.105 10.24 12.105 11.25 14.125 C11.76949219 13.38894531 12.28898437 12.65289063 12.82421875 11.89453125 C22.83985339 -2.11995197 22.83985339 -2.11995197 31.25 -4.875 C41.316687 -6.45408816 51.13365599 0.39410855 59.265625 5.57421875 C59.92046875 6.08597656 60.5753125 6.59773438 61.25 7.125 C61.25 7.785 61.25 8.445 61.25 9.125 C61.83394531 9.34800781 62.41789062 9.57101563 63.01953125 9.80078125 C67.52674715 12.47669402 69.85850111 17.59373894 72.25 22.125 C73.1875 25.8125 73.1875 25.8125 73.25 29.125 C73.415 30.40375 73.58 31.6825 73.75 33 C73.7068929 38.52848604 69.92883366 42.33400678 66.25 46.125 C62.80054476 48.98158012 59.37465249 50.45927496 55.25 52.125 C56.24580078 53.01251953 56.24580078 53.01251953 57.26171875 53.91796875 C61.70280831 57.89225765 66.03567501 61.91067501 70.25 66.125 C71.18972656 66.87136719 72.12945312 67.61773437 73.09765625 68.38671875 C76.23307517 70.98223894 78.53301971 73.89307624 80.9375 77.1875 C85.94385463 83.9200831 91.48346174 90.04053473 97.25 96.125 C92.4489098 105.21717448 87.14263398 113.86694325 81.375 122.375 C79.11372079 125.7277233 77.03040764 129.15762233 74.98071289 132.64135742 C71.68929854 138.23022714 68.37346617 143.56614725 64.2734375 148.609375 C61.45347462 152.11527479 58.76179886 155.71329912 56.0625 159.3125 C55.55098389 159.99046631 55.03946777 160.66843262 54.51245117 161.36694336 C52.23972492 164.39414782 50.03935729 167.41574309 48.01171875 170.61328125 C47.13966797 171.85658203 47.13966797 171.85658203 46.25 173.125 C45.59 173.125 44.93 173.125 44.25 173.125 C43.98316406 173.70121094 43.71632813 174.27742187 43.44140625 174.87109375 C42.20893849 177.20268029 40.82230313 179.11984119 39.1875 181.1875 C38.57519531 181.96480469 37.96289062 182.74210938 37.33203125 183.54296875 C34.29094943 187.31436666 31.18737169 191.03341538 28.0703125 194.7421875 C26.08808733 197.069706 26.08808733 197.069706 25.25 200.125 C23.3125 202.3125 23.3125 202.3125 21.25 204.125 C20.59 204.125 19.93 204.125 19.25 204.125 C19.0025 204.681875 18.755 205.23875 18.5 205.8125 C17.02075182 208.54910913 15.31532561 210.80150869 13.25 213.125 C12.59 213.125 11.93 213.125 11.25 213.125 C10.92 214.115 10.59 215.105 10.25 216.125 C8.4296875 217.73828125 8.4296875 217.73828125 6.125 219.4375 C3.21464035 221.62141917 0.40029669 223.82539881 -2.3125 226.25 C-5.88211491 229.33877638 -9.69758998 231.72279819 -13.75 234.125 C-14.62398437 234.68316406 -15.49796875 235.24132812 -16.3984375 235.81640625 C-37.36793672 248.8309882 -66.92525351 253.93623453 -91.1484375 248.33984375 C-100.0607881 245.77416706 -108.77587805 242.40170975 -115.75 236.125 C-115.79608398 236.67897461 -115.84216797 237.23294922 -115.88964844 237.80371094 C-116.40548946 243.21660278 -117.44048929 248.17643216 -119 253.375 C-126.24173031 278.59528563 -130.5974018 303.92226129 -133.37060547 329.99609375 C-133.62110649 332.06200178 -133.9162865 334.12303846 -134.25830078 336.17578125 C-136.1837933 347.73921048 -136.20178932 359.30286601 -136.375 371 C-136.41326703 373.15235804 -136.4523235 375.3047022 -136.4921875 377.45703125 C-136.58722103 382.67956244 -136.67253128 387.90218025 -136.75 393.125 C-137.08 393.125 -137.41 393.125 -137.75 393.125 C-138.43118591 389.5025765 -139.09220918 385.87673859 -139.75 382.25 C-139.94078125 381.23679687 -140.1315625 380.22359375 -140.328125 379.1796875 C-141.48169237 372.7526693 -142.01058928 366.65239943 -141.75 360.125 C-142.49765625 360.13660156 -143.2453125 360.14820313 -144.015625 360.16015625 C-145.49289063 360.17369141 -145.49289063 360.17369141 -147 360.1875 C-147.97453125 360.19910156 -148.9490625 360.21070313 -149.953125 360.22265625 C-152.40758678 360.13695577 -154.41168914 359.83206066 -156.75 359.125 C-156.61980469 359.78886719 -156.48960937 360.45273437 -156.35546875 361.13671875 C-155.23823324 368.28911429 -155.23823324 368.28911429 -157.625 372.1875 C-164.62797352 376.52934358 -172.31975735 375.24828814 -180.1875 373.9765625 C-188.74842956 371.93019995 -195.68955015 367.4969642 -202.41796875 361.96875 C-205.03988907 359.89580797 -207.76503877 358.07869061 -210.5625 356.25 C-220.7494136 349.5019808 -229.67043229 343.22693536 -236.75 333.125 C-237.50603516 332.10599609 -237.50603516 332.10599609 -238.27734375 331.06640625 C-241.66724815 326.18297875 -243.70343839 321.13144711 -243.75 315.125 C-242.88153656 311.81631412 -241.48849748 309.05836056 -239.75 306.125 C-239.151875 305.09375 -238.55375 304.0625 -237.9375 303 C-226.72826902 288.26786786 -211.29981174 281.9557926 -194 276.9375 C-181.56658027 273.21942929 -169.73714931 268.61718577 -157.96875 263.12719727 C-156.40321192 262.42005226 -154.81502792 261.76204472 -153.21362305 261.14038086 C-150.91519825 260.19308637 -148.93438884 259.13019561 -146.83203125 257.8125 C-146.13529297 257.37679688 -145.43855469 256.94109375 -144.72070312 256.4921875 C-143.65239258 255.81542969 -143.65239258 255.81542969 -142.5625 255.125 C-141.83869141 254.67382812 -141.11488281 254.22265625 -140.36914062 253.7578125 C-136.33410183 251.23306924 -136.33410183 251.23306924 -132.75 248.125 C-131.76 248.125 -130.77 248.125 -129.75 248.125 C-129.523125 247.568125 -129.29625 247.01125 -129.0625 246.4375 C-126.79399551 242.44061114 -124.13100054 239.58533351 -119.75 238.125 C-118.40226617 235.90486461 -118.40226617 235.90486461 -117.25390625 233.11328125 C-116.54766113 231.52555908 -116.54766113 231.52555908 -115.82714844 229.90576172 C-115.32731445 228.76123535 -114.82748047 227.61670898 -114.3125 226.4375 C-108.73493892 213.97540745 -102.48392352 202.00138923 -95.75 190.125 C-110.36245638 195.8963063 -124.71263007 201.95934392 -138.71777344 209.09277344 C-142.0534197 210.78704451 -145.40216685 212.45497673 -148.75 214.125 C-152.81208027 216.15329717 -156.87218909 218.18525155 -160.92578125 220.23046875 C-164.26291582 221.91353169 -167.60911646 223.57734749 -170.96044922 225.23193359 C-172.59859488 226.04944203 -174.22387342 226.89260368 -175.84765625 227.73828125 C-183.10897556 231.36383449 -188.82799021 232.75254457 -196.6796875 230.15625 C-202.06837788 227.69774935 -205.23333182 225.3775612 -207.5 219.8125 C-210.63374808 208.44498246 -205.84831215 199.23610931 -200.79174805 189.20629883 C-199.81672648 187.25831222 -198.86695626 185.30045156 -197.92578125 183.3359375 C-193.48034047 174.13372061 -188.48488248 165.57664427 -182.75 157.125 C-182.31252441 156.47499023 -181.87504883 155.82498047 -181.42431641 155.15527344 C-175.44549366 146.28374619 -169.2272488 137.64098941 -162.75 129.125 C-161.76692572 127.81086991 -160.78523595 126.49570333 -159.8046875 125.1796875 C-154.24674214 117.72271184 -148.6552897 110.31288656 -142.75 103.125 C-142.24210937 102.49335937 -141.73421875 101.86171875 -141.2109375 101.2109375 C-138.73801554 98.20904827 -136.18317067 95.57285477 -133.20703125 93.06640625 C-127.05987809 87.74257013 -121.4679104 81.85421375 -115.79101562 76.0390625 C-109.80799735 69.98120146 -103.68688374 64.09654748 -96.75 59.125 C-96.09 59.125 -95.43 59.125 -94.75 59.125 C-94.75 58.465 -94.75 57.805 -94.75 57.125 C-92.5625 55.3984375 -92.5625 55.3984375 -89.75 53.5 C-88.821875 52.86835937 -87.89375 52.23671875 -86.9375 51.5859375 C-86.215625 51.10382812 -85.49375 50.62171875 -84.75 50.125 C-85.4925 49.403125 -86.235 48.68125 -87 47.9375 C-91.89434231 42.02233772 -94.23343345 33.55038208 -93.8125 25.9375 C-92.67507516 19.02285792 -89.93403899 12.38137679 -84.25 8.0625 C-81.41666529 6.33574665 -79.10057692 5.36432692 -75.75 5.125 C-74.78126953 5.04958984 -74.78126953 5.04958984 -73.79296875 4.97265625 C-67.44007372 4.69450848 -60.01911372 5.41977271 -54.9609375 9.60546875 C-53.75 11.125 -53.75 11.125 -53.75 13.125 C-46.17316601 11.82333462 -46.17316601 11.82333462 -40.375 7.25 C-39.83875 6.21875 -39.3025 5.1875 -38.75 4.125 C-36.25 1.4375 -36.25 1.4375 -33.75 -0.875 C-33.1725 -1.431875 -32.595 -1.98875 -32 -2.5625 C-21.45942264 -8.71117013 -9.59890499 -6.54470795 0 0 Z " fill="#FEBC48" transform="translate(255.75,9.875)"/>
<path d="M0 0 C0.75990234 0.03222656 1.51980469 0.06445312 2.30273438 0.09765625 C9.0208271 0.54514663 14.28212701 2.62999716 19.41796875 7.0078125 C30.70860068 20.0558349 30.70860068 20.0558349 30.1875 28.125 C29.39954523 32.05681473 27.33815001 34.99349163 24.92578125 38.140625 C23.79264125 40.01230502 23.79264125 40.01230502 24.8046875 42.08203125 C27.74212 46.56115969 31.24340885 50.26577754 35.0625 54 C36.52415192 55.43412552 37.9821522 56.87197748 39.4375 58.3125 C40.14648438 59.00988281 40.85546875 59.70726562 41.5859375 60.42578125 C47.41173825 66.48130601 52.76948271 72.96699129 58.125 79.4375 C58.71087891 80.13681641 59.29675781 80.83613281 59.90039062 81.55664062 C63.98142737 86.48921445 67.60916522 91.61052551 71.0625 97 C65.55457528 100.63933256 59.95188075 103.54831669 53.9375 106.25 C46.59532673 109.63336151 39.84007155 113.43390169 33.13671875 117.9375 C29.68206995 120.25523134 26.151856 122.3998748 22.56689453 124.50805664 C20.97004617 125.45934737 19.38276374 126.42701664 17.80883789 127.41577148 C11.67804217 131.2349452 5.43959372 134.17307343 -1.25 136.875 C-2.2910791 137.30208252 -3.3321582 137.72916504 -4.40478516 138.16918945 C-12.89574495 141.63092811 -21.44422768 144.9321403 -30.03515625 148.13671875 C-33.09523929 149.28343335 -36.11790807 150.48142652 -39.12109375 151.76953125 C-52.77402189 157.54458529 -67.10381105 160.76117751 -81.4909668 164.1496582 C-83.88060969 164.73924 -86.25729305 165.38295692 -88.62109375 166.06884766 C-91.15947041 166.78155147 -93.44656246 167.31685882 -96.05078125 167.59765625 C-97.0862207 167.71657227 -97.0862207 167.71657227 -98.14257812 167.83789062 C-98.83802734 167.91201172 -99.53347656 167.98613281 -100.25 168.0625 C-105.24471617 168.45250086 -105.24471617 168.45250086 -109.9375 170 C-115.38680536 170.88102542 -120.30139219 171.49915154 -125.625 169.875 C-127.9375 168 -127.9375 168 -128.875 165.4375 C-128.9375 163 -128.9375 163 -127.9375 161 C-127.2775 161 -126.6175 161 -125.9375 161 C-125.9375 158.36 -125.9375 155.72 -125.9375 153 C-124.9475 153.33 -123.9575 153.66 -122.9375 154 C-122.9375 152.68 -122.9375 151.36 -122.9375 150 C-114.14366168 147.7655001 -105.58749045 147.65579575 -96.5725708 147.53668213 C-43.08280557 148.42171222 -43.08280557 148.42171222 3.0625 125 C3.7225 125 4.3825 125 5.0625 125 C5.289375 124.46375 5.51625 123.9275 5.75 123.375 C7.0625 121 7.0625 121 9.625 117.9375 C12.19787799 115.19794312 12.19787799 115.19794312 13.0625 112 C11.4125 112 9.7625 112 8.0625 112 C8.0625 112.66 8.0625 113.32 8.0625 114 C2.39453403 119.47159413 -4.30055306 123.02565769 -11.4375 126.1875 C-12.39946289 126.61675781 -13.36142578 127.04601562 -14.35253906 127.48828125 C-37.58454641 137.53622075 -62.79733529 137.38588593 -87.69799805 137.95361328 C-106.15784469 138.39210192 -123.32638046 140.61306337 -141.18603516 145.29833984 C-146.45969302 146.64319279 -151.79880466 147.69839883 -157.125 148.8125 C-176.52866691 152.95032072 -195.52239805 157.28138854 -214.30444336 163.7421875 C-221.56192963 166.23756177 -228.82602016 168.44641097 -236.25048828 170.38330078 C-240.1266129 171.41625707 -243.65289504 172.66535367 -247.25 174.4375 C-250.05619558 175.78822282 -250.71139275 176.02826341 -253.9375 175.625 C-255.9375 174 -255.9375 174 -256.67578125 171.26953125 C-257.5045612 160.91596683 -249.72325992 151.17828108 -244.046875 143.1171875 C-241.8404954 140.15861289 -241.8404954 140.15861289 -240.9375 137 C-240.2775 137 -239.6175 137 -238.9375 137 C-238.68742187 136.43410156 -238.43734375 135.86820313 -238.1796875 135.28515625 C-228.61005624 117.68064591 -206.43746663 103.95297445 -190.77685547 92.36328125 C-189.20218575 91.19617802 -187.63366168 90.02079082 -186.06640625 88.84375 C-174.63338857 80.35164555 -162.62279008 72.49333423 -149.9375 66 C-150.9275 65.01 -151.9175 64.02 -152.9375 63 C-134.83924223 54.1106913 -116.44507799 45.99003248 -97.9375 38 C-97.9375 35.50352778 -98.76677412 34.40710018 -100 32.25 C-101.32908642 29.59182715 -101.93157275 28.13632677 -102.0625 25.125 C-99.89874606 19.11457238 -97.23081361 13.51358698 -91.8125 9.9375 C-90.86375 9.628125 -89.915 9.31875 -88.9375 9 C-88.009375 8.6596875 -88.009375 8.6596875 -87.0625 8.3125 C-79.43259242 7.19045477 -73.7417823 8.39220265 -66.9375 12 C-62.02038691 16.06196299 -58.41265084 20.545054 -57.1875 26.875 C-57.105 27.90625 -57.0225 28.9375 -56.9375 30 C-56.174375 29.814375 -55.41125 29.62875 -54.625 29.4375 C-51.9375 29 -51.9375 29 -48.9375 30 C-45.22614446 30.22923078 -41.52064163 30.3926977 -37.8046875 30.51757812 C-32.86566345 30.73499364 -28.63626533 31.44840236 -23.9375 33 C-24.2675 32.34 -24.5975 31.68 -24.9375 31 C-25.89475497 17.67206545 -25.89475497 17.67206545 -21.9375 12 C-21.51210938 11.34386719 -21.08671875 10.68773437 -20.6484375 10.01171875 C-15.10915442 1.91014697 -9.6197203 -0.79555493 0 0 Z " fill="#FEBC48" transform="translate(582.9375,170)"/>
<path d="M0 0 C5.59753384 4.54799625 10.3143947 9.52331848 15 15 C10.1989098 24.09217448 4.89263398 32.74194325 -0.875 41.25 C-3.13627921 44.6027233 -5.21959236 48.03262233 -7.26928711 51.51635742 C-10.56070146 57.10522714 -13.87653383 62.44114725 -17.9765625 67.484375 C-20.79652538 70.99027479 -23.48820114 74.58829912 -26.1875 78.1875 C-26.69901611 78.86546631 -27.21053223 79.54343262 -27.73754883 80.24194336 C-30.01027508 83.26914782 -32.21064271 86.29074309 -34.23828125 89.48828125 C-34.81964844 90.31714844 -35.40101563 91.14601563 -36 92 C-36.66 92 -37.32 92 -38 92 C-38.40025391 92.86431641 -38.40025391 92.86431641 -38.80859375 93.74609375 C-40.04106151 96.07768029 -41.42769687 97.99484119 -43.0625 100.0625 C-43.67480469 100.83980469 -44.28710938 101.61710937 -44.91796875 102.41796875 C-47.95905057 106.18936666 -51.06262831 109.90841538 -54.1796875 113.6171875 C-56.16191267 115.944706 -56.16191267 115.944706 -57 119 C-58.9375 121.1875 -58.9375 121.1875 -61 123 C-61.66 123 -62.32 123 -63 123 C-63.2475 123.556875 -63.495 124.11375 -63.75 124.6875 C-65.22924818 127.42410913 -66.93467439 129.67650869 -69 132 C-69.66 132 -70.32 132 -71 132 C-71.33 132.99 -71.66 133.98 -72 135 C-73.8203125 136.61328125 -73.8203125 136.61328125 -76.125 138.3125 C-79.03535965 140.49641917 -81.84970331 142.70039881 -84.5625 145.125 C-88.13211491 148.21377638 -91.94758998 150.59779819 -96 153 C-96.87398437 153.55816406 -97.74796875 154.11632812 -98.6484375 154.69140625 C-119.61793672 167.7059882 -149.17525351 172.81123453 -173.3984375 167.21484375 C-182.3107881 164.64916706 -191.02587805 161.27670975 -198 155 C-198.04608398 155.55397461 -198.09216797 156.10794922 -198.13964844 156.67871094 C-198.65548946 162.09160278 -199.69048929 167.05143216 -201.25 172.25 C-208.49173031 197.47028563 -212.8474018 222.79726129 -215.62060547 248.87109375 C-215.87110649 250.93700178 -216.1662865 252.99803846 -216.50830078 255.05078125 C-218.4337933 266.61421048 -218.45178932 278.17786601 -218.625 289.875 C-218.66326703 292.02735804 -218.7023235 294.1797022 -218.7421875 296.33203125 C-218.83722103 301.55456244 -218.92253128 306.77718025 -219 312 C-219.33 312 -219.66 312 -220 312 C-220.68118591 308.3775765 -221.34220918 304.75173859 -222 301.125 C-222.19078125 300.11179687 -222.3815625 299.09859375 -222.578125 298.0546875 C-223.73169237 291.6276693 -224.26058928 285.52739943 -224 279 C-224.74765625 279.01160156 -225.4953125 279.02320313 -226.265625 279.03515625 C-227.74289063 279.04869141 -227.74289063 279.04869141 -229.25 279.0625 C-230.22453125 279.07410156 -231.1990625 279.08570313 -232.203125 279.09765625 C-234.65758678 279.01195577 -236.66168914 278.70706066 -239 278 C-238.86980469 278.66386719 -238.73960937 279.32773437 -238.60546875 280.01171875 C-237.48823324 287.16411429 -237.48823324 287.16411429 -239.875 291.0625 C-246.87797352 295.40434358 -254.56975735 294.12328814 -262.4375 292.8515625 C-270.99842956 290.80519995 -277.93955015 286.3719642 -284.66796875 280.84375 C-287.28988907 278.77080797 -290.01503877 276.95369061 -292.8125 275.125 C-302.9994136 268.3769808 -311.92043229 262.10193536 -319 252 C-319.50402344 251.32066406 -320.00804687 250.64132812 -320.52734375 249.94140625 C-323.91724815 245.05797875 -325.95343839 240.00644711 -326 234 C-325.13153656 230.69131412 -323.73849748 227.93336056 -322 225 C-321.401875 223.96875 -320.80375 222.9375 -320.1875 221.875 C-308.97826902 207.14286786 -293.54981174 200.8307926 -276.25 195.8125 C-263.81658027 192.09442929 -251.98714931 187.49218577 -240.21875 182.00219727 C-238.65321192 181.29505226 -237.06502792 180.63704472 -235.46362305 180.01538086 C-233.16519825 179.06808637 -231.18438884 178.00519561 -229.08203125 176.6875 C-228.38529297 176.25179687 -227.68855469 175.81609375 -226.97070312 175.3671875 C-225.90239258 174.69042969 -225.90239258 174.69042969 -224.8125 174 C-224.08869141 173.54882812 -223.36488281 173.09765625 -222.61914062 172.6328125 C-218.58410183 170.10806924 -218.58410183 170.10806924 -215 167 C-214.01 167 -213.02 167 -212 167 C-211.773125 166.443125 -211.54625 165.88625 -211.3125 165.3125 C-209.04399551 161.31561114 -206.38100054 158.46033351 -202 157 C-200.65226617 154.77986461 -200.65226617 154.77986461 -199.50390625 151.98828125 C-198.79766113 150.40055908 -198.79766113 150.40055908 -198.07714844 148.78076172 C-197.57731445 147.63623535 -197.07748047 146.49170898 -196.5625 145.3125 C-190.98493892 132.85040745 -184.73392352 120.87638923 -178 109 C-178.91523438 109.37253906 -179.83046875 109.74507813 -180.7734375 110.12890625 C-182.55621094 110.83853516 -182.55621094 110.83853516 -184.375 111.5625 C-185.55835938 112.03816406 -186.74171875 112.51382813 -187.9609375 113.00390625 C-191 114 -191 114 -193 113 C-190.91794343 111.70623653 -188.83442696 110.41493446 -186.75 109.125 C-185.87021484 108.57779297 -185.87021484 108.57779297 -184.97265625 108.01953125 C-182.56693581 106.53285008 -180.19168879 105.09203601 -177.640625 103.8671875 C-175.80883383 103.10247795 -175.80883383 103.10247795 -175 101 C-174.01 101 -173.02 101 -172 101 C-171.01 99.515 -171.01 99.515 -170 98 C-168.0546875 97.48828125 -168.0546875 97.48828125 -165.875 97.3125 C-164.59625 97.209375 -163.3175 97.10625 -162 97 C-161.67 96.01 -161.34 95.02 -161 94 C-157.18632027 90.05919761 -152.82053979 88.78967265 -147.765625 87.06640625 C-144.52887028 85.81833557 -141.90346028 84.14661818 -139.03515625 82.2265625 C-135.95785564 80.37191299 -132.67839521 79.17765731 -129.32421875 77.9140625 C-126.78697468 76.96591715 -126.78697468 76.96591715 -123.6875 75.25 C-120.8596073 73.93470107 -119.07679716 73.7285179 -116 74 C-116 73.34 -116 72.68 -116 72 C-113.41763895 70.62314873 -110.83418597 69.24841924 -108.25 67.875 C-107.47229248 67.46048584 -106.69458496 67.04597168 -105.89331055 66.61889648 C-101.57621897 64.32782209 -97.23514235 62.14480243 -92.8125 60.0625 C-81.18928709 54.29892335 -70.30175932 46.31695542 -62.9375 35.5625 C-61.48828125 33.53515625 -61.48828125 33.53515625 -60 32 C-56.625 31.5 -56.625 31.5 -54 32 C-53.35546875 33.765625 -53.35546875 33.765625 -53 36 C-53.92578125 37.921875 -53.92578125 37.921875 -55.3125 39.75 C-55.76238281 40.36359375 -56.21226562 40.9771875 -56.67578125 41.609375 C-57.11277344 42.06828125 -57.54976563 42.5271875 -58 43 C-58.66 43 -59.32 43 -60 43 C-60.24105469 43.58910156 -60.48210937 44.17820313 -60.73046875 44.78515625 C-62.2438085 47.42535206 -63.85948212 48.65236262 -66.3125 50.4375 C-69.85884456 53.09440766 -72.96430475 55.78032321 -76 59 C-76.99 59.99 -76.99 59.99 -78 61 C-78.99 61 -79.98 61 -81 61 C-81 61.66 -81 62.32 -81 63 C-91.23809214 68.53092334 -101.54379654 73.89250174 -112 79 C-113.17780029 79.57548584 -113.17780029 79.57548584 -114.37939453 80.16259766 C-122.67021054 84.19565731 -130.86762913 88.13746339 -139.60546875 91.1171875 C-142.97934802 92.36106469 -146.11271381 93.9816015 -149.3046875 95.62890625 C-152.50661948 97.25771513 -155.7451101 98.79235911 -159 100.3125 C-160.6396875 101.08013672 -160.6396875 101.08013672 -162.3125 101.86328125 C-165 103 -165 103 -167 103 C-167.185625 103.9590625 -167.185625 103.9590625 -167.375 104.9375 C-167.58125 105.618125 -167.7875 106.29875 -168 107 C-168.99 107.495 -168.99 107.495 -170 108 C-158.57593837 108.98862072 -146.97756445 105.75432279 -136.7734375 100.75 C-134.45905929 99.77123212 -132.47833483 99.68021486 -130 100 C-129.67 99.34 -129.34 98.68 -129 98 C-125.80644422 96.0347349 -122.7960626 94.31472242 -119.3125 92.9375 C-116.93183744 92.08911044 -116.93183744 92.08911044 -114.9375 90.4375 C-113 89 -113 89 -111 88.5625 C-108.78010853 88.11894427 -108.78010853 88.11894427 -107 85.9375 C-105 84 -105 84 -101 84 C-101 83.34 -101 82.68 -101 82 C-98.61351207 80.26949943 -96.2288835 78.65017677 -93.75 77.0625 C-92.38997594 76.17938419 -91.03058318 75.29529527 -89.671875 74.41015625 C-89.03056641 73.99523926 -88.38925781 73.58032227 -87.72851562 73.15283203 C-86.32740152 72.21836016 -84.97511125 71.21097141 -83.640625 70.18359375 C-82 69 -82 69 -80 69 C-80 68.34 -80 67.68 -80 67 C-74.58823529 63 -74.58823529 63 -72 63 C-71.67 62.01 -71.34 61.02 -71 60 C-69.06640625 58.23828125 -69.06640625 58.23828125 -66.5625 56.3125 C-65.66015625 55.60996094 -64.7578125 54.90742188 -63.828125 54.18359375 C-62.42820312 53.10271484 -62.42820312 53.10271484 -61 52 C-59.26766434 50.62899471 -57.53838359 49.25411863 -55.8125 47.875 C-54.58466797 46.89660156 -54.58466797 46.89660156 -53.33203125 45.8984375 C-51.17681716 44.1439416 -49.08395072 42.33801865 -47 40.5 C-44 38 -44 38 -42 38 C-42 37.34 -42 36.68 -42 36 C-36.52380952 31 -36.52380952 31 -34 31 C-34 30.34 -34 29.68 -34 29 C-33.34 29 -32.68 29 -32 29 C-32 28.34 -32 27.68 -32 27 C-30.51261765 25.64617851 -28.95569449 24.36860114 -27.375 23.125 C-22.75944863 19.43375155 -18.22777949 15.66974063 -13.75 11.8125 C-13.18458496 11.32604004 -12.61916992 10.83958008 -12.03662109 10.33837891 C-10.9283702 9.3843475 -9.82045375 8.42992743 -8.71289062 7.47509766 C-5.81323468 4.97798802 -2.90648342 2.48915627 0 0 Z " fill="#CF7426" transform="translate(338,91)"/>
<path d="M0 0 C1.31291016 -0.03867187 1.31291016 -0.03867187 2.65234375 -0.078125 C5.55094537 0.31649823 6.28713415 0.98177139 8.0625 3.25 C10.41174219 6.77386328 11.02703161 10.03639636 11.75 14.125 C11.88446533 14.88441895 12.01893066 15.64383789 12.1574707 16.42626953 C13.06419136 22.06321739 13.12289088 27.24612203 12.38671875 32.9296875 C12.11027534 35.76073444 12.10687355 38.33918148 12.1875 41.171875 C12.22506246 47.79520172 11.06254474 54.14008582 9.77368164 60.61035156 C9.37748331 62.61245114 9.00518827 64.6179917 8.63476562 66.625 C6.5546419 77.51467595 3.1055741 87.38355371 -1.9375 97.25 C-1.380625 97.05664062 -0.82375 96.86328125 -0.25 96.6640625 C9.85197827 93.2171037 18.29150501 91.64218795 29.0625 92.25 C29.7225 92.58 30.3825 92.91 31.0625 93.25 C32.45483 97.70826878 33.69948682 102.71163147 32.54296875 107.3203125 C31.53610182 109.16266475 30.42307907 110.64953922 29.0625 112.25 C28.19044922 113.33861328 28.19044922 113.33861328 27.30078125 114.44921875 C25.61567709 116.47346337 23.97400096 118.43736978 22.0625 120.25 C21.4025 120.25 20.7425 120.25 20.0625 120.25 C19.794375 120.889375 19.52625 121.52875 19.25 122.1875 C18.0625 124.25 18.0625 124.25 15.0625 125.25 C14.35855388 126.56403276 13.69904342 127.9020257 13.0625 129.25 C8.89007664 135.1876794 3.02879961 140.14816902 -2.9375 144.25 C-3.5975 144.25 -4.2575 144.25 -4.9375 144.25 C-4.9375 144.91 -4.9375 145.57 -4.9375 146.25 C-12.15446032 151.50468461 -20.33727193 155.66222672 -28.125 160 C-28.94323242 160.45947021 -29.76146484 160.91894043 -30.60449219 161.39233398 C-36.23008059 164.48843525 -41.93267692 166.98595702 -47.9375 169.25 C-48.6389917 169.52183105 -49.3404834 169.79366211 -50.06323242 170.07373047 C-57.92866966 173.11847782 -65.79573926 176.01884441 -73.9375 178.25 C-69.98159443 179.67852146 -66.03125771 180.69321187 -61.9375 181.625 C-57.11790136 182.79393251 -53.78587077 184.14992355 -49.9375 187.25 C-52.61546394 192.22336161 -54.75054316 194.59173238 -60.125 196.5 C-98.71055961 207.4575497 -139.15815242 203.3516706 -177.6875 194.6875 C-178.3472583 194.5398822 -179.0070166 194.3922644 -179.68676758 194.24017334 C-186.64253877 192.66948018 -193.34140598 190.97627504 -199.9375 188.25 C-199.2775 187.92 -198.6175 187.59 -197.9375 187.25 C-198.02 186.321875 -198.1025 185.39375 -198.1875 184.4375 C-198.20604946 179.87433399 -196.59751428 176.04748384 -194.9453125 171.84765625 C-193.83430248 169.11336321 -193.83430248 169.11336321 -192.9375 165.625 C-192.4425 164.449375 -192.4425 164.449375 -191.9375 163.25 C-190.61446283 162.8778958 -189.28012065 162.54369827 -187.9375 162.25 C-187.73253906 161.47398437 -187.52757812 160.69796875 -187.31640625 159.8984375 C-185.9375 157.25 -185.9375 157.25 -182.40234375 155.73046875 C-180.89775562 155.28393385 -179.38818841 154.85396089 -177.875 154.4375 C-164.24379678 150.28791866 -151.64783175 144.41831783 -139.9375 136.25 C-139.0609375 135.64671875 -138.184375 135.0434375 -137.28125 134.421875 C-126.04866176 126.48159711 -115.89312575 117.31112796 -105.84765625 107.9453125 C-103.6159606 105.8783729 -101.36842935 103.85720277 -99.0625 101.875 C-89.30208597 93.40912509 -79.93813222 84.46387505 -70.97387695 75.16162109 C-69.66433749 73.82167599 -68.305217 72.53050643 -66.9375 71.25 C-66.2775 71.25 -65.6175 71.25 -64.9375 71.25 C-64.73511719 70.71890625 -64.53273438 70.1878125 -64.32421875 69.640625 C-62.33282206 66.20756929 -59.5923616 63.74179979 -56.75 61 C-51.92128581 56.2481406 -47.23794938 51.49313661 -42.9375 46.25 C-42.4955127 45.71117187 -42.05352539 45.17234375 -41.59814453 44.6171875 C-34.62823776 36.0890881 -28.04966653 27.41824979 -21.9375 18.25 C-21.2775 18.25 -20.6175 18.25 -19.9375 18.25 C-19.875625 17.54875 -19.81375 16.8475 -19.75 16.125 C-17.9355094 9.70449481 -12.0609497 5.21196237 -6.9375 1.25 C-4.48367866 0.02308933 -2.73765897 0.04824069 0 0 Z M6.0625 17.25 C7.0625 19.25 7.0625 19.25 7.0625 19.25 Z " fill="#FEBC48" transform="translate(931.9375,371.75)"/>
<path d="M0 0 C6.875 0.875 6.875 0.875 8 2 C8.97205539 7.55460226 6.62664784 10.66057055 3.60546875 15.046875 C2 17 2 17 -1 19 C-0.34 19.33 0.32 19.66 1 20 C0.195625 20.78375 -0.60875 21.5675 -1.4375 22.375 C-3.98690417 24.71982856 -3.98690417 24.71982856 -5 27 C-5.66 27 -6.32 27 -7 27 C-7.0825 27.763125 -7.165 28.52625 -7.25 29.3125 C-8.18261139 32.65435746 -9.19952032 33.05522244 -12 35 C-13.69088222 36.97956942 -15.35830472 38.97945196 -17 41 C-18.6875 42.875 -18.6875 42.875 -20 44 C-20.66 44 -21.32 44 -22 44 C-22.20625 44.721875 -22.4125 45.44375 -22.625 46.1875 C-24.47528988 49.97218384 -26.60240438 51.52258653 -30 54 C-30.66 54 -31.32 54 -32 54 C-32.33 54.99 -32.66 55.98 -33 57 C-35.66083969 58.99396257 -38.61242325 61 -42 61 C-42 61.66 -42 62.32 -42 63 C-55.39208721 70.31582653 -68.65304721 77.14055057 -83.42700195 81.24755859 C-86.02952315 82.00863368 -88.56950844 82.88244779 -91.12890625 83.77734375 C-99.5557346 86.59548356 -108.13657152 88.77444629 -116.75 90.9375 C-117.61951294 91.15688232 -118.48902588 91.37626465 -119.3848877 91.60229492 C-135.04987313 95.52731207 -150.67801859 98.33501947 -166.66992188 100.53515625 C-169.99774382 100.99968506 -173.3206251 101.4824411 -176.640625 102 C-178.04876465 102.2165625 -178.04876465 102.2165625 -179.48535156 102.4375 C-181.94448872 102.98758272 -183.79124811 103.81708266 -186 105 C-188.66353755 105.51520982 -191.29499131 105.72949913 -194 106 C-193.71125 106.67546875 -193.4225 107.3509375 -193.125 108.046875 C-192.568125 109.38492188 -192.568125 109.38492188 -192 110.75 C-191.62875 111.63171875 -191.2575 112.5134375 -190.875 113.421875 C-190 116 -190 116 -190 120 C-189.0355414 122.34824702 -188.03485877 124.68191636 -187 127 C-186.7834375 128.1446875 -186.7834375 128.1446875 -186.5625 129.3125 C-186.16300255 131.16408562 -186.16300255 131.16408562 -184.3125 131.875 C-183.549375 132.24625 -182.78625 132.6175 -182 133 C-179.81986141 134.83899221 -177.73277174 136.73006902 -176 139 C-176 139.99 -176 140.98 -176 142 C-175.1646875 142.3403125 -175.1646875 142.3403125 -174.3125 142.6875 C-171.34760028 144.37028092 -169.383485 146.56108512 -167 149 C-160.69803452 154.7040867 -153.97629151 159.99839833 -147.1953125 165.1171875 C-146.47085938 165.73851562 -145.74640625 166.35984375 -145 167 C-145 167.66 -145 168.32 -145 169 C-144.38125 169.144375 -143.7625 169.28875 -143.125 169.4375 C-141 170 -141 170 -139 171 C-140.40842671 168.41186545 -141.82625938 165.82969303 -143.25 163.25 C-143.84361328 162.15558594 -143.84361328 162.15558594 -144.44921875 161.0390625 C-146.59846205 157.16337787 -148.61364899 153.95140685 -152 151 C-151.67 150.01 -151.34 149.02 -151 148 C-143.94561104 148 -139.94456217 149.99269673 -134.08129883 153.84692383 C-128.3577986 157.55211538 -122.39525451 159.74105569 -116 162 C-113.70628041 162.89056381 -111.41457699 163.78633926 -109.125 164.6875 C-103.11685894 166.98008014 -97.5849975 168.92645471 -91.14453125 169.41796875 C-84.48367543 169.99616804 -77.91312818 171.01366352 -71.3125 172.0625 C-70.12205078 172.24876953 -68.93160156 172.43503906 -67.70507812 172.62695312 C-64.80287964 173.08151433 -61.9012212 173.53924983 -59 174 C-61.30568633 171.57008488 -62.94390759 170.02687761 -66 168.5625 C-69.31791366 166.83441997 -70.86960935 165.03170978 -73 162 C-67.82259736 157.79336036 -63.86095535 156.62449226 -57.25 156.4375 C-50.11891378 156.18510156 -43.26515486 155.80384402 -37 152 C-35.263616 149.77636538 -34.31663052 147.69800692 -33.28515625 145.07421875 C-31.63875054 141.13585616 -29.48358612 137.62876251 -27.25 134 C-24.49803645 129.57135917 -24.49803645 129.57135917 -22 125 C-21.34 125 -20.68 125 -20 125 C-19.72929687 124.42507813 -19.45859375 123.85015625 -19.1796875 123.2578125 C-17.98284565 120.96716817 -16.65329343 118.95759674 -15.125 116.875 C-14.63257813 116.19179688 -14.14015625 115.50859375 -13.6328125 114.8046875 C-11.88955029 112.877924 -10.37803241 111.99856772 -8 111 C-8 110.34 -8 109.68 -8 109 C-7.34 109 -6.68 109 -6 109 C-5.77054688 108.42507813 -5.54109375 107.85015625 -5.3046875 107.2578125 C-3.65625246 104.4051315 -1.71496308 102.90943477 0.875 100.875 C1.85855469 100.09253906 2.84210938 99.31007813 3.85546875 98.50390625 C4.37157715 98.09543457 4.88768555 97.68696289 5.41943359 97.26611328 C8.04739064 95.16098736 10.61250672 92.98177903 13.1875 90.8125 C17.69237054 87.054581 22.25138303 83.4427473 27 80 C27.7940625 79.42121094 28.588125 78.84242188 29.40625 78.24609375 C31.23335203 76.91607095 33.06292316 75.58943553 34.89453125 74.265625 C37.11438702 72.64610758 39.31787875 71.0132571 41.51171875 69.359375 C50.02818449 62.96809018 58.73950545 57.25595637 68 52 C69.25876953 51.26716797 69.25876953 51.26716797 70.54296875 50.51953125 C73.57981803 48.85011879 75.4998512 47.95832093 79 48.25 C79.66 48.4975 80.32 48.745 81 49 C78.30216272 51.90773766 75.85022199 53.79086214 72.3125 55.5625 C60.51924263 61.81339877 49.49638078 69.3357764 39.0390625 77.609375 C36.08990766 79.92927572 33.08787255 82.1558613 30.0625 84.375 C23.66354413 89.15942407 17.62344594 94.3156484 11.61914062 99.58056641 C10.14167831 100.87579648 8.65714139 102.16294523 7.171875 103.44921875 C-2.04807937 111.2792863 -2.04807937 111.2792863 -9 121 C-9.66 121 -10.32 121 -11 121 C-11.11553223 121.5772583 -11.23106445 122.1545166 -11.35009766 122.74926758 C-12.05254085 125.18195871 -13.02708723 126.88837851 -14.3984375 129.01171875 C-14.87796875 129.77033203 -15.3575 130.52894531 -15.8515625 131.31054688 C-16.8560419 132.8777923 -17.86378434 134.44295184 -18.875 136.00585938 C-23.2081498 142.88212785 -26.64037491 149.67512611 -26 158 C-23.04363704 159.03872212 -20.84192262 159.33365082 -17.890625 158.1640625 C-17.08109375 157.75929688 -16.2715625 157.35453125 -15.4375 156.9375 C-9.40283126 153.98488058 -3.29040381 152.26645819 3.16308594 150.50683594 C8.22019482 149.1127891 13.21327854 147.62496204 18.1796875 145.93359375 C42.2108387 137.76480243 66.89915151 132.50371748 91.7890625 127.66381836 C94.95065089 127.01020227 98.06256482 126.24710122 101.1875 125.4375 C111.13299276 122.89472698 120.88321266 121.70484896 131.1328125 121.4375 C132.80789383 121.38227173 132.80789383 121.38227173 134.51681519 121.32592773 C138.05268625 121.20971946 141.58874054 121.10366569 145.125 121 C182.81539353 119.95302287 182.81539353 119.95302287 218.625 109.125 C219.54958008 108.71443359 220.47416016 108.30386719 221.42675781 107.88085938 C226.48726043 105.519661 230.5969886 103.0048815 234.63818359 99.13232422 C236 98 236 98 238 98 C238 97.34 238 96.68 238 96 C239.65 96 241.3 96 243 96 C241.69758289 103.12309603 236.04545729 108.52710019 230.375 112.625 C200.04492989 132.46151019 165.84850161 132.02628553 130.78271484 132.65869141 C122.80163483 132.8082986 114.93268577 133.01654203 107 134 C107 135.32 107 136.64 107 138 C106.34 138.33 105.68 138.66 105 139 C104.34227572 142.02934491 104.34227572 142.02934491 104 145 C103.34 145 102.68 145 102 145 C102.33 147.31 102.66 149.62 103 152 C104.65 152.33 106.3 152.66 108 153 C108 153.66 108 154.32 108 155 C108.66 154.67 109.32 154.34 110 154 C111.49613214 153.81873784 112.99743686 153.67899619 114.5 153.5625 C118.94076482 153.15995585 123.19433072 152.39885561 127.55078125 151.46875 C130.62159868 150.88103375 133.68138631 150.58157356 136.796875 150.34375 C139.12502034 150.04500001 139.12502034 150.04500001 141.74267578 149.06933594 C144.9219541 148.02562142 148.05232953 147.25965899 151.3203125 146.546875 C171.98867827 141.8400579 191.28920408 134.97115321 210.86245728 126.88323975 C213.08962623 125.96296615 215.31844323 125.04677683 217.54760742 124.13134766 C221.70012418 122.42504684 225.85101037 120.71485915 230 119 C230.73649277 118.69597763 231.47298553 118.39195526 232.23179626 118.07872009 C232.96942703 117.77366043 233.7070578 117.46860077 234.46704102 117.15429688 C235.46454124 116.74201843 235.46454124 116.74201843 236.48219299 116.32141113 C242.62174328 113.74222795 248.09866544 110.83736297 253.4375 106.82421875 C257.59180578 103.86680899 262.05776889 101.46900161 266.5078125 98.9921875 C268.98402827 97.60793481 271.37094531 96.12859369 273.75390625 94.58984375 C278.57885667 91.5489867 283.66117613 89.12077055 288.8125 86.6875 C289.75287109 86.23310547 290.69324219 85.77871094 291.66210938 85.31054688 C292.56380859 84.88193359 293.46550781 84.45332031 294.39453125 84.01171875 C295.20768799 83.62459717 296.02084473 83.23747559 296.85864258 82.83862305 C299 82 299 82 302 82 C303.63612732 83.88510322 305.06888717 85.7190478 306.5 87.75 C307.2734375 88.81734375 308.046875 89.8846875 308.84375 90.984375 C309.5553125 91.97953125 310.266875 92.9746875 311 94 C311.6084375 94.72703125 312.216875 95.4540625 312.84375 96.203125 C313.41609375 97.09257812 313.41609375 97.09257812 314 98 C312.5820886 102.25373421 309.43467753 103.95275349 305.9375 106.5 C305.22013672 107.03044922 304.50277344 107.56089844 303.76367188 108.10742188 C298.26508824 112.14611955 292.65701536 116.01216707 287.0168457 119.84912109 C276.45094214 127.06732196 266.11432735 134.52585091 256.91796875 143.453125 C255 145 255 145 252 145 C251.78988281 145.58394531 251.57976562 146.16789063 251.36328125 146.76953125 C249.49501558 149.8262066 247.28156762 150.90289268 244.1875 152.6875 C239.61924583 155.38215007 235.20946201 158.18416101 230.875 161.25 C223.96568464 166.09571089 216.84517191 170.57270845 209.69140625 175.046875 C206.69797024 176.92121799 203.7265241 178.82240467 200.77734375 180.765625 C200.13531006 181.18714844 199.49327637 181.60867188 198.83178711 182.04296875 C197.11389426 183.17495093 195.40053055 184.31379808 193.6875 185.453125 C191 187 191 187 188 187 C188 187.66 188 188.32 188 189 C186.1640625 190.296875 186.1640625 190.296875 183.625 191.75 C182.71363281 192.27722656 181.80226563 192.80445313 180.86328125 193.34765625 C179.91839844 193.89292969 178.97351563 194.43820312 178 195 C176.26970802 196.06066643 174.54049591 197.12309699 172.8125 198.1875 C168.97319899 200.48751469 165.15270991 202.31076207 161 204 C158.82995624 204.99265026 156.66362401 205.99343376 154.5 207 C147.72817816 210.14268129 147.72817816 210.14268129 144.3125 211.5625 C140.58869396 213.1784913 137.01956809 215.02163344 133.4296875 216.9140625 C122.8461096 221.6443433 110.48752959 218.65690822 100 215 C93.83698005 212.2436745 88.95519678 209.26501717 86 203 C84.84870002 199.36510966 83.87168912 195.71128248 83 192 C79.37928275 196.54761564 77.27524087 201.58531397 74.9375 206.875 C74.45724365 207.95966553 73.9769873 209.04433105 73.48217773 210.16186523 C69.14417878 220.21041369 65.64147502 230.46541294 62.34936523 240.89599609 C59.12615902 251.02568445 59.12615902 251.02568445 56.96875 255.0234375 C43.72172207 279.8579178 43.67741912 311.57644773 43.28930664 338.88354492 C43.27570602 339.78375366 43.26210541 340.6839624 43.24809265 341.6114502 C43.22388564 343.31777129 43.20406375 345.02416201 43.18928528 346.73059082 C43.14061802 350.31442015 42.96435948 353.55004765 42 357 C41.34 357 40.68 357 40 357 C40 357.99 40 358.98 40 360 C40.99 360 41.98 360 43 360 C44.28571429 368.42857143 44.28571429 368.42857143 43 373 C42.01 373 41.02 373 40 373 C38.7017874 367.23918159 37.74293028 361.91260345 38 356 C37.01 356 36.02 356 35 356 C34.67 353.03 34.34 350.06 34 347 C34.66 347 35.32 347 36 347 C35.98912354 346.3201001 35.97824707 345.6402002 35.96704102 344.93969727 C35.89716356 336.93706512 36.26641937 328.99496479 36.79956055 321.01489258 C36.9393688 318.90935552 37.07058761 316.80339283 37.20117188 314.69726562 C37.28855643 313.34892544 37.3764285 312.00061674 37.46484375 310.65234375 C37.543396 309.44570068 37.62194824 308.23905762 37.70288086 306.99584961 C38 304 38 304 39 301 C39.11126383 299.05082257 39.21843232 297.10117435 39.2902832 295.15014648 C39.52132933 288.94519298 39.77017344 283.28568111 42.1015625 277.46875 C43.41387033 273.8627563 44.27784914 270.16240886 45.1875 266.4375 C45.36643799 265.70909912 45.54537598 264.98069824 45.72973633 264.23022461 C46.1561059 262.48753511 46.5784761 260.74386791 47 259 C47.66 259 48.32 259 49 259 C49.23456909 258.18039795 49.23456909 258.18039795 49.47387695 257.34423828 C51.78856853 249.43322629 54.44887215 241.64725052 57.1875 233.875 C57.43054871 233.1844754 57.67359741 232.49395081 57.92401123 231.78250122 C60.85659486 223.49536517 63.90686495 215.41673739 68.08081055 207.66162109 C70.96888874 202.26514581 73.23763964 196.68378379 75.5 191 C78.36844154 183.82278008 81.42134713 176.86061151 84.97167969 169.99633789 C88.1883821 163.74777343 91.03820136 157.34877842 93.85546875 150.91162109 C95.98450168 146.08912755 98.30056059 141.52946477 101 137 C86.14019421 139.43737457 71.34797022 142.02192403 56.625 145.1875 C55.46258789 145.43709473 54.30017578 145.68668945 53.10253906 145.94384766 C47.67419136 147.13014881 42.32980313 148.42126685 37 150 C35.49357565 150.39979884 33.98563478 150.79390887 32.4765625 151.18359375 C31.6825 151.38919922 30.8884375 151.59480469 30.0703125 151.80664062 C28.44837304 152.22508028 26.82597992 152.64176562 25.203125 153.05664062 C20.41909749 154.29909437 15.74383201 155.7034606 11.08203125 157.34838867 C8.86019423 158.04375488 6.66748779 158.4781496 4.375 158.875 C0.36124222 159.70279407 -2.06882734 161.28747413 -5.27734375 163.7578125 C-11.94277656 168.56417902 -20.02484879 169.23991779 -28 168 C-31.21853109 166.49314226 -33.74617375 164.76030406 -36 162 C-36.33 160.68 -36.66 159.36 -37 158 C-42.28 160.31 -47.56 162.62 -53 165 C-52.01 165.99 -51.02 166.98 -50 168 C-48.92382876 171.53599123 -48.6807745 173.27754229 -50.1875 176.6875 C-52.81096172 180.0346753 -54.60588476 181.82179783 -58.92797852 182.37426758 C-67.7860392 182.26385296 -76.22799236 181.27476797 -84.9375 179.6875 C-86.19884766 179.47416016 -87.46019531 179.26082031 -88.75976562 179.04101562 C-94.9507585 177.94771957 -100.34413649 176.72267375 -106 174 C-107.36737019 173.49426954 -108.74165203 173.00696668 -110.12109375 172.53515625 C-111.18360352 172.17067383 -111.18360352 172.17067383 -112.26757812 171.79882812 C-113.70950301 171.30953408 -115.15220999 170.82253855 -116.59570312 170.33789062 C-121.05640176 168.80237311 -125.19434638 166.99449275 -129.35571289 164.76733398 C-130.99964111 163.85903818 -130.99964111 163.85903818 -133 164 C-132.505 166.475 -132.505 166.475 -132 169 C-131.34 169 -130.68 169 -130 169 C-128.875 174.75 -128.875 174.75 -130 177 C-135.708755 178.90291833 -141.74194933 178.79078526 -147.2109375 176.09375 C-150.12841701 174.31013807 -152.76417547 172.23009365 -155.41796875 170.078125 C-157.82406135 168.14160267 -160.28158083 166.29065419 -162.75927734 164.44726562 C-174.70263376 155.48192971 -183.73765594 144.92218401 -192.55810547 132.95019531 C-193.8046276 131.26424563 -195.07408081 129.59529531 -196.34765625 127.9296875 C-199.82674899 123.25755885 -201.8966508 119.99425344 -202 114 C-202.04769531 113.03578125 -202.09539062 112.0715625 -202.14453125 111.078125 C-202.33419149 105.3180732 -202.39124092 101.83331066 -199 97 C-198.5963623 96.31244629 -198.19272461 95.62489258 -197.77685547 94.91650391 C-195.30101406 92.24607864 -193.48602067 92.29469949 -189.8984375 91.953125 C-188.68542969 91.83066406 -187.47242188 91.70820313 -186.22265625 91.58203125 C-184.31806641 91.41767578 -184.31806641 91.41767578 -182.375 91.25 C-181.12847656 91.12496094 -179.88195312 90.99992187 -178.59765625 90.87109375 C-172.03565733 90.24053208 -165.59030673 89.86183843 -159 90 C-156.94454697 90.13565914 -156.94454697 90.13565914 -155.02734375 89.12109375 C-150.64410024 87.4978797 -146.1600232 86.84606704 -141.5625 86.0625 C-139.58304973 85.7138459 -137.60388179 85.36358506 -135.625 85.01171875 C-134.66335937 84.84075684 -133.70171875 84.66979492 -132.7109375 84.49365234 C-125.44630821 83.17078847 -118.21915452 81.68702478 -111.12768555 79.61621094 C-108.47350476 78.84751876 -105.81047447 78.11211843 -103.1484375 77.37109375 C-82.84222342 71.620196 -62.30192023 64.71131983 -44.59375 52.91796875 C-43 52 -43 52 -41 52 C-41 51.34 -41 50.68 -41 50 C-39.20703125 48.4140625 -39.20703125 48.4140625 -36.8125 46.625 C-35.99394531 46.00496094 -35.17539062 45.38492188 -34.33203125 44.74609375 C-33.56246094 44.16988281 -32.79289063 43.59367187 -32 43 C-28.44272307 40.44568364 -28.44272307 40.44568364 -26 37 C-25.34 37 -24.68 37 -24 37 C-23.67 36.01 -23.34 35.02 -23 34 C-22.34 34 -21.68 34 -21 34 C-20.67 33.01 -20.34 32.02 -20 31 C-19.34 31 -18.68 31 -18 31 C-17.67 30.01 -17.34 29.02 -17 28 C-16.34 28 -15.68 28 -15 28 C-14.9175 27.38125 -14.835 26.7625 -14.75 26.125 C-14.37875 25.073125 -14.37875 25.073125 -14 24 C-13.360625 23.71125 -12.72125 23.4225 -12.0625 23.125 C-9.73987649 22.14523925 -9.73987649 22.14523925 -9 19.4375 C-8.67 18.303125 -8.34 17.16875 -8 16 C-6.72596977 12.97294368 -5.36696968 9.98609881 -4 7 C-3.34 7 -2.68 7 -2 7 C-1.855625 6.21625 -1.71125 5.4325 -1.5625 4.625 C-1 2 -1 2 0 0 Z " fill="#CF7526" transform="translate(353,186)"/>
<path d="M0 0 C-0.91152981 6.62735794 -1.94898593 12.02001243 -5 18 C-5.83397522 21.24083636 -6.54052981 24.49931709 -7.25 27.76953125 C-7.86852678 30.43370651 -8.58712011 32.92777071 -9.5 35.5 C-11.22227224 40.35862063 -12.26793144 45.34135897 -13.3515625 50.375 C-14 53 -14 53 -15 54 C-19.76671621 74.03671618 -20.21207512 94.51235156 -21 115 C-22.485 115.495 -22.485 115.495 -24 116 C-22.515 116.99 -22.515 116.99 -21 118 C-21 118.99 -21 119.98 -21 121 C-22.74991334 121.02715383 -24.49994945 121.04646551 -26.25 121.0625 C-27.22453125 121.07410156 -28.1990625 121.08570313 -29.203125 121.09765625 C-31.65758678 121.01195577 -33.66168914 120.70706066 -36 120 C-35.86980469 120.66386719 -35.73960938 121.32773437 -35.60546875 122.01171875 C-34.48823324 129.16411429 -34.48823324 129.16411429 -36.875 133.0625 C-43.87797352 137.40434358 -51.56975735 136.12328814 -59.4375 134.8515625 C-67.99842956 132.80519995 -74.93955015 128.3719642 -81.66796875 122.84375 C-84.28988907 120.77080797 -87.01503877 118.95369061 -89.8125 117.125 C-99.9994136 110.3769808 -108.92043229 104.10193536 -116 94 C-116.75603516 92.98099609 -116.75603516 92.98099609 -117.52734375 91.94140625 C-120.91724815 87.05797875 -122.95343839 82.00644711 -123 76 C-122.13153656 72.69131412 -120.73849748 69.93336056 -119 67 C-118.401875 65.96875 -117.80375 64.9375 -117.1875 63.875 C-105.97826902 49.14286786 -90.54981174 42.8307926 -73.25 37.8125 C-60.81658027 34.09442929 -48.98714931 29.49218577 -37.21875 24.00219727 C-35.65321192 23.29505226 -34.06502792 22.63704472 -32.46362305 22.01538086 C-30.16519825 21.06808637 -28.18438884 20.00519561 -26.08203125 18.6875 C-25.38529297 18.25179688 -24.68855469 17.81609375 -23.97070312 17.3671875 C-22.90239258 16.69042969 -22.90239258 16.69042969 -21.8125 16 C-21.08869141 15.54882812 -20.36488281 15.09765625 -19.61914062 14.6328125 C-15.58410183 12.10806924 -15.58410183 12.10806924 -12 9 C-11.01 9 -10.02 9 -9 9 C-8.773125 8.443125 -8.54625 7.88625 -8.3125 7.3125 C-6.49644015 4.11277551 -3.9498923 0 0 0 Z " fill="#FEBC48" transform="translate(135,249)"/>
<path d="M0 0 C0.99 0 1.98 0 3 0 C3.04254356 1.99954746 3.04080783 4.00041636 3 6 C2.67 6.33 2.34 6.66 2 7 C2.33 7 2.66 7 3 7 C3 8.65 3 10.3 3 12 C2.34 12 1.68 12 1 12 C1.50603992 14.16874252 1.99983813 15.99967627 3 18 C2.94059284 26.8516674 1.01713814 35.42399132 -1 44 C-1.66 44 -2.32 44 -3 44 C-2.67 44.99 -2.34 45.98 -2 47 C-2.06329111 49.56041294 -2.18512005 52.07405508 -2.375 54.625 C-2.425354 55.34486084 -2.47570801 56.06472168 -2.52758789 56.80639648 C-2.6763242 58.87171299 -2.83548067 60.93588693 -3 63 C-3.07347656 63.92683594 -3.14695312 64.85367188 -3.22265625 65.80859375 C-3.66178568 70.4154607 -4.65236709 74.5827588 -6 79 C-7.0260531 82.9935596 -8.0138933 86.99640679 -9 91 C-9.66 91 -10.32 91 -11 91 C-11.08121094 92.17949219 -11.16242187 93.35898437 -11.24609375 94.57421875 C-12.02540078 101.51750559 -14.09084006 108.1313728 -16.0625 114.8125 C-16.36204086 115.83787872 -16.36204086 115.83787872 -16.66763306 116.88397217 C-20.76170305 130.84617175 -25.74894896 144.23262854 -32 157.375 C-34.74806437 163.19576273 -37.02635747 169.15175551 -39.25 175.1875 C-39.59160156 176.10257324 -39.93320312 177.01764648 -40.28515625 177.96044922 C-43.60103032 187.11708355 -45.23703649 195.9097472 -45.625 205.625 C-45.66367187 206.43839844 -45.70234375 207.25179687 -45.7421875 208.08984375 C-45.83488142 210.0595895 -45.91844329 212.0297617 -46 214 C-37.59431794 214.49018016 -29.83326881 213.2417563 -21.625 211.65625 C-18 211 -18 211 -15 211 C-15 211.66 -15 212.32 -15 213 C-4.20338221 212.04058383 5.73017937 209.99571799 16.01928711 206.58886719 C18.19026136 205.87409084 20.37011525 205.19389106 22.55273438 204.515625 C35.49978347 200.37568 46.48235147 194.93912467 55 184 C56.89576745 181.97659672 58.79682487 179.95935866 60.71484375 177.95703125 C62.32998777 175.49749583 62.24416836 173.8851731 62 171 C60.33710937 171.45052734 60.33710937 171.45052734 58.640625 171.91015625 C57.17721457 172.29477053 55.7136655 172.67885757 54.25 173.0625 C53.52039063 173.26166016 52.79078125 173.46082031 52.0390625 173.66601562 C48.28968956 174.63744407 45.69725762 175.15449387 42 174 C42.92921373 170.05084166 44.54013489 168.42337932 47.75 166.1875 C51.43617997 163.58471343 53.74517101 160.92610401 56.31640625 157.25390625 C58.31641846 154.5763957 60.5317172 152.19244075 62.8125 149.75 C70.09009569 141.84767094 76.63031687 133.31693364 82 124 C82.49242187 123.15953125 82.98484375 122.3190625 83.4921875 121.453125 C88.83879113 112.03671861 92.23872304 102.68353526 94 92 C93.39671875 92.37253906 92.7934375 92.74507813 92.171875 93.12890625 C91.37265625 93.60199219 90.5734375 94.07507813 89.75 94.5625 C88.96109375 95.03816406 88.1721875 95.51382813 87.359375 96.00390625 C84.69155375 97.13022151 83.65498232 97.0169313 81 96 C81.50109958 91.61537866 82.98295115 89.1999003 86 86 C86.66 86 87.32 86 88 86 C88.1546875 85.2265625 88.1546875 85.2265625 88.3125 84.4375 C89.24263866 81.13973565 90.61395512 78.13366668 92 75 C92.66 75 93.32 75 94 75 C93.896875 74.195625 93.79375 73.39125 93.6875 72.5625 C94.06482198 68.26102937 95.6368605 65.95042842 97.83203125 62.31640625 C99.03384335 59.93287924 99.40934685 58.20305306 99.625 55.5625 C99.74875 54.386875 99.8725 53.21125 100 52 C103.44107266 49.70595156 104.96839809 49.73706944 109 50 C109.33 50.33 109.66 50.66 110 51 C109.57670398 57.12151167 107.543793 62.34984813 105.25 68 C104.91484375 68.86367188 104.5796875 69.72734375 104.234375 70.6171875 C102.07028522 76.01101733 99.56760771 80.40951176 96 85 C97.98 85 99.96 85 102 85 C105.42508296 91.04426405 103.61695297 98.07122665 102.0625 104.5 C97.688738 117.98222753 89.04199903 130.25429457 80 141 C79.50677246 141.58797363 79.01354492 142.17594727 78.50537109 142.78173828 C75.47773223 146.37557507 72.41163632 149.93372317 69.32177734 153.47412109 C68.1646191 154.80996133 67.02781382 156.16337678 65.89453125 157.51953125 C62.56730924 161.4784113 59.47422317 164.38094254 55 167 C55.58007812 166.79503906 56.16015625 166.59007812 56.7578125 166.37890625 C66.30593008 163.0859086 66.30593008 163.0859086 70 163 C72.4375 164.5625 72.4375 164.5625 74 167 C74.36651412 172.25336903 71.46255255 175.5813781 68.27734375 179.4375 C55.08983512 194.27627472 40.7045758 203.76936162 21.75 210.0625 C20.71222412 210.40756592 19.67444824 210.75263184 18.60522461 211.1081543 C9.04254734 214.17578399 -0.54793294 216.06469498 -10.45751953 217.59423828 C-12.93787707 217.99008562 -15.40330557 218.43494819 -17.87109375 218.90234375 C-18.63429932 219.04567139 -19.39750488 219.18899902 -20.18383789 219.33666992 C-20.90692139 219.47306885 -21.63000488 219.60946777 -22.375 219.75 C-31.07898358 221.38962817 -40.70212976 222.46052565 -48.8125 218.1875 C-51.97496349 216.01718192 -52.69208898 215.39374743 -54 212 C-55.81426671 200.69618772 -55.83767114 188.8139028 -52 178 C-51.64679687 176.82566406 -51.29359375 175.65132812 -50.9296875 174.44140625 C-48.56978785 166.80689645 -45.5809828 159.95951253 -41.890625 152.8515625 C-33.75687334 136.72900026 -27.89833455 118.98998964 -22.96411133 101.64672852 C-21.5845836 96.84269392 -20.03831956 92.1181685 -18.41040039 87.39282227 C-14.71603498 76.66836381 -11.86713646 65.90455248 -9.46142578 54.8215332 C-9 53 -9 53 -8 51 C-7.72379947 48.27745194 -7.55400429 45.55500309 -7.37890625 42.82421875 C-7 40 -7 40 -5.96484375 37.58203125 C-4.7280693 34.27228262 -4.9404984 31.52546994 -5 28 C-4.75305341 25.23795602 -4.37920434 22.49666928 -4 19.75 C-3.25725034 14.39537843 -3.25725034 14.39537843 -3 9 C-2.5262101 5.2096808 -2.15031336 3.22547003 0 0 Z " fill="#D07526" transform="translate(585,351)"/>
<path d="M0 0 C3.98133536 1.54014815 7.83086176 2.71437244 12 3.625 C17.58886204 4.93318617 22.26591385 7.17255147 27.2734375 9.9453125 C30.2336542 11.33006373 32.83117817 11.85919117 36.0625 12.25 C36.0625 10.93 36.0625 9.61 36.0625 8.25 C35.0725 7.755 35.0725 7.755 34.0625 7.25 C34.3925 5.6 34.7225 3.95 35.0625 2.25 C36.75 1.4375 36.75 1.4375 39.0625 1.25 C42.76250587 3.38778117 42.76250587 3.38778117 44.0625 6.25 C44.26358661 11.17966863 44.30480224 16.76539552 42.0625 21.25 C41.4025 21.25 40.7425 21.25 40.0625 21.25 C40.0625 21.91 40.0625 22.57 40.0625 23.25 C38.20625 22.816875 38.20625 22.816875 36.3125 22.375 C26.29106403 20.17678721 16.71107096 18.92408691 6.4375 19 C5.38304687 18.99226563 4.32859375 18.98453125 3.2421875 18.9765625 C-5.40971207 18.99797809 -13.69674371 19.56307282 -21.375 23.875 C-25.65137283 26.25 -25.65137283 26.25 -28.9375 26.25 C-28.9375 26.91 -28.9375 27.57 -28.9375 28.25 C-30.63020833 28.93359375 -32.32291667 29.6171875 -34.015625 30.30078125 C-36.01915421 31.20641129 -36.01915421 31.20641129 -37.83203125 32.75390625 C-40.30493788 34.51109222 -42.44113156 35.13441185 -45.375 35.875 C-46.30183594 36.11476562 -47.22867188 36.35453125 -48.18359375 36.6015625 C-50.75972654 37.20814128 -53.33876812 37.75006247 -55.9375 38.25 C-56.2675 36.6 -56.5975 34.95 -56.9375 33.25 C-55.9475 33.25 -54.9575 33.25 -53.9375 33.25 C-53.9375 32.59 -53.9375 31.93 -53.9375 31.25 C-48.40255718 28.35673443 -48.40255718 28.35673443 -46.03125 27.8125 C-43.48468923 27.12834935 -41.47210283 25.99778691 -39.1875 24.6875 C-38.38828125 24.23246094 -37.5890625 23.77742188 -36.765625 23.30859375 C-36.16234375 22.95925781 -35.5590625 22.60992187 -34.9375 22.25 C-36.5875 21.59 -38.2375 20.93 -39.9375 20.25 C-41.40124368 14.02908938 -41.40124368 14.02908938 -39.375 10.625 C-29.94753426 1.43926415 -29.94753426 1.43926415 -23.2890625 1.125 C-21.93941406 1.186875 -21.93941406 1.186875 -20.5625 1.25 C-15.86079444 1.34504796 -12.35470952 0.81442837 -7.9375 -0.75 C-4.29131026 -1.96539658 -3.47870732 -1.40987257 0 0 Z " fill="#D07526" transform="translate(226.9375,23.75)"/>
<path d="M0 0 C2.94721942 0.4465484 5.27572819 1.12637542 8 2.375 C12.54009971 4.42861495 17.3547026 5.31297432 22.20703125 6.3515625 C25 7 25 7 27 8 C27 7.34 27 6.68 27 6 C33.64775926 6.94083744 40.08500915 8.22134472 46.5625 10 C56.62038189 12.74677181 66.21625408 14.22191696 76.6171875 14.75390625 C80 15 80 15 82.32055664 15.51367188 C85.36257128 16.06580793 88.1630541 16.0787849 91.25390625 16.02734375 C92.43791016 16.01509766 93.62191406 16.00285156 94.84179688 15.99023438 C97.32622943 15.95502195 99.81061018 15.91594708 102.29492188 15.87304688 C103.47763672 15.86208984 104.66035156 15.85113281 105.87890625 15.83984375 C107.49647827 15.81458618 107.49647827 15.81458618 109.14672852 15.78881836 C112.06143618 16.00454713 113.447093 16.71000619 116 18 C118.61407052 18.18410755 118.61407052 18.18410755 121.421875 17.9765625 C122.95908203 17.89921875 122.95908203 17.89921875 124.52734375 17.8203125 C125.59082031 17.75585938 126.65429688 17.69140625 127.75 17.625 C129.36841797 17.53992188 129.36841797 17.53992188 131.01953125 17.453125 C133.68037699 17.31184116 136.34025231 17.16044734 139 17 C139.33 17.66 139.66 18.32 140 19 C135.3043467 21.21765967 130.52297223 21.86585868 125.4375 22.625 C124.58736328 22.7590625 123.73722656 22.893125 122.86132812 23.03125 C119.15690197 23.60071473 115.76578349 24 112 24 C106.8409145 24.37100982 106.8409145 24.37100982 102 26 C97.80414124 25.96130911 93.62028437 25.5700082 89.4375 25.25 C88.21708008 25.15855713 86.99666016 25.06711426 85.73925781 24.97290039 C77.53001385 24.31301598 69.52737689 23.28681455 61.453125 21.68359375 C58.04371689 20.96503723 58.04371689 20.96503723 54.73046875 20.59765625 C48.74714435 19.63907129 42.99901743 17.84412433 37.18164062 16.171875 C33.04932456 15.0099281 29.08262612 13.91905408 24.80078125 13.5234375 C20.40799427 12.91846992 17.07486471 11.55215174 13.125 9.625 C12.13113281 9.16867187 12.13113281 9.16867187 11.1171875 8.703125 C7.75503164 7.10405087 6.10632622 6.15948933 4 3 C1.94996045 1.80767387 1.94996045 1.80767387 0 1 C0 0.67 0 0.34 0 0 Z " fill="#D07627" transform="translate(458,640)"/>
<path d="M0 0 C0.75990234 0.03222656 1.51980469 0.06445312 2.30273438 0.09765625 C9.0208271 0.54514663 14.28212701 2.62999716 19.41796875 7.0078125 C30.70860068 20.0558349 30.70860068 20.0558349 30.1875 28.125 C29.39954523 32.05681473 27.33815001 34.99349163 24.92578125 38.140625 C23.79264125 40.01230502 23.79264125 40.01230502 24.8046875 42.08203125 C28.13990627 47.16772198 32.24449362 51.37258342 36.6796875 55.5078125 C37.21851563 56.02085937 37.75734375 56.53390625 38.3125 57.0625 C38.81265625 57.52785156 39.3128125 57.99320313 39.828125 58.47265625 C41.28043917 60.26966523 41.65554148 61.74719391 42.0625 64 C35.41990919 63.23354721 30.75731445 56.7672554 26.74609375 51.9609375 C25.14525912 50.0184259 25.14525912 50.0184259 23.47265625 48.5390625 C21.27675062 46.43439949 20.09725126 44.69965869 19.9453125 41.640625 C20.20568641 38.73451623 20.60724968 35.88202823 21.0625 33 C22.19087009 25.34710284 23.02303154 19.47204731 18.578125 12.8046875 C13.55396523 6.82231169 7.2009475 5.47751317 -0.1875 4.625 C-6.18514042 5.22476404 -13.7002427 6.42433404 -17.796875 11.140625 C-18.36148438 12.06101563 -18.36148438 12.06101563 -18.9375 13 C-19.9275 12.67 -20.9175 12.34 -21.9375 12 C-21.10123916 10.73795067 -20.24229184 9.49092931 -19.375 8.25 C-18.89933594 7.55390625 -18.42367187 6.8578125 -17.93359375 6.140625 C-12.49060847 0.30352924 -7.60054204 -0.62856803 0 0 Z " fill="#D47C29" transform="translate(582.9375,170)"/>
<path d="M0 0 C7.16396636 2.24691534 14.02008009 5.03139974 20.93228149 7.95584106 C32.47490086 12.83116501 44.08001452 17.3437354 55.97363281 21.29956055 C57.96634886 21.98836806 59.91838713 22.74836577 61.87890625 23.5234375 C66.67990423 25.34475063 71.62360088 26.43647477 76.625 27.5625 C87.64088474 30.0682259 87.64088474 30.0682259 93 32 C93 32.33 93 32.66 93 33 C91.10424749 33.02721176 89.20838021 33.04649136 87.3125 33.0625 C86.25675781 33.07410156 85.20101562 33.08570313 84.11328125 33.09765625 C81 33 81 33 78.29296875 32.43359375 C75.85110655 31.77908078 75.85110655 31.77908078 73 33 C73 32.34 73 31.68 73 31 C72.01644531 30.86464844 71.03289062 30.72929688 70.01953125 30.58984375 C48.36364472 27.34026899 24.02595132 19.51221134 6.921875 5.26953125 C6.28765625 4.85058594 5.6534375 4.43164062 5 4 C4.01 4.33 3.02 4.66 2 5 C1.01 4.01 0.02 3.02 -1 2 C-0.67 1.34 -0.34 0.68 0 0 Z " fill="#CF7526" transform="translate(168,484)"/>
<path d="M0 0 C0 0.66 0 1.32 0 2 C-4.00170602 3.33390201 -7.60048959 4.10849934 -11.8125 4.375 C-17.93389564 4.82622944 -23.7666567 6.19096309 -29.71801758 7.62841797 C-33.56067703 8.5394131 -37.01664946 9.2459838 -41 9 C-41.66 7.35 -42.32 5.7 -43 4 C-40.3358102 3.3218426 -37.66936637 2.6572133 -35 2 C-34.34902344 1.83242187 -33.69804687 1.66484375 -33.02734375 1.4921875 C-27.98182068 0.26726282 -22.89720215 -0.47227509 -17.75 -1.125 C-16.72132813 -1.25648438 -16.72132813 -1.25648438 -15.671875 -1.390625 C-9.75895797 -2.1066423 -5.47406433 -2.50242941 0 0 Z " fill="#D17828" transform="translate(529,201)"/>
<path d="M0 0 C0.66 0.33 1.32 0.66 2 1 C1.814375 1.928125 1.62875 2.85625 1.4375 3.8125 C0.75876119 7.01343771 0.75876119 7.01343771 2 10 C1.0625 12.1875 1.0625 12.1875 0 14 C-1.32 14 -2.64 14 -4 14 C-4.29003906 15.21236328 -4.29003906 15.21236328 -4.5859375 16.44921875 C-4.84632813 17.51785156 -5.10671875 18.58648438 -5.375 19.6875 C-5.63023437 20.74324219 -5.88546875 21.79898438 -6.1484375 22.88671875 C-6.91983585 25.7069228 -7.91635293 28.29088232 -9 31 C-9.3813074 33.32597511 -9.72460254 35.65912158 -10 38 C-10.66 38 -11.32 38 -12 38 C-12.66 39.32 -13.32 40.64 -14 42 C-12.00587335 28.08803405 -10.03439641 14.80818526 -4 2 C-2.68 2 -1.36 2 0 2 C0 1.34 0 0.68 0 0 Z " fill="#D17727" transform="translate(744,521)"/>
<path d="M0 0 C0 0.33 0 0.66 0 1 C-0.99628418 1.05160278 -0.99628418 1.05160278 -2.01269531 1.10424805 C-18.38054964 1.68751451 -18.38054964 1.68751451 -33.6328125 6.9765625 C-36.54411433 8.23524415 -38.8615901 8.17283997 -42 8 C-29.24798817 -5.94751294 -17.12861557 -4.26873021 0 0 Z " fill="#FDB947" transform="translate(237,33)"/>
<path d="M0 0 C2.31 0.33 4.62 0.66 7 1 C8.33176248 4.99528745 7.41870859 7.09855137 6 11 C2.1496895 13.56687367 0.41430237 12.83288724 -4 12 C-3.28571429 3.42857143 -3.28571429 3.42857143 0 0 Z " fill="#CF7526" transform="translate(235,117)"/>
<path d="M0 0 C0.8125 2.1875 0.8125 2.1875 1 5 C-1.3125 7.6875 -1.3125 7.6875 -4 10 C-4.66 10.66 -5.32 11.32 -6 12 C-8.95662966 11.77256695 -10.55033688 11.38764062 -12.8125 9.4375 C-13.204375 8.963125 -13.59625 8.48875 -14 8 C-12.56684975 4.38226397 -10.95412036 3.030893 -7.5625 1.1875 C-6.78003906 0.74792969 -5.99757813 0.30835937 -5.19140625 -0.14453125 C-3 -1 -3 -1 0 0 Z " fill="#CF7425" transform="translate(105,84)"/>
<path d="M0 0 C3.01961693 1.24337168 4.1791882 3.28058427 6.125 5.875 C8.28720153 8.09410157 10.47597388 10.26986937 12.7421875 12.3828125 C13.28101563 12.89585937 13.81984375 13.40890625 14.375 13.9375 C15.12523437 14.63552734 15.12523437 14.63552734 15.890625 15.34765625 C17.34293917 17.14466523 17.71804148 18.62219391 18.125 20.875 C10.77016348 20.02636502 5.54366945 12.14657542 1.125 6.875 C0.35542969 5.96041016 0.35542969 5.96041016 -0.4296875 5.02734375 C-1.58395728 3.64808919 -2.73045117 2.26233192 -3.875 0.875 C-1.875 -0.125 -1.875 -0.125 0 0 Z " fill="#DB862E" transform="translate(606.875,213.125)"/>
<path d="M0 0 C0 2.31 0 4.62 0 7 C-3.04004461 8.7674678 -5.19280974 10 -8.75 10 C-11 9 -11 9 -12.3125 6.4375 C-12.539375 5.633125 -12.76625 4.82875 -13 4 C-8.69991719 0.19135522 -5.67931985 -1.89310662 0 0 Z " fill="#D07627" transform="translate(537,252)"/>
<path d="M0 0 C4.55737263 0.43820891 7.57653445 0.85041169 11 4 C10.25 8.75 10.25 8.75 8 11 C5.17042171 10.63723355 2.70915709 9.90305236 0 9 C-1.125 2.25 -1.125 2.25 0 0 Z " fill="#CF7325" transform="translate(439,208)"/>
<path d="M0 0 C-1.375 2 -1.375 2 -3 4 C-3.66 4 -4.32 4 -5 4 C-5 4.66 -5 5.32 -5 6 C-4.34 6.33 -3.68 6.66 -3 7 C-6.64793184 8.27253436 -10.1936543 9.32829194 -14 10 C-14.33 8.35 -14.66 6.7 -15 5 C-14.01 5 -13.02 5 -12 5 C-12 4.34 -12 3.68 -12 3 C-3.2 -1.6 -3.2 -1.6 0 0 Z " fill="#D7802B" transform="translate(185,52)"/>
<path d="M0 0 C0.66 0 1.32 0 2 0 C2 1.98 2 3.96 2 6 C-0.95342843 7.19996934 -3.91341894 8.38281104 -6.875 9.5625 C-8.13763672 10.07586914 -8.13763672 10.07586914 -9.42578125 10.59960938 C-10.23144531 10.91865234 -11.03710938 11.23769531 -11.8671875 11.56640625 C-12.98262939 12.01415405 -12.98262939 12.01415405 -14.12060547 12.47094727 C-16 13 -16 13 -18 12 C-15.91794343 10.70623653 -13.83442696 9.41493446 -11.75 8.125 C-11.16347656 7.76019531 -10.57695312 7.39539063 -9.97265625 7.01953125 C-7.56693581 5.53285008 -5.19168879 4.09203601 -2.640625 2.8671875 C-0.80883383 2.10247795 -0.80883383 2.10247795 0 0 Z " fill="#DA842D" transform="translate(163,192)"/>
<path d="M0 0 C0.99 0 1.98 0 3 0 C3.04254356 1.99954746 3.04080783 4.00041636 3 6 C2.67 6.33 2.34 6.66 2 7 C2.33 7 2.66 7 3 7 C3 8.65 3 10.3 3 12 C1.02 12.66 -0.96 13.32 -3 14 C-2.814375 13.4225 -2.62875 12.845 -2.4375 12.25 C-1.81632039 10.03907121 -1.81632039 10.03907121 -2.625 8.125 C-3.20471134 4.83996905 -1.59597239 2.8089114 0 0 Z " fill="#D67F2B" transform="translate(585,351)"/>
<path d="M0 0 C2.31 0.33 4.62 0.66 7 1 C6.67 1.66 6.34 2.32 6 3 C9.465 4.485 9.465 4.485 13 6 C10.34501768 7.0169313 9.30844625 7.13022151 6.640625 6.00390625 C5.85171875 5.52824219 5.0628125 5.05257812 4.25 4.5625 C3.45078125 4.08941406 2.6515625 3.61632812 1.828125 3.12890625 C1.22484375 2.75636719 0.6215625 2.38382813 0 2 C0 1.34 0 0.68 0 0 Z " fill="#F4AD41" transform="translate(453,638)"/>
<path d="M0 0 C0.33 0.66 0.66 1.32 1 2 C1.66 2.33 2.32 2.66 3 3 C-0.64793184 4.27253436 -4.1936543 5.32829194 -8 6 C-8.33 4.35 -8.66 2.7 -9 1 C-6.36 1.33 -3.72 1.66 -1 2 C-0.67 1.34 -0.34 0.68 0 0 Z " fill="#D9832D" transform="translate(179,56)"/>
<path d="M0 0 C0.99 0 1.98 0 3 0 C3 1.98 3 3.96 3 6 C2.34 6 1.68 6 1 6 C0.67 6.99 0.34 7.98 0 9 C-0.87890625 2.84765625 -0.87890625 2.84765625 -1 1 C-0.67 0.67 -0.34 0.34 0 0 Z " fill="#DE8B31" transform="translate(585,351)"/>
<path d="M0 0 C0.99 0.33 1.98 0.66 3 1 C3 2.32 3 3.64 3 5 C1.35 4.67 -0.3 4.34 -2 4 C-1.34 2.68 -0.68 1.36 0 0 Z " fill="#D07627" transform="translate(175,54)"/>
<path d="" fill="#FFFF00" transform="translate(0,0)"/>
</svg>
