<?xml version="1.0" encoding="UTF-8"?>
<svg version="1.1" xmlns="http://www.w3.org/2000/svg" width="653" height="596">
<path d="M0 0 C6.50326915 2.2425066 11.08671322 4.87198178 14.25 11.0625 C16.50132933 15.86964173 17.59656823 19.63088591 17 25 C14.67564327 29.84731355 11.96560739 34.33211088 8 38 C8.98226562 38.32871094 8.98226562 38.32871094 9.984375 38.6640625 C21.02740421 42.50104723 31.07425083 47.99079688 41.3125 53.5625 C42.16062256 54.02148682 43.00874512 54.48047363 43.88256836 54.95336914 C48.84915968 57.68228158 53.45759687 60.61005543 58 64 C58.37125 63.38125 58.7425 62.7625 59.125 62.125 C63.88963962 56.7250751 72.42496192 57.35924446 79.125 56.875 C80.18976562 56.78863281 81.25453125 56.70226563 82.3515625 56.61328125 C89.5799772 56.06062333 96.75208524 55.89736601 104 56 C107.00091784 61.62958151 107.29289534 67.72798166 108 74 C108.08765625 74.76183594 108.1753125 75.52367188 108.265625 76.30859375 C108.68169073 83.45600859 105.44906782 90.25176793 102.1875 96.4375 C100.85546653 98.84117454 100.85546653 98.84117454 101 101.0625 C102.45202317 103.87579489 104.75534535 105.81098893 107 108 C108.10247534 109.08892032 109.20398986 110.17881403 110.3046875 111.26953125 C110.88444336 111.84396973 111.46419922 112.4184082 112.06152344 113.01025391 C117.59036651 118.50485805 123.01203364 124.00310408 128 130 C129.25296875 131.47146484 129.25296875 131.47146484 130.53125 132.97265625 C141 145.3390081 141 145.3390081 141 149 C141.66 149 142.32 149 143 149 C144.2265625 150.58203125 144.2265625 150.58203125 145.625 152.8125 C149.92456231 159.4773472 154.47020725 165.97658915 159.5625 172.0625 C162.3388877 175.40840313 164.77756821 178.91444852 167.23828125 182.49609375 C168.79807116 184.71300135 170.43415279 186.820681 172.125 188.9375 C178.39924396 197.35375736 181.36875575 205.45435913 180 216 C178.14537009 221.91163285 173.43219796 226.75545559 169 231 C157.27724057 234.90758648 143.59206901 230.96020133 132.9375 225.75 C127.54271522 222.91252204 122.29173691 219.85986508 117.05078125 216.75 C110.29731521 212.87605277 103.27627849 209.48935914 96.19921875 206.25 C95.56024658 205.95673828 94.92127441 205.66347656 94.26293945 205.36132812 C92.49890556 204.55652901 90.73008877 203.76223661 88.9609375 202.96875 C85.63870239 201.40475069 82.56343219 199.53231362 79.4296875 197.62109375 C72.82053607 193.71930556 65.97087305 191.10666211 58.75 188.5625 C56.89955078 187.89444336 56.89955078 187.89444336 55.01171875 187.21289062 C52.01140842 186.13138341 49.00772793 185.06066376 46 184 C46.8353125 185.47146484 46.8353125 185.47146484 47.6875 186.97265625 C61.21791888 210.86762711 73.98580938 235.39157223 84 261 C84.66 261 85.32 261 86 261 C86.4846875 262.22332031 86.969375 263.44664062 87.46875 264.70703125 C88.14559486 266.40894903 88.82269899 268.1107637 89.5 269.8125 C89.8602124 270.72032227 90.2204248 271.62814453 90.59155273 272.56347656 C92.35264004 276.9774863 94.1400483 281.37011434 96.06640625 285.71484375 C101.21942157 297.37811942 104.85629252 309.1994948 108.27441406 321.47460938 C109.12038955 324.41901397 110.09474409 327.30278346 111.125 330.1875 C113.22871211 336.2927411 114.63126567 342.55090158 116.07470703 348.83789062 C117.04487172 353.0500778 118.03438488 357.23510495 119.25390625 361.3828125 C122.31238832 371.85365803 124.1585758 382.41128052 125.75 393.1875 C125.85691162 393.90062347 125.96382324 394.61374695 126.07397461 395.34848022 C130.16509363 422.92187657 130.16509363 422.92187657 127.8125 436.25 C127.67086426 437.09860596 127.52922852 437.94721191 127.38330078 438.8215332 C123.71192346 459.69975112 113.50338149 477.90417444 97.5 491.78515625 C95.07449286 493.93400398 92.81867209 496.17533697 90.5625 498.5 C81.63300786 507.52381776 71.18579758 515.9152176 60 522 C59.01 522 58.02 522 57 522 C58.98 526.29 60.96 530.58 63 535 C65.165625 534.9071875 65.165625 534.9071875 67.375 534.8125 C74.32877567 534.83222702 80.37608147 536.0320611 86 540.25 C89.34262683 544.84611188 90.19014981 548.28865167 89.5625 553.9375 C87.25659794 561.48276181 81.03021974 566.3491656 74.69921875 570.578125 C66.3554065 574.97341828 57.74954516 577.18602564 48.5625 579.125 C47.41201172 579.37636719 46.26152344 579.62773438 45.07617188 579.88671875 C20.206568 585.26926191 20.206568 585.26926191 14 582 C10.42643701 578.35602198 7.73149997 574.29674153 5 570 C4.39414062 569.0821875 3.78828125 568.164375 3.1640625 567.21875 C1.39955547 564.5041238 -0.30023968 561.75555858 -2 559 C-2.73543493 557.85317491 -3.47248647 556.70738532 -4.2109375 555.5625 C-4.95343976 554.39603363 -5.69563247 553.22937016 -6.4375 552.0625 C-7.11683594 551.00160156 -7.79617188 549.94070313 -8.49609375 548.84765625 C-10 546 -10 546 -10 542 C-10.66 542 -11.32 542 -12 542 C-12 541.01 -12 540.02 -12 539 C-13.20813354 539.21221191 -13.20813354 539.21221191 -14.44067383 539.42871094 C-24.25673377 541.00793992 -33.76757536 541.31356708 -43.6875 541.25 C-44.49303314 541.24822754 -45.29856628 541.24645508 -46.12850952 541.24462891 C-57.66269362 541.2150559 -69.07836307 540.72198984 -80.57299805 539.71411133 C-88.8976644 539.00391104 -97.1277737 538.88509878 -105.47851562 538.96655273 C-111.7737609 539.02204306 -118.0261232 538.90584979 -124.3125 538.5625 C-125.09165771 538.52165283 -125.87081543 538.48080566 -126.67358398 538.4387207 C-130.84939568 538.19703239 -134.92162892 537.73225065 -139.0625 537.125 C-148.67302463 536.2054745 -156.64839447 543.66945441 -164 549 C-165.98735668 550.35393622 -167.99100259 551.67829118 -170 553 C-167 554.33333333 -167 554.33333333 -164 553 C-164 553.66 -164 554.32 -164 555 C-164.66 555 -165.32 555 -166 555 C-166 555.66 -166 556.32 -166 557 C-165.41089844 557.27070312 -164.82179688 557.54140625 -164.21484375 557.8203125 C-160.44533109 559.82805998 -157.79681552 562.06734716 -156 566 C-155.89841123 570.51771252 -156.81435429 574.04902506 -159 578 C-165.55082983 583.32395621 -173.93001562 584.46902975 -182.140625 584.41796875 C-187.18017141 583.87218791 -191.88280924 582.63716636 -196.75 581.25 C-197.636875 580.99790771 -198.52375 580.74581543 -199.4375 580.48608398 C-206.88607834 578.25109233 -213.51355088 575.17677702 -220 570.875 C-221.1446875 570.12863281 -221.1446875 570.12863281 -222.3125 569.3671875 C-222.869375 568.91601562 -223.42625 568.46484375 -224 568 C-224 567.34 -224 566.68 -224 566 C-225.32 565.34 -226.64 564.68 -228 564 C-228 563.34 -228 562.68 -228 562 C-228.66 562 -229.32 562 -230 562 C-235.6861879 555.52605307 -239.01937523 547.99411804 -242 540 C-242.33 540 -242.66 540 -243 540 C-245.6313001 532.60889589 -245.6313001 532.60889589 -244.1953125 528.94921875 C-242.25326633 526.13264868 -240.62485253 524.34861267 -237.60546875 522.6640625 C-234.38855844 520.6094841 -232.65142504 518.3106116 -230.375 515.25 C-229.95549072 514.68869385 -229.53598145 514.1273877 -229.10375977 513.54907227 C-228.20438237 512.34245312 -227.30907735 511.13278983 -226.41748047 509.92041016 C-224.94001073 507.91872621 -223.44225703 505.93341851 -221.94140625 503.94921875 C-220.93937143 502.61252814 -219.93805328 501.27529995 -218.9375 499.9375 C-218.22182861 498.99148926 -218.22182861 498.99148926 -217.49169922 498.02636719 C-215.3003473 495.06248982 -213.59359703 492.65949991 -213 489 C-213.88431342 487.17391253 -213.88431342 487.17391253 -215.375 485.375 C-218.72668733 480.67157085 -221.30633464 475.71917462 -223.875 470.5625 C-224.28024902 469.7566748 -224.68549805 468.95084961 -225.10302734 468.12060547 C-228 462.26084809 -228 462.26084809 -228 460 C-228.99 459.67 -229.98 459.34 -231 459 C-231.12375 457.96875 -231.2475 456.9375 -231.375 455.875 C-231.9397835 452.37334228 -232.86038492 449.34287091 -234 446 C-234 445.01 -234 444.02 -234 443 C-234.53496094 443.42152344 -235.06992188 443.84304688 -235.62109375 444.27734375 C-254.91296891 458.24732232 -281.33039654 472.13481547 -305.66845703 471.98339844 C-308.02509383 471.8288662 -308.02509383 471.8288662 -310 473 C-310.99 472.67 -311.98 472.34 -313 472 C-315.26009379 472.31835947 -315.26009379 472.31835947 -317.6875 472.9375 C-327.01299455 474.9242358 -336.02999612 474.52219482 -344.4375 469.6875 C-346.70406342 468.12184173 -348.09577129 466.87780904 -349.8125 464.6875 C-350.12424397 460.21916979 -347.71080908 457.39195146 -345 454 C-341.27668843 450.01073761 -338.56822874 448.72401169 -333.2890625 447.36328125 C-332.2985791 447.10458252 -331.3080957 446.84588379 -330.28759766 446.5793457 C-329.53269043 446.38816162 -328.7777832 446.19697754 -328 446 C-328.65033203 445.8956665 -329.30066406 445.79133301 -329.97070312 445.68383789 C-374.8617617 438.31768 -427.35222435 424.61154763 -460 391 C-460.66 390.34 -461.32 389.68 -462 389 C-461.77895228 386.25900826 -461.46080771 383.69518928 -461 381 C-460.938125 380.236875 -460.87625 379.47375 -460.8125 378.6875 C-459.42136873 375.79822737 -456.861357 375.2072392 -454 374 C-444.36249496 372.87823784 -434.52222746 374.50631726 -425 376 C-425.66 375.67 -426.32 375.34 -427 375 C-427 374.34 -427 373.68 -427 373 C-427.84884766 372.6596875 -427.84884766 372.6596875 -428.71484375 372.3125 C-439.27231593 366.24872111 -446.1494603 351.19431788 -452 341 C-452.42764648 340.26523437 -452.85529297 339.53046875 -453.29589844 338.7734375 C-460.98843243 325.453239 -467.25714804 311.56690044 -464.6328125 295.79296875 C-462.92462926 289.67392879 -458.37784842 286.08198954 -453 283 C-449.72669982 282.05709413 -448.48995336 281.82183514 -445.25 283 C-441.65917133 285.20974072 -438.46591806 287.72596465 -435.1796875 290.359375 C-432.61045833 292.29320341 -429.89691463 293.62051684 -427 295 C-425.125 296.5625 -425.125 296.5625 -424 298 C-424 298.66 -424 299.32 -424 300 C-423.13375 300.37125 -423.13375 300.37125 -422.25 300.75 C-419.67060021 302.18299988 -417.93878408 303.78424676 -416 306 C-416 306.66 -416 307.32 -416 308 C-415.11634766 308.4021875 -415.11634766 308.4021875 -414.21484375 308.8125 C-411.97854189 310.01150488 -410.41862459 311.28029437 -408.5625 313 C-404.31908884 316.82470646 -399.81645103 320.24229473 -395.21704102 323.62304688 C-393.77608778 324.70317708 -392.3830985 325.84671512 -391 327 C-391 327.66 -391 328.32 -391 329 C-390.45859375 329.2475 -389.9171875 329.495 -389.359375 329.75 C-386.4717151 331.27988604 -383.90223982 333.09150997 -381.25 335 C-380.26515625 335.70125 -379.2803125 336.4025 -378.265625 337.125 C-377.51796875 337.74375 -376.7703125 338.3625 -376 339 C-376 339.66 -376 340.32 -376 341 C-375.46890625 341.23074219 -374.9378125 341.46148437 -374.390625 341.69921875 C-371.24537289 343.41060593 -368.53702334 345.58445149 -365.75 347.8125 C-365.14446289 348.29170898 -364.53892578 348.77091797 -363.91503906 349.26464844 C-359.8476172 352.49411088 -355.8234328 355.77468486 -351.80615234 359.06616211 C-341.46195121 367.85246005 -341.46195121 367.85246005 -330 375 C-330 375.66 -330 376.32 -330 377 C-329.175 377.226875 -328.35 377.45375 -327.5 377.6875 C-324.71650897 378.73130914 -322.89607865 379.63140438 -320.484375 381.23046875 C-298.00946647 395.49596415 -270.33184313 406.94645272 -244 411 C-244.33 410.01 -244.66 409.02 -245 408 C-245.26704944 405.33388646 -245.4921822 402.67939194 -245.68359375 400.0078125 C-245.80770912 398.39972154 -245.93206562 396.79164917 -246.05664062 395.18359375 C-246.24835875 392.65370003 -246.43759661 390.12367659 -246.62231445 387.59326172 C-246.80239381 385.14752172 -246.99237247 382.7027031 -247.18359375 380.2578125 C-247.23575546 379.50557404 -247.28791718 378.75333557 -247.34165955 377.978302 C-247.66303336 373.94898185 -248.33526376 370.67737714 -250 367 C-251.68735533 357.80272515 -250.75751512 350.31936629 -248.0078125 341.5703125 C-247.12511389 338.44323293 -246.61456541 335.48675656 -246.26416016 332.26318359 C-244.88546008 320.45121532 -242.9027207 308.43497589 -239.7734375 296.9609375 C-239.15523395 294.59427946 -238.60900585 292.24287587 -238.1015625 289.8515625 C-237.85889648 288.71340088 -237.85889648 288.71340088 -237.61132812 287.55224609 C-237.30469619 286.10067021 -237.00319729 284.64799154 -236.70898438 283.19384766 C-233.74541362 269.29649694 -228.68234212 255.83528808 -223.6875 242.5625 C-223.39130768 241.77329163 -223.09511536 240.98408325 -222.78994751 240.17095947 C-216.97465922 224.77355047 -210.08160217 210.04057461 -202.67474365 195.35440063 C-200.36591122 190.76923224 -198.18034264 186.13830658 -196.04174805 181.47192383 C-193.06963362 174.98689237 -190.00173698 169.16157149 -185.6796875 163.4453125 C-183.63185666 160.46405179 -182.0646038 157.31249623 -180.5 154.0625 C-177.01666071 146.84068166 -172.87474057 140.22270505 -168.3671875 133.6015625 C-166.03016135 130.16061445 -163.85912727 126.84880408 -162.125 123.0625 C-159.56618118 117.75686751 -155.77862898 113.47767534 -152 109 C-151.09365385 107.91804929 -150.18740819 106.83601439 -149.28125 105.75390625 C-144.89091911 100.5279718 -140.46134944 95.3376424 -135.9375 90.2265625 C-134.33311711 88.38281604 -132.75619163 86.52238245 -131.1875 84.6484375 C-126.37212144 78.91678777 -121.69554928 73.36598691 -115.890625 68.59765625 C-112.37714997 65.62862466 -109.21168643 62.28856191 -106 59 C-106.56589844 58.02417969 -107.13179688 57.04835937 -107.71484375 56.04296875 C-108.45587182 54.75789475 -109.19674939 53.47273396 -109.9375 52.1875 C-110.31068359 51.54490234 -110.68386719 50.90230469 -111.06835938 50.24023438 C-114.48560089 44.29854418 -115.81603536 39.80029466 -115 33 C-112.06121733 24.95029094 -105.97338714 20.70179057 -98.59765625 17.11328125 C-91.08035684 13.8915815 -85.05398747 13.31839822 -77 15 C-69.27325752 18.73560621 -65.57666539 25.48900267 -62 33 C-61.34773438 32.62746094 -60.69546875 32.25492188 -60.0234375 31.87109375 C-51.79805633 27.41871191 -51.79805633 27.41871191 -46 29 C-43.99908327 28.6722145 -41.99921711 28.33799714 -40 28 C-37.70916711 27.93477127 -35.41664206 27.9141159 -33.125 27.9375 C-31.97257812 27.94652344 -30.82015625 27.95554687 -29.6328125 27.96484375 C-28.76398438 27.97644531 -27.89515625 27.98804687 -27 28 C-26.92523438 27.3709375 -26.85046875 26.741875 -26.7734375 26.09375 C-24.99077819 14.4889874 -17.81836667 8.24818987 -9 1 C-5.92009655 -0.53995173 -3.41257239 -0.22377524 0 0 Z " fill="#FEBC48" transform="translate(469,6)"/>
<path d="M0 0 C6.50326915 2.2425066 11.08671322 4.87198178 14.25 11.0625 C16.50132933 15.86964173 17.59656823 19.63088591 17 25 C14.67564327 29.84731355 11.96560739 34.33211088 8 38 C8.98226562 38.32871094 8.98226562 38.32871094 9.984375 38.6640625 C21.02740421 42.50104723 31.07425083 47.99079688 41.3125 53.5625 C42.16062256 54.02148682 43.00874512 54.48047363 43.88256836 54.95336914 C48.84915968 57.68228158 53.45759687 60.61005543 58 64 C58.556875 63.071875 58.556875 63.071875 59.125 62.125 C63.88963962 56.7250751 72.42496192 57.35924446 79.125 56.875 C80.18976563 56.78863281 81.25453125 56.70226563 82.3515625 56.61328125 C89.5799772 56.06062333 96.75208524 55.89736601 104 56 C107.00091784 61.62958151 107.29289534 67.72798166 108 74 C108.08765625 74.76183594 108.1753125 75.52367188 108.265625 76.30859375 C108.68169073 83.45600859 105.44906782 90.25176793 102.1875 96.4375 C100.85546653 98.84117454 100.85546653 98.84117454 101 101.0625 C102.45202317 103.87579489 104.75534535 105.81098893 107 108 C108.10247534 109.08892032 109.20398986 110.17881403 110.3046875 111.26953125 C110.88444336 111.84396973 111.46419922 112.4184082 112.06152344 113.01025391 C117.59036651 118.50485805 123.01203364 124.00310408 128 130 C129.25296875 131.47146484 129.25296875 131.47146484 130.53125 132.97265625 C141 145.3390081 141 145.3390081 141 149 C141.66 149 142.32 149 143 149 C144.2265625 150.58203125 144.2265625 150.58203125 145.625 152.8125 C149.92456231 159.4773472 154.47020725 165.97658915 159.5625 172.0625 C162.3388877 175.40840313 164.77756821 178.91444852 167.23828125 182.49609375 C168.79807116 184.71300135 170.43415279 186.820681 172.125 188.9375 C178.39924396 197.35375736 181.36875575 205.45435913 180 216 C178.14537009 221.91163285 173.43219796 226.75545559 169 231 C157.27724057 234.90758648 143.59206901 230.96020133 132.9375 225.75 C127.54271522 222.91252204 122.29173691 219.85986508 117.05078125 216.75 C110.29731521 212.87605277 103.27627849 209.48935914 96.19921875 206.25 C95.56024658 205.95673828 94.92127441 205.66347656 94.26293945 205.36132812 C92.49890556 204.55652901 90.73008877 203.76223661 88.9609375 202.96875 C85.63870239 201.40475069 82.56343219 199.53231362 79.4296875 197.62109375 C72.82053607 193.71930556 65.97087305 191.10666211 58.75 188.5625 C57.51636719 188.11712891 56.28273438 187.67175781 55.01171875 187.21289062 C52.01140842 186.13138341 49.00772793 185.06066376 46 184 C46.556875 184.98097656 47.11375 185.96195313 47.6875 186.97265625 C57.14933076 203.68242498 65.86972294 220.59824844 74 238 C74.71470459 239.52463867 74.71470459 239.52463867 75.44384766 241.08007812 C75.90194824 242.06943359 76.36004883 243.05878906 76.83203125 244.078125 C77.24815674 244.9743457 77.66428223 245.87056641 78.09301758 246.79394531 C79 249 79 249 79 251 C26.18607969 254.55005669 -24.5191471 237.15115434 -71 213 C-65.38375269 223.5394258 -59.53990411 233.55541974 -52.39208984 243.125 C-50.29130597 245.95453703 -48.23496605 248.81568827 -46.17504883 251.67504883 C-45.0634752 253.21790201 -43.95004686 254.75942071 -42.8347168 256.29956055 C-40.24286196 259.8786789 -37.66408911 263.46524381 -35.125 267.08203125 C-34.67962891 267.71431641 -34.23425781 268.34660156 -33.77539062 268.99804688 C-32.58606493 270.69005847 -31.40219212 272.3858993 -30.21875 274.08203125 C-28.00676108 276.99110823 -25.59715925 279.43657009 -23 282 C-21.95686508 283.36389891 -20.95605669 284.7612089 -20 286.1875 C-19.401875 287.05503906 -18.80375 287.92257812 -18.1875 288.81640625 C-17.00966772 290.53057287 -15.83211568 292.24493298 -14.65625 293.96044922 C-7.12345791 304.8814952 0.99075701 314.65832222 10.24902344 324.15332031 C12.08081098 326.08522786 13.82941222 328.07191738 15.5703125 330.0859375 C18.57166588 333.55213566 21.71834269 336.80098217 25 340 C28.96652327 343.91242314 32.74071572 347.90015906 36.36328125 352.13671875 C40.5510084 356.90413128 45.09905695 361.27576353 49.9375 365.375 C57.13329519 371.58955039 65.38320589 378.83205891 66.375 388.75 C66.05738946 396.28603196 63.62371394 403.06078496 59 409 C56.7051432 410.71691375 54.58928392 412.15338972 52.125 413.5625 C51.12654053 414.14100708 51.12654053 414.14100708 50.10791016 414.73120117 C35.12418764 423.16021068 18.02575207 426.37595094 1.02246094 427.74511719 C-1.06587778 427.89466082 -1.06587778 427.89466082 -3 429 C-4.95549256 429.12257461 -6.91570618 429.17552388 -8.875 429.1875 C-9.92429687 429.20167969 -10.97359375 429.21585937 -12.0546875 429.23046875 C-14.93547071 429.00504937 -16.56240208 428.48964317 -19 427 C-19.08131463 425.56344146 -19.13933559 424.1255517 -19.1875 422.6875 C-19.22230469 421.88699219 -19.25710938 421.08648437 -19.29296875 420.26171875 C-18.93801608 417.52148416 -18.10633718 416.70828921 -16 415 C-16.886875 414.71125 -17.77375 414.4225 -18.6875 414.125 C-22 413 -22 413 -24.1015625 412.05078125 C-29.00442467 410.27332852 -34.13829803 409.53356926 -39.25585938 408.58789062 C-45.31356559 407.43162883 -51.12251134 405.85842267 -57 404 C-57.77045654 403.76821045 -58.54091309 403.5364209 -59.3347168 403.29760742 C-79.63002463 397.17849421 -99.29765118 388.72051117 -117 377 C-118.21513393 376.26224011 -119.43408701 375.53074379 -120.65625 374.8046875 C-121.26686279 374.44020508 -121.87747559 374.07572266 -122.5065918 373.70019531 C-124.20819628 372.68709998 -125.91070938 371.67553123 -127.61328125 370.6640625 C-128.40089844 370.11492187 -129.18851562 369.56578125 -130 369 C-130 368.34 -130 367.68 -130 367 C-130.7734375 366.6596875 -130.7734375 366.6596875 -131.5625 366.3125 C-137.92855549 362.88462397 -142.53797201 358.67151543 -147 353 C-145.75023244 349.34683329 -145.32901247 348.21934164 -142 346 C-138.3125 346.875 -138.3125 346.875 -135 348 C-135 348.66 -135 349.32 -135 350 C-133.989375 350.144375 -132.97875 350.28875 -131.9375 350.4375 C-128.29166667 350.95833333 -124.64583333 351.47916667 -121 352 C-121.84820312 351.46632813 -122.69640625 350.93265625 -123.5703125 350.3828125 C-137.15839749 341.7780036 -149.88601669 332.58755646 -162 322 C-163.19496094 320.95585938 -163.19496094 320.95585938 -164.4140625 319.890625 C-165.73570168 318.73233448 -167.05386062 317.57005071 -168.3671875 316.40234375 C-170.11595857 314.85820888 -170.11595857 314.85820888 -172.625 313.125 C-176.1257728 309.9927296 -178.92949273 306.22663703 -181 302 C-180.67 301.01 -180.34 300.02 -180 299 C-176.99789561 300.35436689 -174.83584825 301.88684072 -172.4609375 304.16015625 C-171.8023877 304.78519043 -171.14383789 305.41022461 -170.46533203 306.05419922 C-169.77552246 306.71693848 -169.08571289 307.37967773 -168.375 308.0625 C-166.94336659 309.42126681 -165.51107549 310.779341 -164.078125 312.13671875 C-163.38267578 312.79720215 -162.68722656 313.45768555 -161.97070312 314.13818359 C-159.3832726 316.58265153 -156.76426603 318.98654142 -154.125 321.375 C-152.98417969 322.40753906 -152.98417969 322.40753906 -151.8203125 323.4609375 C-150.07075815 325.06294491 -150.07075815 325.06294491 -148 326 C-148 326.66 -148 327.32 -148 328 C-147.34 328.20625 -146.68 328.4125 -146 328.625 C-142.66412676 330.1539419 -140.10702355 332.07610084 -137.2109375 334.3046875 C-132.06417435 338.25114546 -126.86658118 342.04393247 -121.1328125 345.09375 C-110.75771621 350.69585383 -110.75771621 350.69585383 -108.375 354.796875 C-107.6575847 357.2388463 -107.17465536 359.464851 -107 362 C-115.27154693 362.57045151 -122.14918568 360.45002634 -130 358 C-132.3300229 357.32103018 -134.66440465 356.65967197 -137 356 C-131.56254808 359.47317516 -126.12107936 362.93981828 -120.671875 366.39453125 C-117.58545585 368.35144163 -114.50541297 370.31451632 -111.453125 372.32421875 C-86.73275097 388.25883822 -56.00923671 400.88072293 -27 406 C-27 405.34 -27 404.68 -27 404 C-26.12601563 404.144375 -25.25203125 404.28875 -24.3515625 404.4375 C-14.17189839 405.97405307 -4.28331115 406.21202703 6 406 C5.8984375 409.2890625 5.8984375 409.2890625 5 413 C2.1640625 414.9609375 2.1640625 414.9609375 -1.375 416.375 C-2.53773438 416.85710937 -3.70046875 417.33921875 -4.8984375 417.8359375 C-6.91881593 418.59421555 -8.9527523 419.3175841 -11 420 C8.40994241 421.3562848 32.28761239 418.60248246 49 408 C53.55663419 403.14838779 56 397.62532698 56 390.9375 C52.75853265 381.41568966 45.60410956 374.26116962 38.09375 367.90625 C35.01762433 365.10559827 32.35699298 361.98531047 29.6640625 358.8203125 C28.11620121 356.90876334 28.11620121 356.90876334 26 356 C26 355.34 26 354.68 26 354 C25.34 354 24.68 354 24 354 C22.37890625 352.35546875 22.37890625 352.35546875 20.5625 350.1875 C18.04400115 347.18813535 18.04400115 347.18813535 15.27734375 344.42578125 C14 343 14 343 14 340 C13.13375 339.9071875 13.13375 339.9071875 12.25 339.8125 C9.07551517 338.66615826 7.87151425 336.74043158 6 334 C6 333.34 6 332.68 6 332 C4.68 331.34 3.36 330.68 2 330 C2 329.01 2 328.02 2 327 C1.01 326.67 0.02 326.34 -1 326 C-1 325.34 -1 324.68 -1 324 C-1.66 324 -2.32 324 -3 324 C-3 323.34 -3 322.68 -3 322 C-3.99 321.67 -4.98 321.34 -6 321 C-7.6484375 318.92578125 -7.6484375 318.92578125 -9.375 316.3125 C-11.35155154 313.38703797 -13.29329037 310.64948225 -15.5625 307.9375 C-24 297.76923077 -24 297.76923077 -24 293 C-24.66 293 -25.32 293 -26 293 C-26.33 291.02 -26.66 289.04 -27 287 C-27.66 287 -28.32 287 -29 287 C-30.8915307 284.78581383 -32.67649679 282.56433016 -34.4375 280.25 C-34.92798828 279.61578125 -35.41847656 278.9815625 -35.92382812 278.328125 C-36.87146381 277.10041885 -37.81483755 275.86940832 -38.75341797 274.63476562 C-39.7696464 273.30208534 -40.80581975 271.98463304 -41.84765625 270.671875 C-43 269 -43 269 -43 267 C-43.66 267 -44.32 267 -45 267 C-46.9453125 264.69921875 -46.9453125 264.69921875 -49.125 261.6875 C-49.84945312 260.70136719 -50.57390625 259.71523438 -51.3203125 258.69921875 C-53 256 -53 256 -53 253 C-53.99 252.67 -54.98 252.34 -56 252 C-57.67031455 250.07642476 -59.15328781 248.19325987 -60.625 246.125 C-61.05796387 245.51946289 -61.49092773 244.91392578 -61.93701172 244.29003906 C-75 225.30054429 -75 225.30054429 -75 217 C-75.66 217 -76.32 217 -77 217 C-77.23332031 216.34773437 -77.46664062 215.69546875 -77.70703125 215.0234375 C-80.51683223 208.2918295 -83.35327958 205.67639938 -89.8671875 202.5703125 C-93.50284531 200.74795035 -96.78247271 198.61789888 -100.125 196.3125 C-100.69347656 195.93150146 -101.26195312 195.55050293 -101.84765625 195.15795898 C-104.67726546 193.19703634 -105.88239091 192.35282726 -107 189 C-109.39068734 187.89363605 -109.39068734 187.89363605 -112 187 C-113.485 186.01 -113.485 186.01 -115 185 C-115 184.34 -115 183.68 -115 183 C-115.55300781 182.76152344 -116.10601562 182.52304688 -116.67578125 182.27734375 C-119.54665315 180.69957045 -121.75309811 178.75238294 -124.1875 176.5625 C-125.06792969 175.78003906 -125.94835937 174.99757812 -126.85546875 174.19140625 C-129 172 -129 172 -130 169 C-131.65948148 167.98812105 -133.32580562 166.9873454 -135 166 C-135 165.34 -135 164.68 -135 164 C-135.66 164 -136.32 164 -137 164 C-139.48817699 161.76064071 -141.58950855 159.84512945 -143.0625 156.8125 C-143.86702161 154.82107843 -143.86702161 154.82107843 -146 154 C-148.51617591 152.74191204 -148.80485792 151.4699603 -150 149 C-150.99 148.67 -151.98 148.34 -153 148 C-153 147.34 -153 146.68 -153 146 C-153.99 145.67 -154.98 145.34 -156 145 C-156.66666667 143.66666667 -157.33333333 142.33333333 -158 141 C-160.20413942 138.68282779 -162.41790702 136.48507748 -164.875 134.4375 C-165.24625 133.963125 -165.6175 133.48875 -166 133 C-164.43685875 123.64145306 -157.95522346 115.98302853 -152 109 C-151.09427984 107.92122081 -150.18937012 106.8417608 -149.28515625 105.76171875 C-144.89510132 100.53182064 -140.46324215 95.3397808 -135.9375 90.2265625 C-134.33311711 88.38281604 -132.75619163 86.52238245 -131.1875 84.6484375 C-126.37212144 78.91678777 -121.69554928 73.36598691 -115.890625 68.59765625 C-112.37714997 65.62862466 -109.21168643 62.28856191 -106 59 C-106.56589844 58.02417969 -107.13179688 57.04835937 -107.71484375 56.04296875 C-108.45587182 54.75789475 -109.19674939 53.47273396 -109.9375 52.1875 C-110.31068359 51.54490234 -110.68386719 50.90230469 -111.06835938 50.24023438 C-114.48560089 44.29854418 -115.81603536 39.80029466 -115 33 C-112.06121733 24.95029094 -105.97338714 20.70179057 -98.59765625 17.11328125 C-91.08035684 13.8915815 -85.05398747 13.31839822 -77 15 C-69.27325752 18.73560621 -65.57666539 25.48900267 -62 33 C-61.34773438 32.62746094 -60.69546875 32.25492188 -60.0234375 31.87109375 C-51.79805633 27.41871191 -51.79805633 27.41871191 -46 29 C-43.99908327 28.6722145 -41.99921711 28.33799714 -40 28 C-37.70916711 27.93477127 -35.41664206 27.9141159 -33.125 27.9375 C-31.97257813 27.94652344 -30.82015625 27.95554687 -29.6328125 27.96484375 C-28.76398438 27.97644531 -27.89515625 27.98804687 -27 28 C-26.92523438 27.3709375 -26.85046875 26.741875 -26.7734375 26.09375 C-24.99077819 14.4889874 -17.81836667 8.24818987 -9 1 C-5.92009655 -0.53995173 -3.41257239 -0.22377524 0 0 Z " fill="#FEBC48" transform="translate(469,6)"/>
<path d="M0 0 C3.55838211 1.97345282 6.17554555 4.0247461 8.9375 7 C17.24820954 15.50494983 26.96052576 22.66344821 37 29 C37.58136719 29.391875 38.16273438 29.78375 38.76171875 30.1875 C52.05156342 38.95130212 67.07379471 44.61150707 81.77734375 50.484375 C85.49405439 51.96892966 89.16791114 53.50218144 92.80859375 55.1640625 C96.83108895 56.97939892 100.90002021 58.36331645 105.125 59.625 C105.78886719 59.82867187 106.45273437 60.03234375 107.13671875 60.2421875 C109.08834448 60.83798714 111.04327747 61.42118356 113 62 C114.10988281 62.33 115.21976563 62.66 116.36328125 63 C123.87287651 65.06493704 131.48273889 66.70749257 139.09179688 68.36083984 C140.90039508 68.75833062 142.70688327 69.16571874 144.50976562 69.58837891 C146.93803585 70.1556061 149.37064777 70.68200046 151.8125 71.1875 C152.66255615 71.36740479 153.5126123 71.54730957 154.38842773 71.73266602 C161.02031517 72.93485042 167.3746659 73.02974673 174.08203125 72.8828125 C201.42486493 72.46611311 201.42486493 72.46611311 207.86181641 77.02832031 C212.22804037 82.3255848 214.19015942 88.42474235 216.04443359 94.95410156 C217.50065192 99.59584397 219.8449416 103.60752978 222.25 107.8125 C225.62460966 114.11883954 228.7116071 120.53092441 231.625 127.0625 C231.96821289 127.83118408 232.31142578 128.59986816 232.66503906 129.3918457 C235 134.73559494 235 134.73559494 235 137 C182.18607969 140.55005669 131.4808529 123.15115434 85 99 C90.61624731 109.5394258 96.46009589 119.55541974 103.60791016 129.125 C105.70869403 131.95453703 107.76503395 134.81568827 109.82495117 137.67504883 C110.9365248 139.21790201 112.04995314 140.75942071 113.1652832 142.29956055 C115.75713804 145.8786789 118.33591089 149.46524381 120.875 153.08203125 C121.32037109 153.71431641 121.76574219 154.34660156 122.22460938 154.99804688 C123.41393507 156.69005847 124.59780788 158.3858993 125.78125 160.08203125 C127.99323892 162.99110823 130.40284075 165.43657009 133 168 C134.04313492 169.36389891 135.04394331 170.7612089 136 172.1875 C136.598125 173.05503906 137.19625 173.92257812 137.8125 174.81640625 C138.99033228 176.53057287 140.16788432 178.24493298 141.34375 179.96044922 C148.87654209 190.8814952 156.99075701 200.65832222 166.24902344 210.15332031 C168.08081098 212.08522786 169.82941222 214.07191738 171.5703125 216.0859375 C174.57166588 219.55213566 177.71834269 222.80098217 181 226 C184.96652327 229.91242314 188.74071572 233.90015906 192.36328125 238.13671875 C196.5510084 242.90413128 201.09905695 247.27576353 205.9375 251.375 C213.13329519 257.58955039 221.38320589 264.83205891 222.375 274.75 C222.05738946 282.28603196 219.62371394 289.06078496 215 295 C212.7051432 296.71691375 210.58928392 298.15338972 208.125 299.5625 C207.12654053 300.14100708 207.12654053 300.14100708 206.10791016 300.73120117 C191.12418764 309.16021068 174.02575207 312.37595094 157.02246094 313.74511719 C154.93412222 313.89466082 154.93412222 313.89466082 153 315 C151.04450744 315.12257461 149.08429382 315.17552388 147.125 315.1875 C146.07570313 315.20167969 145.02640625 315.21585937 143.9453125 315.23046875 C141.06452929 315.00504937 139.43759792 314.48964317 137 313 C136.91868537 311.56344146 136.86066441 310.1255517 136.8125 308.6875 C136.77769531 307.88699219 136.74289062 307.08648437 136.70703125 306.26171875 C137.06198392 303.52148416 137.89366282 302.70828921 140 301 C139.113125 300.71125 138.22625 300.4225 137.3125 300.125 C134 299 134 299 131.8984375 298.05078125 C126.99557533 296.27332852 121.86170197 295.53356926 116.74414062 294.58789062 C110.68643441 293.43162883 104.87748866 291.85842267 99 290 C98.22954346 289.76821045 97.45908691 289.5364209 96.6652832 289.29760742 C76.36997537 283.17849421 56.70234882 274.72051117 39 263 C37.78486607 262.26224011 36.56591299 261.53074379 35.34375 260.8046875 C34.73313721 260.44020508 34.12252441 260.07572266 33.4934082 259.70019531 C31.79180372 258.68709998 30.08929062 257.67553123 28.38671875 256.6640625 C27.59910156 256.11492187 26.81148438 255.56578125 26 255 C26 254.34 26 253.68 26 253 C25.2265625 252.6596875 25.2265625 252.6596875 24.4375 252.3125 C18.07144451 248.88462397 13.46202799 244.67151543 9 239 C10.24976756 235.34683329 10.67098753 234.21934164 14 232 C17.6875 232.875 17.6875 232.875 21 234 C21 234.66 21 235.32 21 236 C22.5159375 236.2165625 22.5159375 236.2165625 24.0625 236.4375 C27.70833333 236.95833333 31.35416667 237.47916667 35 238 C34.15179688 237.46632813 33.30359375 236.93265625 32.4296875 236.3828125 C18.84160251 227.7780036 6.11398331 218.58755646 -6 208 C-6.79664063 207.30390625 -7.59328125 206.6078125 -8.4140625 205.890625 C-9.73570168 204.73233448 -11.05386062 203.57005071 -12.3671875 202.40234375 C-14.11595857 200.85820888 -14.11595857 200.85820888 -16.625 199.125 C-20.1257728 195.9927296 -22.92949273 192.22663703 -25 188 C-24.67 187.01 -24.34 186.02 -24 185 C-20.99789561 186.35436689 -18.83584825 187.88684072 -16.4609375 190.16015625 C-15.47311279 191.09770752 -15.47311279 191.09770752 -14.46533203 192.05419922 C-13.77552246 192.71693848 -13.08571289 193.37967773 -12.375 194.0625 C-10.94336659 195.42126681 -9.51107549 196.779341 -8.078125 198.13671875 C-7.38267578 198.79720215 -6.68722656 199.45768555 -5.97070312 200.13818359 C-3.3832726 202.58265153 -0.76426603 204.98654142 1.875 207.375 C3.01582031 208.40753906 3.01582031 208.40753906 4.1796875 209.4609375 C5.92924185 211.06294491 5.92924185 211.06294491 8 212 C8 212.66 8 213.32 8 214 C8.66 214.20625 9.32 214.4125 10 214.625 C13.33587324 216.1539419 15.89297645 218.07610084 18.7890625 220.3046875 C23.93582565 224.25114546 29.13341882 228.04393247 34.8671875 231.09375 C45.24228379 236.69585383 45.24228379 236.69585383 47.625 240.796875 C48.3424153 243.2388463 48.82534464 245.464851 49 248 C40.72845307 248.57045151 33.85081432 246.45002634 26 244 C23.6699771 243.32103018 21.33559535 242.65967197 19 242 C24.43745192 245.47317516 29.87892064 248.93981828 35.328125 252.39453125 C38.41454415 254.35144163 41.49458703 256.31451632 44.546875 258.32421875 C69.26724903 274.25883822 99.99076329 286.88072293 129 292 C129 291.34 129 290.68 129 290 C129.87398437 290.144375 130.74796875 290.28875 131.6484375 290.4375 C141.82810161 291.97405307 151.71668885 292.21202703 162 292 C161.8984375 295.2890625 161.8984375 295.2890625 161 299 C158.1640625 300.9609375 158.1640625 300.9609375 154.625 302.375 C153.46226562 302.85710937 152.29953125 303.33921875 151.1015625 303.8359375 C149.08118407 304.59421555 147.0472477 305.3175841 145 306 C164.40994241 307.3562848 188.28761239 304.60248246 205 294 C209.55663419 289.14838779 212 283.62532698 212 276.9375 C208.75853265 267.41568966 201.60410956 260.26116962 194.09375 253.90625 C191.01762433 251.10559827 188.35699298 247.98531047 185.6640625 244.8203125 C184.11620121 242.90876334 184.11620121 242.90876334 182 242 C182 241.34 182 240.68 182 240 C181.34 240 180.68 240 180 240 C178.37890625 238.35546875 178.37890625 238.35546875 176.5625 236.1875 C174.04400115 233.18813535 174.04400115 233.18813535 171.27734375 230.42578125 C170 229 170 229 170 226 C169.4225 225.938125 168.845 225.87625 168.25 225.8125 C165.07551517 224.66615826 163.87151425 222.74043158 162 220 C162 219.34 162 218.68 162 218 C160.68 217.34 159.36 216.68 158 216 C158 215.01 158 214.02 158 213 C157.01 212.67 156.02 212.34 155 212 C155 211.34 155 210.68 155 210 C154.34 210 153.68 210 153 210 C153 209.34 153 208.68 153 208 C152.01 207.67 151.02 207.34 150 207 C148.3515625 204.92578125 148.3515625 204.92578125 146.625 202.3125 C144.64844846 199.38703797 142.70670963 196.64948225 140.4375 193.9375 C132 183.76923077 132 183.76923077 132 179 C131.34 179 130.68 179 130 179 C129.67 177.02 129.34 175.04 129 173 C128.34 173 127.68 173 127 173 C125.1084693 170.78581383 123.32350321 168.56433016 121.5625 166.25 C121.07201172 165.61578125 120.58152344 164.9815625 120.07617188 164.328125 C119.12853619 163.10041885 118.18516245 161.86940832 117.24658203 160.63476562 C116.2303536 159.30208534 115.19418025 157.98463304 114.15234375 156.671875 C113 155 113 155 113 153 C112.34 153 111.68 153 111 153 C109.0546875 150.69921875 109.0546875 150.69921875 106.875 147.6875 C106.15054688 146.70136719 105.42609375 145.71523438 104.6796875 144.69921875 C103 142 103 142 103 139 C102.01 138.67 101.02 138.34 100 138 C98.32968545 136.07642476 96.84671219 134.19325987 95.375 132.125 C94.94203613 131.51946289 94.50907227 130.91392578 94.06298828 130.29003906 C81 111.30054429 81 111.30054429 81 103 C80.34 103 79.68 103 79 103 C78.65001953 102.02160156 78.65001953 102.02160156 78.29296875 101.0234375 C75.48316777 94.2918295 72.64672042 91.67639938 66.1328125 88.5703125 C62.49715469 86.74795035 59.21752729 84.61789888 55.875 82.3125 C55.30652344 81.93150146 54.73804688 81.55050293 54.15234375 81.15795898 C51.32273454 79.19703634 50.11760909 78.35282726 49 75 C46.60931266 73.89363605 46.60931266 73.89363605 44 73 C42.515 72.01 42.515 72.01 41 71 C41 70.34 41 69.68 41 69 C40.44699219 68.76152344 39.89398438 68.52304688 39.32421875 68.27734375 C36.45334685 66.69957045 34.24690189 64.75238294 31.8125 62.5625 C30.93207031 61.78003906 30.05164063 60.99757812 29.14453125 60.19140625 C27 58 27 58 26 55 C24.34051852 53.98812105 22.67419438 52.9873454 21 52 C21 51.34 21 50.68 21 50 C20.34 50 19.68 50 19 50 C16.51182301 47.76064071 14.41049145 45.84512945 12.9375 42.8125 C12.13297839 40.82107843 12.13297839 40.82107843 10 40 C7.48382409 38.74191204 7.19514208 37.4699603 6 35 C4.515 34.505 4.515 34.505 3 34 C3 33.34 3 32.68 3 32 C2.01 31.67 1.02 31.34 0 31 C-0.66666667 29.66666667 -1.33333333 28.33333333 -2 27 C-4.20413942 24.68282779 -6.41790702 22.48507748 -8.875 20.4375 C-9.24625 19.963125 -9.6175 19.48875 -10 19 C-8.89632885 12.10583503 -4.59154492 5.10171658 0 0 Z " fill="#CF7426" transform="translate(313,120)"/>
<path d="M0 0 C-0.66 0.99 -1.32 1.98 -2 3 C-2.66 3 -3.32 3 -4 3 C-4 3.66 -4 4.32 -4 5 C-4.99 5 -5.98 5 -7 5 C-7.268125 5.9075 -7.53625 6.815 -7.8125 7.75 C-9 11 -9 11 -10.5 12.9375 C-12.54417916 15.74824635 -13.16433831 18.65735325 -14 22 C-7.54217722 20.46277205 -7.54217722 20.46277205 -2.75 16.125 C-2.1725 15.09375 -1.595 14.0625 -1 13 C1.56775224 10.24436345 3.86459099 8.09027267 7 6 C6.67 5.34 6.34 4.68 6 4 C8.4404341 2.46343038 9.70744102 1.97910293 12.625 2.1875 C15 3 15 3 17 6 C16.59171615 10.4911224 15.27282551 14.68653577 14 19 C13.47430192 20.87364188 12.95378557 22.74874267 12.4375 24.625 C12.18871094 25.52476563 11.93992187 26.42453125 11.68359375 27.3515625 C11.02859695 29.88920724 10.48793681 32.42555245 10 35 C9.01 35.33 8.02 35.66 7 36 C7 35.01 7 34.02 7 33 C6.27296875 32.70996094 5.5459375 32.41992188 4.796875 32.12109375 C3.0759156 31.43126785 1.35674072 30.7369453 -0.359375 30.03515625 C-5.12225446 28.09731804 -9.83337756 26.35844849 -14.796875 25.00390625 C-17 24 -17 24 -19.8046875 21.4375 C-24.21074395 17.63623715 -29.10276218 18.34037974 -34.625 18.5859375 C-46.34098149 19.52216995 -55.7700365 22.52660395 -65 30 C-65.84820312 30.50015625 -66.69640625 31.0003125 -67.5703125 31.515625 C-70.22665412 33.16438876 -72.08337011 34.5212177 -74 37 C-74.60263448 40.44865278 -74.62676407 43.7279702 -74.6640625 47.2265625 C-75.34116505 54.83215631 -78.99848897 61.85283505 -84.25390625 67.36328125 C-90.60234843 72.55160202 -95.83574235 74.14076306 -104 74 C-105.2375 74.226875 -106.475 74.45375 -107.75 74.6875 C-114.65419299 75.64305108 -122.45944717 73.11583924 -128 69 C-129.485 68.0409375 -129.485 68.0409375 -131 67.0625 C-137.6661773 61.35845139 -140.08081021 50.41313986 -141 42 C-141.50335882 34.99791931 -141.65405086 29.13358537 -138 23 C-134.71199882 19.87446476 -131.1627315 19.06390831 -126.8125 18.3125 C-126.08925537 18.1872998 -125.36601074 18.06209961 -124.62084961 17.93310547 C-117.78360146 16.89125258 -110.97081866 16.67563475 -104.0625 16.625 C-102.5007605 16.60433472 -102.5007605 16.60433472 -100.9074707 16.58325195 C-92.20480041 16.63533049 -83.42671875 17.57328125 -77 24 C-76.505 24.99 -76.505 24.99 -76 26 C-75.54625 25.319375 -75.0925 24.63875 -74.625 23.9375 C-66.71519716 15.08605397 -57.15004858 10.75070058 -45.4765625 9.79296875 C-44.59742188 9.71691406 -43.71828125 9.64085938 -42.8125 9.5625 C-41.99394531 9.50191406 -41.17539062 9.44132812 -40.33203125 9.37890625 C-37.88325156 8.98103082 -36.14650047 8.21881751 -34 7 C-32.68 8.32 -31.36 9.64 -30 11 C-29.73574219 10.40445313 -29.47148438 9.80890625 -29.19921875 9.1953125 C-27.02572384 5.21647166 -24.033159 2.99899305 -20 1 C-13.39382342 -0.54657312 -6.67273004 -1.74792355 0 0 Z " fill="#150C08" transform="translate(556,68)"/>
<path d="M0 0 C3.80828399 0.56616433 6.35205862 1.61319412 9.5546875 3.73046875 C10.40901367 4.2836377 11.26333984 4.83680664 12.14355469 5.40673828 C13.04493164 5.99438965 13.94630859 6.58204102 14.875 7.1875 C35.08185928 19.96526475 53.68299958 23.06603022 77.14019775 23.54638672 C88.63257871 23.787788 99.75601912 24.47329322 111 27 C111.72815918 27.15903809 112.45631836 27.31807617 113.20654297 27.48193359 C122.1077554 29.47450932 122.1077554 29.47450932 126 31 C126.33 31.99 126.66 32.98 127 34 C128.96887675 34.75363703 130.98029732 35.39564452 133 36 C136.29612612 37.27251439 139.55258766 38.63779591 142.8125 40 C143.68326172 40.35578125 144.55402344 40.7115625 145.45117188 41.078125 C146.27810547 41.42359375 147.10503906 41.7690625 147.95703125 42.125 C149.08588745 42.59292969 149.08588745 42.59292969 150.23754883 43.0703125 C152 44 152 44 153 46 C151.54119891 45.85892253 150.08296449 45.71197585 148.625 45.5625 C147.81289063 45.48128906 147.00078125 45.40007812 146.1640625 45.31640625 C144 45 144 45 142 44 C142 43.34 142 42.68 142 42 C141.18789063 42.21140625 140.37578125 42.4228125 139.5390625 42.640625 C135.01569036 43.09995197 131.66962833 42.07642261 127.375 40.75 C125.76469587 40.27607468 124.15401758 39.80341883 122.54296875 39.33203125 C121.76356934 39.10080566 120.98416992 38.86958008 120.18115234 38.63134766 C117.36868107 37.81726094 114.53496186 37.11800157 111.6875 36.4375 C104.30942911 34.63146317 97.03041947 32.42901265 89.87109375 29.890625 C85.51276692 28.53865423 81.34927876 28.45126336 76.859375 29.5 C53.83654115 33.52585073 31.12251996 28.88979848 12 16 C10.91589844 15.31164062 9.83179688 14.62328125 8.71484375 13.9140625 C7.63332031 13.22054687 6.55179687 12.52703125 5.4375 11.8125 C4.44621094 11.17957031 3.45492188 10.54664063 2.43359375 9.89453125 C0.01712787 8.01333389 -1.07831526 6.89587399 -2 4 C-1.125 1.75 -1.125 1.75 0 0 Z " fill="#D07626" transform="translate(374,145)"/>
<path d="M0 0 C0 0.66 0 1.32 0 2 C-21.42566191 22 -21.42566191 22 -31 22 C-31 22.66 -31 23.32 -31 24 C-49.21602222 30.37352038 -66.62773117 36.23040414 -86.03515625 36.7265625 C-87.01355469 36.81679688 -87.99195313 36.90703125 -89 37 C-89.495 37.99 -89.495 37.99 -90 39 C-90.75023437 38.98839844 -91.50046875 38.97679687 -92.2734375 38.96484375 C-97.076072 38.92250314 -101.79255694 38.90059123 -106.5625 39.5 C-111.56004299 40.05167682 -116.53904858 40.18406144 -121.5625 40.25 C-122.74984741 40.2819043 -122.74984741 40.2819043 -123.96118164 40.31445312 C-129.79826614 40.3483369 -134.58345724 39.14238201 -140 37 C-139.67 36.34 -139.34 35.68 -139 35 C-132.66045241 33.99471991 -126.4661087 33.90769351 -120.0625 34 C-113.30673209 34.04356954 -106.68882304 34.07884243 -100 33 C-99.34 32.34 -98.68 31.68 -98 31 C-95.59603764 30.4768736 -93.24080056 30.05683699 -90.8125 29.6875 C-70.18253451 26.25701481 -51.4354328 21.30459862 -32.37841797 12.75756836 C-25.66661174 9.77609437 -18.80506439 7.20795429 -11.91723633 4.66455078 C-11.06154053 4.34599121 -10.20584473 4.02743164 -9.32421875 3.69921875 C-8.1808606 3.27902466 -8.1808606 3.27902466 -7.0144043 2.8503418 C-0.26213035 0 -0.26213035 0 0 0 Z " fill="#D07627" transform="translate(555,507)"/>
<path d="M0 0 C0.66 4.95 1.32 9.9 2 15 C0.370625 15.845625 -1.25875 16.69125 -2.9375 17.5625 C-9.70475826 21.26402479 -16.0481215 25.33207333 -20.875 31.4375 C-21.926875 32.7059375 -21.926875 32.7059375 -23 34 C-23.99 34 -24.98 34 -26 34 C-26.495 36.475 -26.495 36.475 -27 39 C-29.62901288 37.47793991 -31.84365964 36.15634036 -34 34 C-33.20673712 26.91832589 -25.72354133 21.68451803 -20.734375 17.28515625 C-19 16 -19 16 -17 16 C-17 15.34 -17 14.68 -17 14 C-15.49609375 12.51953125 -15.49609375 12.51953125 -13.4375 10.8125 C-9.89003826 7.81322507 -6.63477128 4.66004868 -3.4453125 1.28515625 C-2 0 -2 0 0 0 Z " fill="#FAB947" transform="translate(469,93)"/>
<path d="M0 0 C5.13615894 0.82453388 10.02488344 2.47911896 14.9609375 4.0859375 C17.44411532 4.83280589 19.68563758 5.34007084 22.25 5.625 C23.1575 5.74875 24.065 5.8725 25 6 C25.495 6.99 25.495 6.99 26 8 C27.81767131 8.83177624 27.81767131 8.83177624 29.9375 9.5 C32.70455204 10.42402464 33.89137369 10.89137369 36 13 C26.91456515 12.69357724 18.78815897 11.05649001 10.06787109 8.56591797 C6.25806423 7.52328133 2.40990838 6.64173803 -1.4375 5.75 C-2.18999023 5.5749292 -2.94248047 5.3998584 -3.71777344 5.21948242 C-5.4780699 4.8110624 -7.23896682 4.40523163 -9 4 C-4.5 0 -4.5 0 0 0 Z " fill="#D07626" transform="translate(451,36)"/>
<path d="M0 0 C0 0.66 0 1.32 0 2 C-1.98 2.33 -3.96 2.66 -6 3 C-6 3.66 -6 4.32 -6 5 C-7.299375 5.5878125 -7.299375 5.5878125 -8.625 6.1875 C-12.63243403 8.3396405 -16.904531 10.809062 -19 15 C-22 14 -22 14 -23.1875 11.9375 C-23.455625 11.298125 -23.72375 10.65875 -24 10 C-23.071875 9.4225 -22.14375 8.845 -21.1875 8.25 C-18.02083333 6.28125 -18.02083333 6.28125 -16.5 3.875 C-12.54832395 -1.06459507 -5.74198557 -0.22967942 0 0 Z " fill="#C97225" transform="translate(545,64)"/>
<path d="M0 0 C0.66 0.33 1.32 0.66 2 1 C2.59475911 3.5515166 3.0813239 6.04393085 3.5 8.625 C4.37942163 13.87253785 5.48542192 18.88673434 7 24 C7.36270588 25.99488234 7.70640699 27.9937811 8 30 C4.43105328 27.28427086 3.6359229 23.42947961 2.4375 19.3125 C2.22931641 18.62994141 2.02113281 17.94738281 1.80664062 17.24414062 C1.18147001 15.16873097 0.58924048 13.08586281 0 11 C-0.22026855 10.27474121 -0.44053711 9.54948242 -0.66748047 8.80224609 C-1.21270302 6.89418543 -1.61640528 4.94700237 -2 3 C-1.34 2.01 -0.68 1.02 0 0 Z " fill="#D47C29" transform="translate(225,418)"/>
<path d="M0 0 C1.23556641 0.01740234 1.23556641 0.01740234 2.49609375 0.03515625 C3.32238281 0.04417969 4.14867187 0.05320313 5 0.0625 C5.63808594 0.07410156 6.27617188 0.08570313 6.93359375 0.09765625 C6.93359375 0.75765625 6.93359375 1.41765625 6.93359375 2.09765625 C0.30859375 3.34765625 0.30859375 3.34765625 -3.06640625 1.09765625 C-2.06640625 0.09765625 -2.06640625 0.09765625 0 0 Z " fill="#E39334" transform="translate(538.06640625,63.90234375)"/>
<path d="" fill="#FF8000" transform="translate(0,0)"/>
<path d="" fill="#CC7128" transform="translate(0,0)"/>
<path d="" fill="#CF7425" transform="translate(0,0)"/>
</svg>
