<?xml version="1.0" encoding="UTF-8"?>
<svg version="1.1" xmlns="http://www.w3.org/2000/svg" width="893" height="587">
<path d="M0 0 C4.64103153 3.9764178 6.65134827 7.63131237 7.28515625 13.69140625 C6.89600914 16.84189861 5.45218908 19.20206628 4 22 C4.78383057 21.97905273 5.56766113 21.95810547 6.37524414 21.93652344 C89.44532013 20.05708304 89.44532013 20.05708304 121 33 C122.53280581 33.41687871 124.07530112 33.79956089 125.625 34.1484375 C126.48923584 34.34663086 127.35347168 34.54482422 128.24389648 34.74902344 C129.15341064 34.9555957 130.0629248 35.16216797 131 35.375 C143.1609567 38.22860551 154.66057075 41.7576511 166.25 46.4375 C167.17353271 46.80907227 168.09706543 47.18064453 169.04858398 47.56347656 C181.53162826 52.7096898 198.33618876 60.78444044 204 74 C205.08490292 78.97778988 205.82134937 83.53286349 203 88 C199.10149776 93.01981058 193.99737787 96.61074492 188.8125 100.1875 C188.22573486 100.60346436 187.63896973 101.01942871 187.03442383 101.44799805 C177.75896111 107.64031431 166.77723631 109.76251053 155.9375 111.5625 C154.68106689 111.77302002 153.42463379 111.98354004 152.13012695 112.20043945 C138.59049321 114.35630238 124.93883681 115.2039433 111.26342773 116.01196289 C90.62428088 117.05012484 90.62428088 117.05012484 70.4375 121.125 C69.19871094 121.47820312 67.95992187 121.83140625 66.68359375 122.1953125 C65.79800781 122.46085937 64.91242187 122.72640625 64 123 C64 126.5107307 66.58389587 129.30111078 68.4375 132.1875 C69.35777405 133.64129251 70.27702175 135.09573517 71.1953125 136.55078125 C71.89769043 137.66187256 71.89769043 137.66187256 72.61425781 138.79541016 C78.17826811 147.64724473 83.49283235 156.55641063 88 166 C89.68370831 169.4927547 91.38670498 172.96857325 93.1796875 176.40625 C94.40021457 178.74844525 95.3982933 180.99910861 96.3828125 183.46875 C100.4220989 192.15626045 105.55048773 194.85870785 114.3125 198.125 C139.34428966 206.71989891 163.88805323 205.60735598 189.9375 203.6875 C191.16660095 203.59949127 191.16660095 203.59949127 192.42053223 203.50970459 C208.10386806 202.36263224 223.34322191 200.79681645 237.9375 194.5625 C238.97455078 194.13364502 240.01160156 193.70479004 241.08007812 193.26293945 C262.9851623 184.18982314 262.9851623 184.18982314 283.95654297 173.19213867 C286 172 286 172 288.07861328 171.0559082 C290.28458736 169.89317952 291.52463751 169.02294256 293 167 C294.00316017 162.46129265 293.92955759 158.00708705 293.875 153.375 C293.90091298 150.76430832 293.92826049 148.1536305 293.95703125 145.54296875 C293.96041504 144.26341309 293.96379883 142.98385742 293.96728516 141.66552734 C294.011943 136.66184976 294.26171476 131.68131878 294.5625 126.6875 C294.64726994 125.17058043 294.73192132 123.65365422 294.81640625 122.13671875 C294.87699219 121.10160156 294.93757812 120.06648438 295 119 C294.26136719 119.29777344 293.52273438 119.59554687 292.76171875 119.90234375 C287.51156947 121.43431877 282.23682102 121.95117223 276.8125 122.5625 C274.65202538 122.81105018 272.49185137 123.06223149 270.33203125 123.31640625 C269.38046143 123.42412354 268.4288916 123.53184082 267.44848633 123.64282227 C264.86971076 123.94566629 264.86971076 123.94566629 262 125 C254.75222064 125.61784349 248.70803229 124.78259117 242 122 C240.08847458 113.42396702 242.67151367 104.52780232 247 97 C248.67802879 93.41021698 249.16930451 90.87817662 248.9375 86.9375 C248.8074777 78.17872474 250.12221794 70.07203464 256.33203125 63.6015625 C257.44944235 62.52863849 258.57191051 61.46095791 259.69921875 60.3984375 C264.11667052 55.89164401 266.2257107 51.37290995 268.4375 45.5625 C272.52905658 34.96346354 278.26484579 28.14273013 288.140625 22.25 C295.21160006 19.15886336 302.32703836 20.92446329 309.58203125 22.55078125 C314.17028046 23.40320235 318.79111116 23.46003305 323.36328125 22.5078125 C329.60515478 21.30567389 337.25502752 20.54927714 343 23.6875 C345.95877841 25.96822502 348.58472611 28.1455854 351 31 C351 31.99 351 32.98 351 34 C351.928125 34.12375 352.85625 34.2475 353.8125 34.375 C357 35 357 35 360 37 C361.42730185 37.30284597 362.86774929 37.54603519 364.3125 37.75 C376.98584686 40.16220365 386.2445521 45.44597463 394 55.625 C395.24504509 58.5819821 395.28250225 60.82184971 395 64 C394 66 394 66 391.75 67.125 C388.98386705 68.00513321 386.87951649 68.1645438 384 68 C383.67 68.99 383.34 69.98 383 71 C380.12890625 72.71875 380.12890625 72.71875 376.5625 74.5 C371.54482923 76.89564295 371.54482923 76.89564295 368 81 C366.2144654 81.92710451 364.42172307 82.84208859 362.6015625 83.69921875 C359.98213454 85.00893273 357.46419875 86.45218751 354.93945312 87.93481445 C339.49767935 97 339.49767935 97 334 97 C334.23146729 98.14645996 334.46293457 99.29291992 334.70141602 100.47412109 C337.52639006 114.50928483 340.2419656 128.56448186 342.9375 142.625 C343.56939832 145.91691952 344.20151111 149.2087978 344.83364868 152.50067139 C345.25290246 154.68489378 345.67182987 156.86917885 346.09042358 159.05352783 C347.18579708 164.76833941 348.28638537 170.48208082 349.39501953 176.19433594 C349.62258438 177.36958832 349.85014923 178.5448407 350.08460999 179.75570679 C350.51895816 181.99802195 350.95462042 184.24008312 351.39183044 186.48184204 C355.2049713 206.19254305 355.2049713 206.19254305 352 211 C349.87109375 211.4765625 349.87109375 211.4765625 347.4375 211.625 C344.41923553 211.60362942 344.41923553 211.60362942 342 213 C336.1589404 213.37086093 336.1589404 213.37086093 334 213 C331.56181064 209.34271595 331.3283308 206.06712105 330.875 201.8125 C330.78863281 201.06291016 330.70226562 200.31332031 330.61328125 199.54101562 C330.40161618 197.69482588 330.19984536 195.84750656 330 194 C329.71125 194.7425 329.4225 195.485 329.125 196.25 C328 199 328 199 327.046875 200.82421875 C325.49514402 204.04927158 324.40807147 207.43182505 323.25 210.8125 C316.5422857 230.01759383 308.05667507 247.66780125 297.96484375 265.30078125 C296.71774653 267.49708607 295.51540572 269.71675098 294.3125 271.9375 C292.19321583 275.77274437 289.80304827 279.38854847 287.3359375 283.0078125 C286.32997346 284.50793431 285.39612212 286.05678629 284.5 287.625 C280.388192 294.13536267 275.53053977 299.57321476 268 302 C261.53685406 302.20409935 256.37348334 298.69859688 251.1640625 295.2421875 C248.98223339 293.75108805 248.98223339 293.75108805 246 294 C244.11560181 295.82248027 244.11560181 295.82248027 242.1875 298.25 C236.86473553 304.37031224 230.88631148 309.48826383 224.64111328 314.64404297 C223.20946574 315.82693057 221.78926145 317.02364077 220.37109375 318.22265625 C199.22837686 335.74289776 199.22837686 335.74289776 186.9375 336.375 C182.49047898 335.95147419 179.76779901 335.43798759 176 333 C174.5452622 330.0905244 173.69774306 327.16974704 173 324 C172.04738281 324.30035156 171.09476563 324.60070312 170.11328125 324.91015625 C168.85902344 325.29042969 167.60476563 325.67070312 166.3125 326.0625 C165.07113281 326.44535156 163.82976563 326.82820313 162.55078125 327.22265625 C159.05994753 327.98687617 157.37887189 327.81366682 154 327 C154.09087891 327.60658447 154.18175781 328.21316895 154.27539062 328.83813477 C157.51038326 350.95013893 157.53874181 371.98248944 155.2734375 394.18017578 C155.00077103 396.99204876 154.77491939 399.80407821 154.5625 402.62109375 C153.75771005 412.87852397 152.37625617 422.24819212 149 432 C148.34 432 147.68 432 147 432 C146.87625 432.66 146.7525 433.32 146.625 434 C145.63892948 438.7331385 144.52938475 443.41184574 143 448 C143.9075 448.721875 144.815 449.44375 145.75 450.1875 C148.57928051 452.53971213 150.74224985 455.086774 153 458 C154.6565528 459.67671953 156.32503867 461.34166949 158 463 C158.98074334 464.00106192 159.95986659 465.00371321 160.9375 466.0078125 C161.9582866 467.04692091 162.97912041 468.08598295 164 469.125 C164.50789062 469.64964844 165.01578125 470.17429687 165.5390625 470.71484375 C168.43388154 473.64677585 171.15215671 476.36719808 175 478 C176.99883434 477.49258812 176.99883434 477.49258812 179 476 C180.7803464 475.02558008 182.56074647 474.05125754 184.34179688 473.078125 C185.64658896 472.36430416 186.94872893 471.64561214 188.24804688 470.921875 C194.63093948 467.45558277 201.61565657 464.62158923 209 466 C213.87498892 468.14890222 218.51301684 471.23328227 221 476 C222.11829931 483.29224343 221.1490866 489.86061551 217 496 C208.15230532 506.33210857 208.15230532 506.33210857 203 507 C203 507.66 203 508.32 203 509 C201.26953125 510.2265625 201.26953125 510.2265625 198.8125 511.625 C194.74673956 513.97194879 190.77123761 516.41429472 186.8125 518.9375 C161.22784744 534.67958622 161.22784744 534.67958622 150.3515625 533.78125 C148 533 148 533 146.60083008 531.54980469 C144.78722598 529.79400801 143.41595565 529.22016739 141.03515625 528.421875 C140.24463867 528.15149414 139.45412109 527.88111328 138.63964844 527.60253906 C137.78918945 527.32120117 136.93873047 527.03986328 136.0625 526.75 C134.25643641 526.13563417 132.45044907 525.52104417 130.64453125 524.90625 C129.71463379 524.59300781 128.78473633 524.27976562 127.82666016 523.95703125 C123.28958998 522.42090108 118.77024962 520.83479551 114.25 519.25 C113.44183838 518.96866211 112.63367676 518.68732422 111.80102539 518.39746094 C111.02621826 518.12708008 110.25141113 517.85669922 109.453125 517.578125 C108.70740234 517.31966797 107.96167969 517.06121094 107.19335938 516.79492188 C105.72365332 516.26226794 104.26599406 515.6952065 102.82226562 515.09570312 C98.66813332 513.38197783 96.30596413 512.77286662 92 514 C89.82420933 515.02920574 89.82420933 515.02920574 87.734375 516.31640625 C68.60584946 527.31412376 47.31716283 532.40142673 25.8125 536.3125 C24.74585114 536.50649384 24.74585114 536.50649384 23.65765381 536.70440674 C-0.20153169 540.99948777 -26.00356499 542.2939657 -50 538 C-51.23508301 537.77924805 -52.47016602 537.55849609 -53.74267578 537.33105469 C-92.24795088 530.32200252 -92.24795088 530.32200252 -109.03857422 520.66088867 C-113.07231548 519.30174782 -116.74430345 521.18587097 -120.40625 522.92578125 C-121.22512695 523.30822998 -122.04400391 523.69067871 -122.88769531 524.0847168 C-123.74975586 524.48988525 -124.61181641 524.89505371 -125.5 525.3125 C-133.22632119 528.84877777 -140.7590714 531.86119968 -149 534 C-150.22783203 534.33378662 -150.22783203 534.33378662 -151.48046875 534.67431641 C-165.14386558 538.38164499 -178.78624419 541.16005977 -192.7890625 543.23828125 C-193.70284668 543.37790283 -194.61663086 543.51752441 -195.55810547 543.66137695 C-197.5449685 543.93689975 -199.54596344 544.10896659 -201.546875 544.25 C-204.24613157 544.77900124 -204.24613157 544.77900124 -205.5390625 547.51171875 C-205.89742188 548.55972656 -206.25578125 549.60773437 -206.625 550.6875 C-209.54612442 558.52988181 -212.45197446 564.30497922 -220.33203125 568.1328125 C-225.01374918 570.14026577 -228.82311173 571.65494953 -234 571 C-243.02801292 562.97098851 -247.86194364 547.70064199 -249 536 C-249.0825 535.19304688 -249.165 534.38609375 -249.25 533.5546875 C-249.84368279 522.01497821 -245.3726626 511.66463395 -238 503 C-230.88987134 495.19393705 -223.89141887 487.84458135 -213.578125 484.8515625 C-207.5038345 482.84520594 -201.71633123 479.85816562 -196 477 C-197.34391532 473.54139441 -198.82546886 470.1632737 -200.36035156 466.78564453 C-206.02752959 454.21645331 -210.08013783 441.19960569 -214 428 C-214.7281189 428.54188965 -214.7281189 428.54188965 -215.47094727 429.09472656 C-227.81068648 438.19821354 -240.40709232 445.84577215 -254.16699219 452.60498047 C-256.90749876 453.95445087 -259.62989135 455.33567976 -262.3515625 456.72265625 C-274.55875416 462.84962004 -286.89526591 467.21739969 -300 471 C-301.85820929 471.55553362 -303.71628111 472.11152728 -305.57421875 472.66796875 C-318.64613736 476.51180628 -331.85216345 479.69001527 -345.125 482.75 C-345.95144012 482.94068054 -346.77788025 483.13136108 -347.62936401 483.32781982 C-395.61981194 494.36099834 -395.61981194 494.36099834 -406 489 C-408.31085829 486.18949668 -409.84055509 484.15235184 -410.34375 480.515625 C-410 478 -410 478 -408.41796875 476.19140625 C-402.54428565 471.90186886 -396.47881652 468.30601292 -390 465 C-390.8189978 464.85921021 -390.8189978 464.85921021 -391.65454102 464.71557617 C-403.16274973 462.64546194 -413.69194008 459.72016585 -424.25 454.625 C-425.17627197 454.17922607 -426.10254395 453.73345215 -427.05688477 453.27416992 C-436.09224145 448.73735405 -444.19172241 442.99770899 -451.8125 436.375 C-452.39870117 435.86702881 -452.98490234 435.35905762 -453.58886719 434.83569336 C-469.17248805 421.16764627 -488.25843876 403.32408584 -492 382 C-491.86408635 376.92112155 -490.57692593 373.52681801 -486.91015625 369.9765625 C-482.62338337 366.98327085 -479.23490661 365.46530059 -474 366.375 C-468.86195586 367.84301261 -463.89074461 369.85639704 -459 372 C-459.50789063 371.1028125 -460.01578125 370.205625 -460.5390625 369.28125 C-469.63368933 352.90737518 -477.83209043 334.8286446 -473.47119141 315.67773438 C-470.07849538 304.57795976 -470.07849538 304.57795976 -466.0859375 301.546875 C-461.72551114 300.40369206 -457.94902481 302.13995208 -454 304 C-445.69658217 309.62182224 -439.69883293 318.04528811 -433.46875 325.76171875 C-428.89148037 331.40608968 -424.02743425 336.75332426 -419 342 C-418.47156494 342.55179932 -417.94312988 343.10359863 -417.39868164 343.67211914 C-413.29243288 347.87892909 -408.98479492 351.62343125 -404.3125 355.1875 C-403.58699951 355.74139404 -402.86149902 356.29528809 -402.11401367 356.8659668 C-394.215305 362.76884179 -385.82725206 367.77561166 -377.28613281 372.68359375 C-374.70797927 374.16815205 -372.14927967 375.68345053 -369.59521484 377.20898438 C-355.74719323 385.21935777 -341.30270724 390.90914748 -326.25 396.1875 C-324.53230682 396.79553154 -322.81485767 397.40425291 -321.09765625 398.01367188 C-317.8303399 399.17271897 -314.56148516 400.32725525 -311.29150391 401.47875977 C-307.77918241 402.71857481 -304.28190473 403.99525027 -300.7890625 405.2890625 C-278.52864974 413.41290803 -254.82962446 414.2086157 -232.9296875 404.03857422 C-229.3317387 402.29124882 -225.77849583 400.47035293 -222.23828125 398.609375 C-219 397 -219 397 -217 397 C-217.10393066 396.12214844 -217.10393066 396.12214844 -217.20996094 395.2265625 C-218.16675137 386.1557806 -218.24336969 377.11128856 -218.25 368 C-218.25067474 367.16230072 -218.25134949 366.32460144 -218.25204468 365.46151733 C-218.208862 331.49854494 -211.79188967 298.7138964 -203 266 C-202.72430176 264.97310059 -202.44860352 263.94620117 -202.16455078 262.88818359 C-198.23148466 248.43716299 -193.40736798 234.37620886 -188.28125 220.30859375 C-186.55306246 215.56374337 -184.91998722 210.80720686 -183.375 206 C-180.65667502 197.71149332 -177.34251998 189.67210542 -174.05273438 181.59814453 C-173.00684968 179.01690498 -171.97713152 176.42983336 -170.953125 173.83984375 C-159.67869417 145.33385709 -159.67869417 145.33385709 -153.1640625 134.4296875 C-151.84778264 132.02310802 -151.84778264 132.02310802 -151.68359375 129.203125 C-150.70475207 124.61655257 -148.21017129 121.58979227 -145.4375 117.875 C-144.3386248 116.36286423 -143.24097271 114.84983889 -142.14453125 113.3359375 C-141.60650879 112.59827148 -141.06848633 111.86060547 -140.51416016 111.10058594 C-138.47926025 108.27758065 -136.54591223 105.40188295 -134.625 102.5 C-134.00625 101.56671875 -133.3875 100.6334375 -132.75 99.671875 C-131.57376782 97.87602052 -130.40722355 96.0737868 -129.25 94.265625 C-128.71375 93.43546875 -128.1775 92.6053125 -127.625 91.75 C-126.93277344 90.65945312 -126.93277344 90.65945312 -126.2265625 89.546875 C-125.82179688 89.03640625 -125.41703125 88.5259375 -125 88 C-124.34 88 -123.68 88 -123 88 C-122.6596875 87.2265625 -122.6596875 87.2265625 -122.3125 86.4375 C-119.58696453 81.37579127 -116.22405689 76.91116379 -112 73 C-112.86625 72.649375 -113.7325 72.29875 -114.625 71.9375 C-119.37804946 69.20889753 -122.7818655 66.1188951 -124.80859375 60.9296875 C-126.02215622 54.93705158 -123.96024066 50.72966645 -120.859375 45.64453125 C-114.55136351 36.67284264 -107.30934733 32.43644911 -97 29 C-89.93950178 28.31672598 -89.93950178 28.31672598 -86.25 31 C-81.85108821 36.86521572 -79.88270014 41.67358881 -79 49 C-78.44650879 48.68772461 -77.89301758 48.37544922 -77.32275391 48.05371094 C-74.76034871 46.6127913 -72.19274479 45.18138114 -69.625 43.75 C-68.31982422 43.01330078 -68.31982422 43.01330078 -66.98828125 42.26171875 C-61.83836612 39.40065479 -56.71178734 36.94647647 -51.19238281 34.88037109 C-49.05689864 34.02284816 -47.11987306 33.01744317 -45.125 31.875 C-40.08660681 29.2417657 -34.57830302 28.70658505 -29 28 C-28.80178199 24.9597913 -28.80178199 24.9597913 -30.1875 22.25 C-31.29664414 17.81342343 -30.21696321 15.93332182 -28 12 C-21.81132668 4.75041125 -9.90457591 -5.94274554 0 0 Z M312 108 C311.77150533 128.52621832 311.77150533 128.52621832 313 149 C313.18764801 151.12498694 313.37515622 153.24998622 313.5625 155.375 C313.706905 156.91680111 313.85214433 158.45852597 314 160 C316.31 160.33 318.62 160.66 321 161 C320.36716257 149.46002328 318.94990002 138.07587839 317.4375 126.625 C317.20080293 124.80994391 316.96447238 122.99483998 316.72851562 121.1796875 C316.15655816 116.78589665 315.57967815 112.39277863 315 108 C314.01 108 313.02 108 312 108 Z " fill="#FEBC48" transform="translate(495,12)"/>
<path d="M0 0 C4.64103153 3.9764178 6.65134827 7.63131237 7.28515625 13.69140625 C6.89600914 16.84189861 5.45218908 19.20206628 4 22 C4.78383057 21.97905273 5.56766113 21.95810547 6.37524414 21.93652344 C89.44532013 20.05708304 89.44532013 20.05708304 121 33 C122.53280581 33.41687871 124.07530112 33.79956089 125.625 34.1484375 C126.48923584 34.34663086 127.35347168 34.54482422 128.24389648 34.74902344 C129.15341064 34.9555957 130.0629248 35.16216797 131 35.375 C143.1609567 38.22860551 154.66057075 41.7576511 166.25 46.4375 C167.17353271 46.80907227 168.09706543 47.18064453 169.04858398 47.56347656 C181.53162826 52.7096898 198.33618876 60.78444044 204 74 C205.08490292 78.97778988 205.82134937 83.53286349 203 88 C199.10149776 93.01981058 193.99737787 96.61074492 188.8125 100.1875 C188.22573486 100.60346436 187.63896973 101.01942871 187.03442383 101.44799805 C177.75896111 107.64031431 166.77723631 109.76251053 155.9375 111.5625 C154.68106689 111.77302002 153.42463379 111.98354004 152.13012695 112.20043945 C138.59049321 114.35630238 124.93883681 115.2039433 111.26342773 116.01196289 C90.62428088 117.05012484 90.62428088 117.05012484 70.4375 121.125 C69.19871094 121.47820312 67.95992187 121.83140625 66.68359375 122.1953125 C65.35521484 122.59363281 65.35521484 122.59363281 64 123 C64 126.5107307 66.58389587 129.30111078 68.4375 132.1875 C69.35777405 133.64129251 70.27702175 135.09573517 71.1953125 136.55078125 C71.66356445 137.29150879 72.13181641 138.03223633 72.61425781 138.79541016 C78.17826811 147.64724473 83.49283235 156.55641063 88 166 C89.68370831 169.4927547 91.38670498 172.96857325 93.1796875 176.40625 C94.40021457 178.74844525 95.3982933 180.99910861 96.3828125 183.46875 C100.4220989 192.15626045 105.55048773 194.85870785 114.3125 198.125 C139.34428966 206.71989891 163.88805323 205.60735598 189.9375 203.6875 C190.75690063 203.62882751 191.57630127 203.57015503 192.42053223 203.50970459 C208.10386806 202.36263224 223.34322191 200.79681645 237.9375 194.5625 C238.97455078 194.13364502 240.01160156 193.70479004 241.08007812 193.26293945 C262.9851623 184.18982314 262.9851623 184.18982314 283.95654297 173.19213867 C286 172 286 172 288.07861328 171.0559082 C290.28458736 169.89317952 291.52463751 169.02294256 293 167 C294.00316017 162.46129265 293.92955759 158.00708705 293.875 153.375 C293.90091298 150.76430832 293.92826049 148.1536305 293.95703125 145.54296875 C293.96041504 144.26341309 293.96379883 142.98385742 293.96728516 141.66552734 C294.011943 136.66184976 294.26171476 131.68131878 294.5625 126.6875 C294.64726994 125.17058043 294.73192132 123.65365422 294.81640625 122.13671875 C294.87699219 121.10160156 294.93757813 120.06648438 295 119 C294.26136719 119.29777344 293.52273438 119.59554687 292.76171875 119.90234375 C287.51156947 121.43431877 282.23682102 121.95117223 276.8125 122.5625 C274.65202538 122.81105018 272.49185137 123.06223149 270.33203125 123.31640625 C269.38046143 123.42412354 268.4288916 123.53184082 267.44848633 123.64282227 C264.86971076 123.94566629 264.86971076 123.94566629 262 125 C254.75222064 125.61784349 248.70803229 124.78259117 242 122 C240.08847458 113.42396702 242.67151367 104.52780232 247 97 C248.67802879 93.41021698 249.16930451 90.87817662 248.9375 86.9375 C248.8074777 78.17872474 250.12221794 70.07203464 256.33203125 63.6015625 C257.44944235 62.52863849 258.57191051 61.46095791 259.69921875 60.3984375 C264.11667052 55.89164401 266.2257107 51.37290995 268.4375 45.5625 C272.52905658 34.96346354 278.26484579 28.14273013 288.140625 22.25 C295.21160006 19.15886336 302.32703836 20.92446329 309.58203125 22.55078125 C314.17028046 23.40320235 318.79111116 23.46003305 323.36328125 22.5078125 C329.60515478 21.30567389 337.25502752 20.54927714 343 23.6875 C345.95877841 25.96822502 348.58472611 28.1455854 351 31 C351 31.99 351 32.98 351 34 C351.928125 34.12375 352.85625 34.2475 353.8125 34.375 C357 35 357 35 360 37 C361.42730185 37.30284597 362.86774929 37.54603519 364.3125 37.75 C376.98584686 40.16220365 386.2445521 45.44597463 394 55.625 C395.24504509 58.5819821 395.28250225 60.82184971 395 64 C394 66 394 66 391.75 67.125 C388.98386705 68.00513321 386.87951649 68.1645438 384 68 C383.67 68.99 383.34 69.98 383 71 C380.12890625 72.71875 380.12890625 72.71875 376.5625 74.5 C371.54482923 76.89564295 371.54482923 76.89564295 368 81 C366.2144654 81.92710451 364.42172307 82.84208859 362.6015625 83.69921875 C359.98213454 85.00893273 357.46419875 86.45218751 354.93945312 87.93481445 C339.49767935 97 339.49767935 97 334 97 C334.23146729 98.14645996 334.46293457 99.29291992 334.70141602 100.47412109 C337.52639006 114.50928483 340.2419656 128.56448186 342.9375 142.625 C343.56939832 145.91691952 344.20151111 149.2087978 344.83364868 152.50067139 C345.25290246 154.68489378 345.67182987 156.86917885 346.09042358 159.05352783 C347.18579708 164.76833941 348.28638537 170.48208082 349.39501953 176.19433594 C349.62258438 177.36958832 349.85014923 178.5448407 350.08460999 179.75570679 C350.51895816 181.99802195 350.95462042 184.24008312 351.39183044 186.48184204 C355.2049713 206.19254305 355.2049713 206.19254305 352 211 C349.87109375 211.4765625 349.87109375 211.4765625 347.4375 211.625 C344.41923553 211.60362942 344.41923553 211.60362942 342 213 C336.1589404 213.37086093 336.1589404 213.37086093 334 213 C331.56181064 209.34271595 331.3283308 206.06712105 330.875 201.8125 C330.78863281 201.06291016 330.70226562 200.31332031 330.61328125 199.54101562 C330.40161618 197.69482588 330.19984536 195.84750656 330 194 C329.71125 194.7425 329.4225 195.485 329.125 196.25 C328 199 328 199 327.046875 200.82421875 C325.49514402 204.04927158 324.40807147 207.43182505 323.25 210.8125 C316.5422857 230.01759383 308.05667507 247.66780125 297.96484375 265.30078125 C296.71774653 267.49708607 295.51540572 269.71675098 294.3125 271.9375 C292.19321583 275.77274437 289.80304827 279.38854847 287.3359375 283.0078125 C286.32997346 284.50793431 285.39612212 286.05678629 284.5 287.625 C280.388192 294.13536267 275.53053977 299.57321476 268 302 C261.53685406 302.20409935 256.37348334 298.69859688 251.1640625 295.2421875 C248.98223339 293.75108805 248.98223339 293.75108805 246 294 C244.11560181 295.82248027 244.11560181 295.82248027 242.1875 298.25 C236.86473553 304.37031224 230.88631148 309.48826383 224.64111328 314.64404297 C223.20946574 315.82693057 221.78926145 317.02364077 220.37109375 318.22265625 C199.22837686 335.74289776 199.22837686 335.74289776 186.9375 336.375 C182.49047898 335.95147419 179.76779901 335.43798759 176 333 C174.5452622 330.0905244 173.69774306 327.16974704 173 324 C172.04738281 324.30035156 171.09476563 324.60070312 170.11328125 324.91015625 C168.85902344 325.29042969 167.60476563 325.67070312 166.3125 326.0625 C165.07113281 326.44535156 163.82976562 326.82820313 162.55078125 327.22265625 C159.1468214 327.96785758 157.28440924 327.99851065 154 327 C154.33 330.3 154.66 333.6 155 337 C153.68 337 152.36 337 151 337 C149.45472357 333.46793958 148.45286154 329.94425272 147.55688477 326.19897461 C146.99497617 323.98016235 146.33675105 321.81284971 145.65234375 319.62890625 C144.40872589 315.52252146 143.34242607 311.3991768 142.34375 307.2265625 C136.8879781 284.56929094 129.60214878 263.05157573 118.70703125 242.34375 C117.05755864 239.11274645 115.65847229 235.86701426 114.3125 232.5 C112.61536424 228.27716052 110.64346859 224.59616747 108.12890625 220.8125 C106.38675832 218.0154182 105.25323365 215.04356743 104 212 C103.34 211.01 102.68 210.02 102 209 C101.28457031 209.59167969 100.56914063 210.18335938 99.83203125 210.79296875 C90.67254672 218.05657033 82.01099582 223.0870362 70 223 C67.43177171 223.29843308 64.88304546 223.68268185 62.32641602 224.06762695 C49.79034007 225.94385365 37.65285613 226.47789159 25 226 C24.13552246 225.97873047 23.27104492 225.95746094 22.38037109 225.93554688 C-7.5227945 225.06571771 -38.9057776 216.97107945 -67 207 C-67.92119629 206.68111816 -68.84239258 206.36223633 -69.79150391 206.03369141 C-85.27184317 200.58103647 -99.88987209 193.29656106 -114.5625 186 C-115.50462341 185.53350037 -116.44674683 185.06700073 -117.41741943 184.58636475 C-131.70569015 177.48753313 -146.05012505 170.13113468 -158.51953125 160.05859375 C-160.14095464 158.78936915 -160.14095464 158.78936915 -163 158 C-162.46126521 152.25039941 -160.16547554 147.77247082 -157.625 142.6875 C-155.26391353 137.93866963 -153.0267555 133.32429308 -151.46484375 128.24609375 C-150.22807609 124.34882762 -148.53738253 121.5741295 -145.9375 118.375 C-142.35214315 113.80279412 -139.01149876 109.16286888 -135.8125 104.3125 C-135.39218506 103.67803955 -134.97187012 103.0435791 -134.53881836 102.38989258 C-132.70931747 99.62020645 -130.89786025 96.84078835 -129.10546875 94.046875 C-128.57566406 93.22703125 -128.04585938 92.4071875 -127.5 91.5625 C-127.0565625 90.86253906 -126.613125 90.16257812 -126.15625 89.44140625 C-125.7746875 88.96574219 -125.393125 88.49007812 -125 88 C-124.34 88 -123.68 88 -123 88 C-122.773125 87.484375 -122.54625 86.96875 -122.3125 86.4375 C-119.58696453 81.37579127 -116.22405689 76.91116379 -112 73 C-112.86625 72.649375 -113.7325 72.29875 -114.625 71.9375 C-119.37804946 69.20889753 -122.7818655 66.1188951 -124.80859375 60.9296875 C-126.02215622 54.93705158 -123.96024066 50.72966645 -120.859375 45.64453125 C-114.55136351 36.67284264 -107.30934733 32.43644911 -97 29 C-89.93950178 28.31672598 -89.93950178 28.31672598 -86.25 31 C-81.85108821 36.86521572 -79.88270014 41.67358881 -79 49 C-78.44650879 48.68772461 -77.89301758 48.37544922 -77.32275391 48.05371094 C-74.76034871 46.6127913 -72.19274479 45.18138114 -69.625 43.75 C-68.31982422 43.01330078 -68.31982422 43.01330078 -66.98828125 42.26171875 C-61.83836612 39.40065479 -56.71178734 36.94647647 -51.19238281 34.88037109 C-49.05689864 34.02284816 -47.11987306 33.01744317 -45.125 31.875 C-40.08660681 29.2417657 -34.57830302 28.70658505 -29 28 C-28.80178199 24.9597913 -28.80178199 24.9597913 -30.1875 22.25 C-31.29664414 17.81342343 -30.21696321 15.93332182 -28 12 C-21.81132668 4.75041125 -9.90457591 -5.94274554 0 0 Z M312 108 C311.77150533 128.52621832 311.77150533 128.52621832 313 149 C313.18764801 151.12498694 313.37515622 153.24998622 313.5625 155.375 C313.706905 156.91680111 313.85214433 158.45852597 314 160 C316.31 160.33 318.62 160.66 321 161 C320.36716257 149.46002328 318.94990002 138.07587839 317.4375 126.625 C317.20080293 124.80994391 316.96447238 122.99483998 316.72851562 121.1796875 C316.15655816 116.78589665 315.57967815 112.39277863 315 108 C314.01 108 313.02 108 312 108 Z " fill="#FEBC48" transform="translate(495,12)"/>
<path d="M0 0 C4.64103153 3.9764178 6.65134827 7.63131237 7.28515625 13.69140625 C6.89600914 16.84189861 5.45218908 19.20206628 4 22 C4.78383057 21.97905273 5.56766113 21.95810547 6.37524414 21.93652344 C89.44532013 20.05708304 89.44532013 20.05708304 121 33 C122.53280581 33.41687871 124.07530112 33.79956089 125.625 34.1484375 C126.48923584 34.34663086 127.35347168 34.54482422 128.24389648 34.74902344 C129.15341064 34.9555957 130.0629248 35.16216797 131 35.375 C143.1609567 38.22860551 154.66057075 41.7576511 166.25 46.4375 C167.17353271 46.80907227 168.09706543 47.18064453 169.04858398 47.56347656 C181.53162826 52.7096898 198.33618876 60.78444044 204 74 C205.08490292 78.97778988 205.82134937 83.53286349 203 88 C199.10149776 93.01981058 193.99737787 96.61074492 188.8125 100.1875 C188.22573486 100.60346436 187.63896973 101.01942871 187.03442383 101.44799805 C177.75896111 107.64031431 166.77723631 109.76251053 155.9375 111.5625 C154.68106689 111.77302002 153.42463379 111.98354004 152.13012695 112.20043945 C138.59049321 114.35630238 124.93883681 115.2039433 111.26342773 116.01196289 C97.28376026 116.83965916 83.44910705 118.13805416 69.625 120.4375 C68.02478937 120.69822241 66.42452737 120.95862973 64.82421875 121.21875 C64.02806152 121.34894531 63.2319043 121.47914063 62.41162109 121.61328125 C60.0122707 121.99803231 57.61065031 122.36171375 55.20703125 122.71875 C33.38547377 125.43090532 33.38547377 125.43090532 13 133 C12.67 133.66 12.34 134.32 12 135 C10.35758471 135.73043148 8.71113367 136.45308909 7.04589844 137.12988281 C3.45896727 138.65539864 0.05785817 140.53431503 -3.375 142.375 C-4.12523437 142.77348145 -4.87546875 143.17196289 -5.6484375 143.58251953 C-9.47044446 145.61876673 -13.25276721 147.70345874 -17 149.875 C-23.36835919 153.44029762 -29.77173702 155.13260844 -37 156 C-37.99 156.33 -38.98 156.66 -40 157 C-42.09996176 157.35887197 -44.20493894 157.68884912 -46.3125 158 C-51.11529258 158.70946378 -51.11529258 158.70946378 -55.890625 159.578125 C-59.80323238 160.10898128 -63.50565204 159.97944471 -67.4375 159.75 C-68.16259766 159.72292969 -68.88769531 159.69585937 -69.63476562 159.66796875 C-75.83230221 159.32273311 -80.34561462 157.60497721 -85.6875 154.375 C-87.84697204 153.0909896 -89.54870286 152.45394391 -92 152 C-91.1216227 156.56756196 -90.614517 158.52067674 -86.875 161.4375 C-85.92625 161.953125 -84.9775 162.46875 -84 163 C-87.48922129 164.16307376 -88.17763 163.82010804 -91.5078125 162.55859375 C-92.40363037 162.22529053 -93.29944824 161.8919873 -94.22241211 161.54858398 C-95.18026611 161.18192627 -96.13812012 160.81526855 -97.125 160.4375 C-99.12855276 159.68655619 -101.13246292 158.93656531 -103.13671875 158.1875 C-104.13106934 157.81367188 -105.12541992 157.43984375 -106.14990234 157.0546875 C-109.36923602 155.86336306 -112.60925603 154.74752393 -115.85961914 153.64453125 C-122.6354561 151.33894744 -129.07733293 148.67485939 -135.515625 145.55029297 C-141.83538106 142.51469893 -148.35448138 140.22199929 -155 138 C-154.525625 137.13375 -154.05125 136.2675 -153.5625 135.375 C-151.87079259 132.17886664 -151.87079259 132.17886664 -151.66015625 129.1328125 C-150.70143724 124.58315186 -148.18595964 121.55735379 -145.4375 117.875 C-144.3386248 116.36286423 -143.24097271 114.84983889 -142.14453125 113.3359375 C-141.60650879 112.59827148 -141.06848633 111.86060547 -140.51416016 111.10058594 C-138.47926025 108.27758065 -136.54591223 105.40188295 -134.625 102.5 C-134.00625 101.56671875 -133.3875 100.6334375 -132.75 99.671875 C-131.57376782 97.87602052 -130.40722355 96.0737868 -129.25 94.265625 C-128.71375 93.43546875 -128.1775 92.6053125 -127.625 91.75 C-127.16351563 91.02296875 -126.70203125 90.2959375 -126.2265625 89.546875 C-125.82179688 89.03640625 -125.41703125 88.5259375 -125 88 C-124.34 88 -123.68 88 -123 88 C-122.773125 87.484375 -122.54625 86.96875 -122.3125 86.4375 C-119.58696453 81.37579127 -116.22405689 76.91116379 -112 73 C-112.86625 72.649375 -113.7325 72.29875 -114.625 71.9375 C-119.37804946 69.20889753 -122.7818655 66.1188951 -124.80859375 60.9296875 C-126.02215622 54.93705158 -123.96024066 50.72966645 -120.859375 45.64453125 C-114.55136351 36.67284264 -107.30934733 32.43644911 -97 29 C-89.93950178 28.31672598 -89.93950178 28.31672598 -86.25 31 C-81.85108821 36.86521572 -79.88270014 41.67358881 -79 49 C-78.44650879 48.68772461 -77.89301758 48.37544922 -77.32275391 48.05371094 C-74.76034871 46.6127913 -72.19274479 45.18138114 -69.625 43.75 C-68.31982422 43.01330078 -68.31982422 43.01330078 -66.98828125 42.26171875 C-61.83836612 39.40065479 -56.71178734 36.94647647 -51.19238281 34.88037109 C-49.05689864 34.02284816 -47.11987306 33.01744317 -45.125 31.875 C-40.08660681 29.2417657 -34.57830302 28.70658505 -29 28 C-28.80178199 24.9597913 -28.80178199 24.9597913 -30.1875 22.25 C-31.29664414 17.81342343 -30.21696321 15.93332182 -28 12 C-21.81132668 4.75041125 -9.90457591 -5.94274554 0 0 Z " fill="#FEBC48" transform="translate(495,12)"/>
<path d="M0 0 C-2.93823196 1.52352768 -5.92254092 2.78534783 -9 4 C-8.47998413 4.79096069 -8.47998413 4.79096069 -7.94946289 5.59790039 C11.79833191 35.68153885 11.79833191 35.68153885 17.4140625 49.47265625 C19.44297914 53.98524671 21.93102991 58.09515515 24.52319336 62.30004883 C27.33275644 66.86283641 30.00745221 71.47709925 32.5625 76.1875 C32.90909668 76.81132568 33.25569336 77.43515137 33.61279297 78.07788086 C35.40293263 81.41480018 36 83.11000379 36 87 C36.66 87 37.32 87 38 87 C38.33 88.65 38.66 90.3 39 92 C39.99 92.33 40.98 92.66 42 93 C43.32356 95.19905514 44.46154216 97.31890766 45.5625 99.625 C46.01786133 100.53185547 46.01786133 100.53185547 46.48242188 101.45703125 C48.68949462 105.96734548 51 110.89835461 51 116 C51.66 116 52.32 116 53 116 C61.10740532 132.6460556 68.58807826 149.0969163 72.45385742 167.28613281 C72.63150635 168.12112305 72.80915527 168.95611328 72.9921875 169.81640625 C73.14026855 170.55318604 73.28834961 171.28996582 73.44091797 172.04907227 C73.97792182 174.29623795 73.97792182 174.29623795 76 177 C76.50244141 178.92944336 76.50244141 178.92944336 76.8515625 181.08984375 C77.04492188 182.26643555 77.04492188 182.26643555 77.2421875 183.46679688 C77.43167969 184.68979492 77.43167969 184.68979492 77.625 185.9375 C77.7590625 186.74896484 77.893125 187.56042969 78.03125 188.39648438 C78.61434446 192.02297492 79 195.30557372 79 199 C79.99 199.33 80.98 199.66 82 200 C81.34 200.33 80.68 200.66 80 201 C80.2165625 201.98742187 80.433125 202.97484375 80.65625 203.9921875 C81.07390625 205.91417969 81.07390625 205.91417969 81.5 207.875 C81.91765625 209.78925781 81.91765625 209.78925781 82.34375 211.7421875 C83 215 83 215 83 217 C81.68 217 80.36 217 79 217 C77.45472357 213.46793958 76.45286154 209.94425272 75.55688477 206.19897461 C74.99497617 203.98016235 74.33675105 201.81284971 73.65234375 199.62890625 C72.40872589 195.52252146 71.34242607 191.3991768 70.34375 187.2265625 C64.8879781 164.56929094 57.60214878 143.05157573 46.70703125 122.34375 C45.05755864 119.11274645 43.65847229 115.86701426 42.3125 112.5 C40.61536424 108.27716052 38.64346859 104.59616747 36.12890625 100.8125 C34.38675832 98.0154182 33.25323365 95.04356743 32 92 C31.34 91.01 30.68 90.02 30 89 C29.28457031 89.59167969 28.56914063 90.18335938 27.83203125 90.79296875 C18.67254672 98.05657033 10.01099582 103.0870362 -2 103 C-4.56822829 103.29843308 -7.11695454 103.68268185 -9.67358398 104.06762695 C-22.20965993 105.94385365 -34.34714387 106.47789159 -47 106 C-47.86447754 105.97873047 -48.72895508 105.95746094 -49.61962891 105.93554688 C-79.5227945 105.06571771 -110.9057776 96.97107945 -139 87 C-139.92119629 86.68111816 -140.84239258 86.36223633 -141.79150391 86.03369141 C-157.27184317 80.58103647 -171.88987209 73.29656106 -186.5625 66 C-187.50462341 65.53350037 -188.44674683 65.06700073 -189.41741943 64.58636475 C-203.70569015 57.48753313 -218.05012505 50.13113468 -230.51953125 40.05859375 C-232.14095464 38.78936915 -232.14095464 38.78936915 -235 38 C-234.45318976 32.99399078 -232.75859667 29.02818933 -230.4375 24.625 C-230.10814453 23.98433594 -229.77878906 23.34367187 -229.43945312 22.68359375 C-228.63360518 21.11861368 -227.81781507 19.55875979 -227 18 C-220.67270663 18.51792306 -215.57346259 20.6704104 -209.8125 23.25 C-207.92848973 24.07445716 -206.04437592 24.89867777 -204.16015625 25.72265625 C-203.26312988 26.11855957 -202.36610352 26.51446289 -201.44189453 26.92236328 C-187.27088061 33.17619806 -172.71147089 38.18121377 -158 43 C-158.804375 42.484375 -159.60875 41.96875 -160.4375 41.4375 C-163.66447078 38.36794243 -163.74896257 36.35131541 -164 32 C-158.95069268 32.48088641 -156.12169785 34.13273193 -152 37 C-139.39223875 40.9697672 -124.50490915 39.13186013 -112 36 C-110.82050781 35.72542969 -109.64101563 35.45085937 -108.42578125 35.16796875 C-95.99837075 32.23791659 -85.92887291 27.53717815 -74.8671875 21.21875 C-74.22362305 20.85265625 -73.58005859 20.4865625 -72.91699219 20.109375 C-71.63180759 19.36563088 -70.35631493 18.60489919 -69.09082031 17.828125 C-65.67749623 15.76230926 -64.10109296 15 -60 15 C-59.67 14.01 -59.34 13.02 -59 12 C-43.97358175 3.02468274 -17.26187082 -0.80287771 0 0 Z " fill="#CF7426" transform="translate(567,132)"/>
<path d="M0 0 C4.58824921 0.8524211 9.20907991 0.9092518 13.78125 -0.04296875 C20.02312353 -1.24510736 27.67299627 -2.00150411 33.41796875 1.13671875 C36.37674716 3.41744377 39.00269486 5.59480415 41.41796875 8.44921875 C41.41796875 9.43921875 41.41796875 10.42921875 41.41796875 11.44921875 C42.34609375 11.57296875 43.27421875 11.69671875 44.23046875 11.82421875 C47.41796875 12.44921875 47.41796875 12.44921875 50.41796875 14.44921875 C51.8452706 14.75206472 53.28571804 14.99525394 54.73046875 15.19921875 C67.40381561 17.6114224 76.66252085 22.89519338 84.41796875 33.07421875 C85.66301384 36.03120085 85.700471 38.27106846 85.41796875 41.44921875 C84.41796875 43.44921875 84.41796875 43.44921875 82.16796875 44.57421875 C79.4018358 45.45435196 77.29748524 45.61376255 74.41796875 45.44921875 C74.08796875 46.43921875 73.75796875 47.42921875 73.41796875 48.44921875 C70.546875 50.16796875 70.546875 50.16796875 66.98046875 51.94921875 C61.96279798 54.3448617 61.96279798 54.3448617 58.41796875 58.44921875 C56.63243415 59.37632326 54.83969182 60.29130734 53.01953125 61.1484375 C50.40010329 62.45815148 47.8821675 63.90140626 45.35742188 65.3840332 C29.9156481 74.44921875 29.9156481 74.44921875 24.41796875 74.44921875 C24.64943604 75.59567871 24.88090332 76.74213867 25.11938477 77.92333984 C27.94435881 91.95850358 30.65993435 106.01370061 33.35546875 120.07421875 C33.98736707 123.36613827 34.61947986 126.65801655 35.25161743 129.94989014 C35.67087121 132.13411253 36.08979862 134.3183976 36.50839233 136.50274658 C37.60376583 142.21755816 38.70435412 147.93129957 39.81298828 153.64355469 C40.04055313 154.81880707 40.26811798 155.99405945 40.50257874 157.20492554 C40.93692691 159.4472407 41.37258917 161.68930187 41.80979919 163.93106079 C45.62294005 183.6417618 45.62294005 183.6417618 42.41796875 188.44921875 C40.2890625 188.92578125 40.2890625 188.92578125 37.85546875 189.07421875 C34.83720428 189.05284817 34.83720428 189.05284817 32.41796875 190.44921875 C26.57690915 190.82007968 26.57690915 190.82007968 24.41796875 190.44921875 C21.97977939 186.7919347 21.74629955 183.5163398 21.29296875 179.26171875 C21.20660156 178.51212891 21.12023437 177.76253906 21.03125 176.99023438 C20.81958493 175.14404463 20.61781411 173.29672531 20.41796875 171.44921875 C19.75796875 171.77921875 19.09796875 172.10921875 18.41796875 172.44921875 C14.7093148 161.28181943 12.05070616 149.90812708 9.41796875 138.44921875 C10.07796875 138.44921875 10.73796875 138.44921875 11.41796875 138.44921875 C11.23621094 137.16345947 11.05445313 135.8777002 10.8671875 134.55297852 C10.19005727 129.75110452 9.52108833 124.94812208 8.85449219 120.14477539 C8.56567868 118.07187623 8.27469656 115.99927796 7.98144531 113.92700195 C7.5586461 110.93648848 7.1438356 107.94495508 6.73046875 104.953125 C6.59922607 104.03713028 6.4679834 103.12113556 6.33276367 102.17738342 C5.56405499 96.54453648 5.29662451 91.13470202 5.41796875 85.44921875 C4.42796875 85.44921875 3.43796875 85.44921875 2.41796875 85.44921875 C2.14984375 86.08859375 1.88171875 86.72796875 1.60546875 87.38671875 C0.41796875 89.44921875 0.41796875 89.44921875 -2.58203125 90.44921875 C-2.58203125 89.78921875 -2.58203125 89.12921875 -2.58203125 88.44921875 C-4.23203125 89.10921875 -5.88203125 89.76921875 -7.58203125 90.44921875 C-7.58203125 91.43921875 -7.58203125 92.42921875 -7.58203125 93.44921875 C-18.683283 98.93479823 -30.07030394 99.95011589 -42.24462891 101.13964844 C-44.73171202 101.39414989 -44.73171202 101.39414989 -47.58203125 102.44921875 C-54.82981061 103.06706224 -60.87399896 102.23180992 -67.58203125 99.44921875 C-69.49355667 90.87318577 -66.91051758 81.97702107 -62.58203125 74.44921875 C-60.90400246 70.85943573 -60.41272674 68.32739537 -60.64453125 64.38671875 C-60.77455355 55.62794349 -59.45981331 47.52125339 -53.25 41.05078125 C-52.1325889 39.97785724 -51.01012074 38.91017666 -49.8828125 37.84765625 C-45.46536073 33.34086276 -43.35632055 28.8221287 -41.14453125 23.01171875 C-37.05297467 12.41268229 -31.31718546 5.59194888 -21.44140625 -0.30078125 C-14.37043119 -3.39191789 -7.25499289 -1.62631796 0 0 Z " fill="#FEBC48" transform="translate(804.58203125,34.55078125)"/>
<path d="M0 0 C0.71285156 -0.00273926 1.42570313 -0.00547852 2.16015625 -0.00830078 C7.92806034 0.09635877 12.58043146 1.54329973 17.9609375 3.6171875 C21.34725248 4.60359156 23.30383844 4.10740393 26.55859375 2.97265625 C31.35647734 1.54170851 36.59114063 1.48432559 41.15625 3.546875 C44.00383786 5.71030214 45.14001968 7.82778587 46.875 10.9375 C49.40089729 14.63405354 51.15344755 16.58974164 55.53125 17.43359375 C58.37248279 17.79826628 61.19000541 17.93004735 64.05078125 18.03125 C67.5625 18.375 67.5625 18.375 69.4296875 19.73828125 C73.69633209 25.90284705 73.69633209 25.90284705 73.375 29.4375 C72.54391129 32.969627 71.60294997 35.31432505 69.5625 38.375 C67.6171875 38.66796875 67.6171875 38.66796875 65.4375 38.5625 C64.15875 38.500625 62.88 38.43875 61.5625 38.375 C61.5625 37.385 61.5625 36.395 61.5625 35.375 C62.2225 35.045 62.8825 34.715 63.5625 34.375 C62.89953192 29.06999755 62.89953192 29.06999755 60.5625 24.375 C57.86966844 22.91941537 56.21035808 22.30476296 53.1484375 22.63671875 C50.5625 22.375 50.5625 22.375 48.46484375 20.22265625 C47.81644531 19.30355469 47.16804687 18.38445312 46.5 17.4375 C44.10575943 13.82085052 44.10575943 13.82085052 40.5859375 11.56640625 C38.45908575 11.36521757 36.38711277 11.24240813 34.25 11.25 C33.4559375 11.25257812 32.661875 11.25515625 31.84375 11.2578125 C29.36849917 11.31996954 29.36849917 11.31996954 26.25 12.125 C22.32356192 12.39119919 20.34484118 11.75525251 16.6875 10.4375 C9.81212269 7.96545423 4.80603219 7.34788147 -2.1875 9.5625 C-5.57063896 11.44925057 -7.79057836 13.57682569 -10.4375 16.375 C-11.0975 16.375 -11.7575 16.375 -12.4375 16.375 C-13.4275 21.325 -14.4175 26.275 -15.4375 31.375 C-16.0975 31.375 -16.7575 31.375 -17.4375 31.375 C-17.51226563 31.93960938 -17.58703125 32.50421875 -17.6640625 33.0859375 C-18.71256686 36.18908677 -20.46912776 37.73246505 -22.8125 40 C-23.99972656 41.16402344 -23.99972656 41.16402344 -25.2109375 42.3515625 C-27.4375 44.375 -27.4375 44.375 -30.4375 46.375 C-33.7213756 52.56532308 -33.73401392 58.75169915 -33.1875 65.5625 C-33.13464844 66.42552734 -33.08179688 67.28855469 -33.02734375 68.17773438 C-32.73428692 72.6315166 -32.27113649 76.98403537 -31.4375 81.375 C-19.18730413 82.34723777 -7.3451326 77.90095377 3.77734375 73.07421875 C5.5625 72.375 5.5625 72.375 7.5625 72.375 C7.5625 70.725 7.5625 69.075 7.5625 67.375 C8.2225 67.045 8.8825 66.715 9.5625 66.375 C9.2325 60.765 8.9025 55.155 8.5625 49.375 C7.5725 49.375 6.5825 49.375 5.5625 49.375 C3.11805556 40.10227273 3.11805556 40.10227273 4.5625 35.375 C5.29215366 32.81217258 5.29215366 32.81217258 5.5625 30.375 C4.9025 29.385 4.2425 28.395 3.5625 27.375 C2.42542722 22.35292856 2.59004918 19.13208727 4.5625 14.375 C5.2225 14.375 5.8825 14.375 6.5625 14.375 C6.74425781 15.19484375 6.92601562 16.0146875 7.11328125 16.859375 C7.36464844 17.93703125 7.61601563 19.0146875 7.875 20.125 C8.11863281 21.19234375 8.36226562 22.2596875 8.61328125 23.359375 C9.5379825 26.29710901 10.56342358 28.06794262 12.5625 30.375 C13.8928125 29.8490625 13.8928125 29.8490625 15.25 29.3125 C18.6995091 28.33622384 20.26224205 28.03705759 23.5625 29.375 C26.65325637 33.41440436 27.19024782 37.38378321 27.625 42.3125 C28.08927271 47.23562939 28.80622946 51.71833246 30.5625 56.375 C34.47410319 55.97585682 37.55802972 55.37692684 41.1875 53.8125 C44.36749441 52.45805793 46.17840848 52.06735532 49.5625 52.375 C49.41796875 54.17578125 49.41796875 54.17578125 48.5625 56.375 C46.05078125 58.04296875 46.05078125 58.04296875 42.875 59.5625 C41.83988281 60.07167969 40.80476562 60.58085938 39.73828125 61.10546875 C36.63057159 62.34778811 33.85692982 62.88033311 30.5625 63.375 C30.79396729 64.52145996 31.02543457 65.66791992 31.26391602 66.84912109 C34.08889006 80.88428483 36.8044656 94.93948186 39.5 109 C40.13189832 112.29191952 40.76401111 115.5837978 41.39614868 118.87567139 C41.81540246 121.05989378 42.23432987 123.24417885 42.65292358 125.42852783 C43.74829708 131.14333941 44.84888537 136.85708082 45.95751953 142.56933594 C46.18508438 143.74458832 46.41264923 144.9198407 46.64710999 146.13070679 C47.08145816 148.37302195 47.51712042 150.61508312 47.95433044 152.85684204 C51.7674713 172.56754305 51.7674713 172.56754305 48.5625 177.375 C46.43359375 177.8515625 46.43359375 177.8515625 44 178 C40.98173553 177.97862942 40.98173553 177.97862942 38.5625 179.375 C32.7214404 179.74586093 32.7214404 179.74586093 30.5625 179.375 C28.12431064 175.71771595 27.8908308 172.44212105 27.4375 168.1875 C27.35113281 167.43791016 27.26476562 166.68832031 27.17578125 165.91601562 C26.96411618 164.06982588 26.76234536 162.22250656 26.5625 160.375 C25.9025 160.705 25.2425 161.035 24.5625 161.375 C20.85384605 150.20760068 18.19523741 138.83390833 15.5625 127.375 C16.2225 127.375 16.8825 127.375 17.5625 127.375 C17.38074219 126.08924072 17.19898438 124.80348145 17.01171875 123.47875977 C16.33458852 118.67688577 15.66561958 113.87390333 14.99902344 109.07055664 C14.71020993 106.99765748 14.41922781 104.92505921 14.12597656 102.8527832 C13.70317735 99.86226973 13.28836685 96.87073633 12.875 93.87890625 C12.74375732 92.96291153 12.61251465 92.04691681 12.47729492 91.10316467 C11.70858624 85.47031773 11.44115576 80.06048327 11.5625 74.375 C10.5725 74.375 9.5825 74.375 8.5625 74.375 C8.294375 75.014375 8.02625 75.65375 7.75 76.3125 C6.5625 78.375 6.5625 78.375 3.5625 79.375 C3.5625 78.715 3.5625 78.055 3.5625 77.375 C1.0875 78.365 1.0875 78.365 -1.4375 79.375 C-1.4375 80.365 -1.4375 81.355 -1.4375 82.375 C-14.88624715 88.11531891 -14.88624715 88.11531891 -22.4375 87.375 C-22.4375 86.715 -22.4375 86.055 -22.4375 85.375 C-23.9225 85.87 -23.9225 85.87 -25.4375 86.375 C-27.43990549 86.05643549 -29.43961562 85.72078768 -31.4375 85.375 C-32.530625 85.395625 -33.62375 85.41625 -34.75 85.4375 C-39.18139078 85.36239168 -43.15916092 84.46156231 -47.4375 83.375 C-45.85751928 77.47897439 -44.39112794 73.31249913 -39.4375 69.375 C-38.7775 69.375 -38.1175 69.375 -37.4375 69.375 C-37.59476563 68.67117187 -37.75203125 67.96734375 -37.9140625 67.2421875 C-39.91116633 56.30282771 -38.07092529 46.36260562 -33.4375 36.375 C-31.34050911 33.39899893 -28.92668257 30.82494332 -26.24609375 28.359375 C-24.00568768 25.90121888 -23.39624828 23.81349618 -22.5 20.625 C-18.95324175 9.26428998 -12.9003496 -0.02105934 0 0 Z " fill="#FEBB48" transform="translate(798.4375,45.625)"/>
<path d="M0 0 C1.65 0 3.3 0 5 0 C5.16822266 1.80791016 5.16822266 1.80791016 5.33984375 3.65234375 C7.04341335 19.42619352 11.11941078 34.23743284 15.45211792 49.4389801 C16.82989169 54.30424137 18.01149314 59.18091448 19.0625 64.125 C24.21902044 86.88400613 34.23064401 108.84002008 43.09301758 130.34863281 C45.57272672 136.38921322 47.93693032 142.44295236 50.09204102 148.60742188 C51.3336723 151.87926554 52.91904681 154.92387167 54.52734375 158.02734375 C56.79336155 162.60145395 58.79262592 167.29031331 60.83569336 171.96728516 C62.84520025 176.52443327 64.9727938 180.98565917 67.26245117 185.40844727 C72.83057434 196.16796171 76.92034995 206.65043243 75 219 C72.4821759 224.94414144 68.68434135 229.02863975 63 232 C62.34 232 61.68 232 61 232 C61 232.66 61 233.32 61 234 C47.57139983 238.3415775 35.42253469 241.31648691 22 235 C20.948125 234.443125 20.948125 234.443125 19.875 233.875 C17.89176146 232.78855727 17.89176146 232.78855727 15 233 C15 232.34 15 231.68 15 231 C14.401875 230.896875 13.80375 230.79375 13.1875 230.6875 C10.67774646 229.89872032 9.82982914 228.82982914 8 227 C5.89667109 226.28552357 5.89667109 226.28552357 4 226 C4 225.34 4 224.68 4 224 C2.68 223.67 1.36 223.34 0 223 C0 222.34 0 221.68 0 221 C-0.598125 220.896875 -1.19625 220.79375 -1.8125 220.6875 C-4.33947013 219.89330939 -5.15277041 218.84722959 -7 217 C-8.11375 216.6596875 -8.11375 216.6596875 -9.25 216.3125 C-12.87814649 214.58088463 -14.7536397 212.08087067 -17.3046875 209.02734375 C-20.81585159 204.82850928 -24.7202063 201.38402293 -29 198 C-29.04898438 199.13179687 -29.09796875 200.26359375 -29.1484375 201.4296875 C-29.22346514 202.91148339 -29.29901297 204.393253 -29.375 205.875 C-29.4059375 206.62136719 -29.436875 207.36773437 -29.46875 208.13671875 C-29.7734375 213.7734375 -29.7734375 213.7734375 -32 216 C-36.26068441 216.67558421 -39.79438387 215.8451532 -43.3125 213.37890625 C-53.26259896 203.96431608 -59.09522622 191.62825606 -64.14111328 179.11572266 C-64.70475155 177.72729479 -65.2808871 176.3438616 -65.87060547 174.96630859 C-76.28687719 150.5958346 -79.73270174 123.11035396 -83 97 C-83.39541992 97.81259277 -83.79083984 98.62518555 -84.19824219 99.46240234 C-84.72579102 100.53441895 -85.25333984 101.60643555 -85.796875 102.7109375 C-86.57562988 104.30107666 -86.57562988 104.30107666 -87.37011719 105.92333984 C-89.9541462 110.80110102 -93.0996729 115.0996729 -97 119 C-99.61580479 118.6730244 -101.64078137 118.17960932 -104 117 C-104.72882284 113.72029723 -104.80621629 110.34840232 -105 107 C-105.06574219 106.15566406 -105.13148438 105.31132812 -105.19921875 104.44140625 C-105.7627281 91.05320143 -103.03985456 76.05425726 -97.359375 63.921875 C-95.67591176 60.30339654 -94.26902601 56.61269986 -92.875 52.875 C-92.61750977 52.18865479 -92.36001953 51.50230957 -92.09472656 50.79516602 C-90.7184408 47.08286337 -89.46486791 43.37111448 -88.375 39.5625 C-84.74774544 27.02619916 -84.74774544 27.02619916 -80.87109375 24.75 C-80.25363281 24.5025 -79.63617188 24.255 -79 24 C-77.64269529 28.07191414 -79.02509618 30.78969683 -80.38671875 34.67578125 C-80.64499954 35.43739059 -80.90328033 36.19899994 -81.16938782 36.98368835 C-82.00030864 39.429605 -82.84321133 41.87116886 -83.6875 44.3125 C-84.77947013 47.49449131 -85.86623816 50.67821958 -86.94921875 53.86328125 C-87.21372833 54.64039963 -87.47823792 55.41751801 -87.75076294 56.21818542 C-93.8212003 74.20364554 -96.34305706 90.05005593 -96 109 C-92.86969805 105.32499793 -90.59193256 101.59498866 -88.375 97.3125 C-85.20941176 91.20941176 -85.20941176 91.20941176 -83 89 C-82.3574765 86.93125966 -82.3574765 86.93125966 -82 85 C-80.515 85.495 -80.515 85.495 -79 86 C-78.96003906 87.14984375 -78.92007812 88.2996875 -78.87890625 89.484375 C-78.1085152 103.80341448 -75.50687888 117.60693244 -72.625 131.625 C-72.43036163 132.58112183 -72.23572327 133.53724365 -72.03518677 134.52233887 C-69.26573953 148.05091993 -66.47208836 161.38704481 -60.47265625 173.91796875 C-59.33284163 176.30341631 -58.24640951 178.69367941 -57.18359375 181.11328125 C-51.2681017 195.70180733 -51.2681017 195.70180733 -39.7578125 205.25390625 C-38.84773438 205.50011719 -37.93765625 205.74632812 -37 206 C-37.02320313 205.32195312 -37.04640625 204.64390625 -37.0703125 203.9453125 C-37.19803797 197.35832764 -36.55461238 191.39889559 -35 185 C-29.51573427 185 -27.76816727 187.27873938 -24 191 C-17 198.3540856 -17 198.3540856 -17 201 C-16.41895508 201.28520508 -15.83791016 201.57041016 -15.23925781 201.86425781 C-6.41280353 206.34099847 2.41919735 211.45714359 10.1640625 217.625 C13.21591538 219.91064301 16.51158487 221.78227562 19.80078125 223.703125 C21.56845414 224.74551825 23.29252187 225.86168125 25 227 C27.03801546 227.50950386 29.08107088 228.00403876 31.140625 228.41796875 C33.30564376 228.85866246 35.46056692 229.34933473 37.609375 229.86328125 C47.93274228 232.3472198 47.93274228 232.3472198 58 230 C62.20396462 226.95883411 63.5546339 224.18266514 64.70825195 219.16748047 C65.18035238 215.66011007 64.50954781 212.49635624 63.625 209.125 C63.44364502 208.39812988 63.26229004 207.67125977 63.07543945 206.92236328 C60.73677244 198.18298627 56.89065953 190.13418433 53 182 C52.02581541 179.91796585 51.05727045 177.83337639 50.08911133 175.74853516 C49.24687756 173.94000177 48.3952736 172.13584032 47.54296875 170.33203125 C44.37861344 163.498626 41.55558815 156.52203451 38.69995117 149.5559082 C36.93390905 145.25317898 35.13581553 140.96636431 33.3125 136.6875 C31.27364995 131.81691378 29.58702526 126.88073401 27.9609375 121.859375 C26.80305169 118.4139587 25.45077736 115.07344034 24.07421875 111.7109375 C21.11552035 104.24425864 18.50784364 96.62882205 16 89 C15.69231689 88.0711499 15.69231689 88.0711499 15.37841797 87.12353516 C11.04319453 73.8670927 8.11676396 60.46824585 5.38671875 46.80078125 C3.71844259 38.48465999 1.76219849 30.25185585 -0.53930664 22.08666992 C-1.02030211 19.9080434 -1.12932296 17.97100587 -1.1328125 15.7421875 C-1.13410156 14.95199219 -1.13539063 14.16179687 -1.13671875 13.34765625 C-1.13285156 12.53167969 -1.12898438 11.71570313 -1.125 10.875 C-1.12886719 10.05128906 -1.13273437 9.22757813 -1.13671875 8.37890625 C-1.12669335 2.2533867 -1.12669335 2.2533867 0 0 Z " fill="#D07526" transform="translate(436,232)"/>
<path d="M0 0 C1.34033203 1.51879883 1.34033203 1.51879883 2.5078125 3.45703125 C3.15169922 4.50793945 3.15169922 4.50793945 3.80859375 5.58007812 C4.46021484 6.68512695 4.46021484 6.68512695 5.125 7.8125 C5.56714844 8.53759766 6.00929688 9.26269531 6.46484375 10.00976562 C8.4480403 13.28413697 10.31812259 16.55936209 12 20 C2.62496841 25.16372609 -6.65938728 29.86365977 -16.66796875 33.66796875 C-19.51663149 34.80676593 -22.07800356 36.0719044 -24.75 37.5625 C-31.56750474 41.07795137 -39.04804554 42.57033145 -46.45996094 44.34863281 C-48.88545232 44.97062541 -51.24988379 45.69365675 -53.6328125 46.4609375 C-76.24196186 53.35884204 -108.46326002 52.09495508 -131 45 C-131.33 44.34 -131.66 43.68 -132 43 C-130.45892578 43.03480469 -130.45892578 43.03480469 -128.88671875 43.0703125 C-120.66984441 43.20273032 -113.02390842 42.96050155 -105 41 C-104.2997168 40.83338867 -103.59943359 40.66677734 -102.87792969 40.49511719 C-88.60091084 37.06650088 -76.06140732 32.4249532 -63.36328125 24.97265625 C-54.82770753 19.96630929 -46.06086325 15.46304296 -37.1875 11.09375 C-34.385826 9.70859401 -31.62288668 8.27012396 -28.875 6.78125 C-9.66988607 -3.49776983 -9.66988607 -3.49776983 0 0 Z " fill="#FEBC48" transform="translate(559,137)"/>
<path d="M0 0 C0.71285156 -0.00273926 1.42570313 -0.00547852 2.16015625 -0.00830078 C7.92806034 0.09635877 12.58043146 1.54329973 17.9609375 3.6171875 C21.34725248 4.60359156 23.30383844 4.10740393 26.55859375 2.97265625 C31.35647734 1.54170851 36.59114063 1.48432559 41.15625 3.546875 C44.00383786 5.71030214 45.14001968 7.82778587 46.875 10.9375 C49.40089729 14.63405354 51.15344755 16.58974164 55.53125 17.43359375 C58.37248279 17.79826628 61.19000541 17.93004735 64.05078125 18.03125 C67.5625 18.375 67.5625 18.375 69.4296875 19.73828125 C73.69633209 25.90284705 73.69633209 25.90284705 73.375 29.4375 C72.54391129 32.969627 71.60294997 35.31432505 69.5625 38.375 C67.6171875 38.66796875 67.6171875 38.66796875 65.4375 38.5625 C64.15875 38.500625 62.88 38.43875 61.5625 38.375 C61.5625 37.385 61.5625 36.395 61.5625 35.375 C62.2225 35.045 62.8825 34.715 63.5625 34.375 C62.89953192 29.06999755 62.89953192 29.06999755 60.5625 24.375 C57.86966844 22.91941537 56.21035808 22.30476296 53.1484375 22.63671875 C50.5625 22.375 50.5625 22.375 48.46484375 20.22265625 C47.81644531 19.30355469 47.16804687 18.38445312 46.5 17.4375 C44.10575943 13.82085052 44.10575943 13.82085052 40.5859375 11.56640625 C38.45908575 11.36521757 36.38711277 11.24240813 34.25 11.25 C33.4559375 11.25257812 32.661875 11.25515625 31.84375 11.2578125 C29.36849917 11.31996954 29.36849917 11.31996954 26.25 12.125 C22.32356192 12.39119919 20.34484118 11.75525251 16.6875 10.4375 C9.81212269 7.96545423 4.80603219 7.34788147 -2.1875 9.5625 C-5.57063896 11.44925057 -7.79057836 13.57682569 -10.4375 16.375 C-11.0975 16.375 -11.7575 16.375 -12.4375 16.375 C-13.4275 21.325 -14.4175 26.275 -15.4375 31.375 C-16.0975 31.375 -16.7575 31.375 -17.4375 31.375 C-17.51226563 31.93960938 -17.58703125 32.50421875 -17.6640625 33.0859375 C-18.71256686 36.18908677 -20.46912776 37.73246505 -22.8125 40 C-23.99972656 41.16402344 -23.99972656 41.16402344 -25.2109375 42.3515625 C-27.4375 44.375 -27.4375 44.375 -30.4375 46.375 C-33.7213756 52.56532308 -33.73401392 58.75169915 -33.1875 65.5625 C-33.13464844 66.42552734 -33.08179688 67.28855469 -33.02734375 68.17773438 C-32.73428692 72.6315166 -32.27113649 76.98403537 -31.4375 81.375 C-19.18730413 82.34723777 -7.3451326 77.90095377 3.77734375 73.07421875 C5.5625 72.375 5.5625 72.375 7.5625 72.375 C7.5625 70.725 7.5625 69.075 7.5625 67.375 C8.2225 67.045 8.8825 66.715 9.5625 66.375 C9.2325 60.765 8.9025 55.155 8.5625 49.375 C7.5725 49.375 6.5825 49.375 5.5625 49.375 C3.11805556 40.10227273 3.11805556 40.10227273 4.5625 35.375 C5.29215366 32.81217258 5.29215366 32.81217258 5.5625 30.375 C4.9025 29.385 4.2425 28.395 3.5625 27.375 C2.42542722 22.35292856 2.59004918 19.13208727 4.5625 14.375 C5.2225 14.375 5.8825 14.375 6.5625 14.375 C6.74425781 15.19484375 6.92601562 16.0146875 7.11328125 16.859375 C7.36464844 17.93703125 7.61601563 19.0146875 7.875 20.125 C8.11863281 21.19234375 8.36226562 22.2596875 8.61328125 23.359375 C9.5379825 26.29710901 10.56342358 28.06794262 12.5625 30.375 C13.8928125 29.8490625 13.8928125 29.8490625 15.25 29.3125 C18.6995091 28.33622384 20.26224205 28.03705759 23.5625 29.375 C26.65325637 33.41440436 27.19024782 37.38378321 27.625 42.3125 C28.08927271 47.23562939 28.80622946 51.71833246 30.5625 56.375 C34.47410319 55.97585682 37.55802972 55.37692684 41.1875 53.8125 C44.36749441 52.45805793 46.17840848 52.06735532 49.5625 52.375 C49.41796875 54.17578125 49.41796875 54.17578125 48.5625 56.375 C46.05078125 58.04296875 46.05078125 58.04296875 42.875 59.5625 C41.83988281 60.07167969 40.80476562 60.58085938 39.73828125 61.10546875 C36.63992635 62.34404851 33.8634748 62.96423402 30.5625 63.375 C30.871875 64.550625 30.871875 64.550625 31.1875 65.75 C31.31125 66.61625 31.435 67.4825 31.5625 68.375 C30.9025 69.035 30.2425 69.695 29.5625 70.375 C29.25227905 69.0432373 29.25227905 69.0432373 28.93579102 67.68457031 C28.16635299 64.3821017 27.39662767 61.07970032 26.62670898 57.77734375 C26.29391189 56.34963613 25.96122844 54.92190202 25.62866211 53.49414062 C25.14987781 51.4387318 24.6706813 49.38341944 24.19140625 47.328125 C23.90338135 46.09223633 23.61535645 44.85634766 23.31860352 43.58300781 C22.75107258 41.17507871 22.17233169 38.7724499 21.5625 36.375 C16.23186775 36.05516206 13.22479836 36.8589438 8.5625 39.375 C8.76746094 40.42558594 8.97242188 41.47617188 9.18359375 42.55859375 C11.82822219 56.27372181 11.82822219 56.27372181 12.35742188 62.22265625 C12.55747099 64.32221939 12.81830723 66.40761218 13.08203125 68.5 C13.64091394 73.49053586 13.67559307 78.42100273 13.625 83.4375 C13.62048828 84.30310547 13.61597656 85.16871094 13.61132812 86.06054688 C13.59969913 88.16539539 13.58177073 90.27020758 13.5625 92.375 C13.2325 92.375 12.9025 92.375 12.5625 92.375 C11.79209149 86.30803301 11.46543888 80.48985027 11.5625 74.375 C10.5725 74.375 9.5825 74.375 8.5625 74.375 C8.294375 75.014375 8.02625 75.65375 7.75 76.3125 C6.5625 78.375 6.5625 78.375 3.5625 79.375 C3.5625 78.715 3.5625 78.055 3.5625 77.375 C1.0875 78.365 1.0875 78.365 -1.4375 79.375 C-1.4375 80.365 -1.4375 81.355 -1.4375 82.375 C-14.88624715 88.11531891 -14.88624715 88.11531891 -22.4375 87.375 C-22.4375 86.715 -22.4375 86.055 -22.4375 85.375 C-23.9225 85.87 -23.9225 85.87 -25.4375 86.375 C-27.43990549 86.05643549 -29.43961562 85.72078768 -31.4375 85.375 C-32.530625 85.395625 -33.62375 85.41625 -34.75 85.4375 C-39.18139078 85.36239168 -43.15916092 84.46156231 -47.4375 83.375 C-45.85751928 77.47897439 -44.39112794 73.31249913 -39.4375 69.375 C-38.7775 69.375 -38.1175 69.375 -37.4375 69.375 C-37.59476563 68.67117187 -37.75203125 67.96734375 -37.9140625 67.2421875 C-39.91116633 56.30282771 -38.07092529 46.36260562 -33.4375 36.375 C-31.34050911 33.39899893 -28.92668257 30.82494332 -26.24609375 28.359375 C-24.00568768 25.90121888 -23.39624828 23.81349618 -22.5 20.625 C-18.95324175 9.26428998 -12.9003496 -0.02105934 0 0 Z " fill="#D07627" transform="translate(798.4375,45.625)"/>
<path d="M0 0 C3.8615814 3.30858795 6.27912296 6.46624496 7.0625 11.5625 C7.29005862 15.71544485 6.26372958 18.46858185 4 22 C5.32 22.66 6.64 23.32 8 24 C7.67 25.32 7.34 26.64 7 28 C5.91283691 28.07516846 5.91283691 28.07516846 4.80371094 28.15185547 C1.45203008 28.38699566 -1.8989561 28.63095659 -5.25 28.875 C-6.95929688 28.99294922 -6.95929688 28.99294922 -8.703125 29.11328125 C-15.30950238 29.60125231 -21.76768776 30.3652697 -28.29003906 31.52294922 C-31.93305743 32.16425173 -35.58171797 32.64948196 -39.25 33.125 C-41.17585938 33.37636719 -41.17585938 33.37636719 -43.140625 33.6328125 C-44.08421875 33.75398438 -45.0278125 33.87515625 -46 34 C-46 33.34 -46 32.68 -46 32 C-40.30601106 29.90429574 -35.04801071 28.54981916 -29 28 C-28.80178199 24.9597913 -28.80178199 24.9597913 -30.1875 22.25 C-31.29664414 17.81342343 -30.21696321 15.93332182 -28 12 C-21.81132668 4.75041125 -9.90457591 -5.94274554 0 0 Z " fill="#FEBC48" transform="translate(495,12)"/>
<path d="M0 0 C0.66 0 1.32 0 2 0 C1.35812082 5.13503344 0.31727753 9.9943454 -1 15 C-1.66 15 -2.32 15 -3 15 C-3.10183594 15.69480469 -3.20367188 16.38960938 -3.30859375 17.10546875 C-4.11717006 20.49052552 -5.46675713 23.22287019 -7.0625 26.3125 C-7.61035156 27.38113281 -8.15820312 28.44976562 -8.72265625 29.55078125 C-9.14417969 30.35902344 -9.56570313 31.16726563 -10 32 C-11.32 31.67 -12.64 31.34 -14 31 C-14.17764893 32.0979187 -14.17764893 32.0979187 -14.35888672 33.21801758 C-15.00027015 36.00117228 -15.88760583 38.01811449 -17.2578125 40.51171875 C-17.94302979 41.7642041 -17.94302979 41.7642041 -18.64208984 43.04199219 C-19.1314502 43.91500977 -19.62081055 44.78802734 -20.125 45.6875 C-20.62854004 46.59016602 -21.13208008 47.49283203 -21.65087891 48.42285156 C-25.10894726 54.55745372 -28.65085668 60.44934238 -33 66 C-33.47727539 66.61359375 -33.95455078 67.2271875 -34.44628906 67.859375 C-36.11874306 69.99947248 -37.80614603 72.1268061 -39.5 74.25 C-40.03415527 74.92450195 -40.56831055 75.59900391 -41.11865234 76.29394531 C-44.72650931 80.7396354 -48.55638297 84.38675585 -53 88 C-52.505 88.99 -52.505 88.99 -52 90 C-57.49479466 97.62306019 -64.62300418 102.53172712 -73.8671875 104.66015625 C-74.92292969 104.82837891 -74.92292969 104.82837891 -76 105 C-74.79244329 101.37732986 -73.79259683 100.9682155 -70.625 99 C-68.30381352 97.54831334 -66.26025885 96.26392447 -64.3359375 94.3125 C-63 93 -63 93 -61 93 C-60.67 92.01 -60.34 91.02 -60 90 C-59.34 90 -58.68 90 -58 90 C-57.91105469 88.40285156 -57.91105469 88.40285156 -57.8203125 86.7734375 C-56.82246271 82.18332845 -55.63518008 81.29913352 -51.875 78.625 C-47.38888073 75.20259973 -44.0310581 71.91739547 -40.73828125 67.359375 C-38.80748666 64.738701 -36.69646615 62.33251468 -34.5625 59.875 C-29.27703476 53.44794619 -25.68388972 46.409039 -22 39 C-21.41863281 37.86175781 -20.83726562 36.72351563 -20.23828125 35.55078125 C-17.97161601 31.08879859 -15.80442341 26.67126434 -14 22 C-13.34 22 -12.68 22 -12 22 C-10.64721885 20.01310269 -9.31431695 18.01254782 -8 16 C-7.34 15.67 -6.68 15.34 -6 15 C-5.67 14.01 -5.34 13.02 -5 12 C-4.34 12 -3.68 12 -3 12 C-3.061875 11.13375 -3.12375 10.2675 -3.1875 9.375 C-2.97544498 5.55800967 -1.87955693 3.28922464 0 0 Z " fill="#D17727" transform="translate(645,429)"/>
<path d="M0 0 C0.495 1.98 0.495 1.98 1 4 C-2.64636147 5.06880047 -6.26057311 5.35955011 -10.0390625 5.68359375 C-11.43881279 5.80782208 -12.83855202 5.93217514 -14.23828125 6.05664062 C-16.4231739 6.2472148 -18.60819117 6.43606741 -20.79345703 6.62231445 C-28.24712967 7.26195106 -35.62275696 7.90309606 -42.93652344 9.55639648 C-46.26569077 10.27209656 -49.61754047 10.62417116 -53 11 C-53 10.34 -53 9.68 -53 9 C-48.60839832 7.3836466 -44.43205148 5.919955 -39.75 5.5 C-36.05709756 5.2839291 -36.05709756 5.2839291 -33.625 3.4375 C-30.18850005 1.55560717 -27.66422848 1.89551376 -23.8125 2.02734375 C-20.74786943 1.99754873 -17.94943829 1.55705491 -14.9375 1 C-9.84823744 0.06510313 -5.16630168 -0.17221006 0 0 Z " fill="#D17727" transform="translate(502,35)"/>
<path d="M0 0 C3.03722959 3.43527108 3.95258805 6.77930721 5.0625 11.1875 C5.23241455 11.8580542 5.4023291 12.5286084 5.57739258 13.21948242 C6.06123233 15.14392425 6.53099977 17.07188796 7 19 C7.32871094 20.30324219 7.32871094 20.30324219 7.6640625 21.6328125 C8.96377624 27.0450533 9.5601926 32.45611195 10 38 C8.02 38.495 8.02 38.495 6 39 C2.29134605 27.83260068 -0.36726259 16.45890833 -3 5 C-2.01 4.34 -1.02 3.68 0 3 C0 2.01 0 1.02 0 0 Z " fill="#D27828" transform="translate(817,168)"/>
<path d="M0 0 C1.32 0.66 2.64 1.32 4 2 C4 3.32 4 4.64 4 6 C4.14945068 6.58104492 4.29890137 7.16208984 4.45288086 7.76074219 C5.26259977 11.07477245 5.47035966 14.43709006 5.75390625 17.828125 C5.81907944 18.57713074 5.88425262 19.32613647 5.95140076 20.09783936 C6.15812499 22.48164317 6.36037197 24.8658025 6.5625 27.25 C6.70217848 28.86981717 6.84214911 30.48960918 6.98242188 32.109375 C7.32500078 36.07263304 7.66356575 40.03621582 8 44 C7.34 44 6.68 44 6 44 C5.731875 42.906875 5.46375 41.81375 5.1875 40.6875 C4.39504518 37.09579747 4.39504518 37.09579747 2.46484375 35.7265625 C0.19152151 33.04707336 0.46633033 30.05322113 0.375 26.6875 C0.31348561 25.24865544 0.25096522 23.80985358 0.1875 22.37109375 C0.15914063 21.64390137 0.13078125 20.91670898 0.1015625 20.16748047 C-0.10622763 15.73295936 -0.53352554 11.31308159 -0.9140625 6.890625 C-0.99079669 4.30956605 -0.79215602 2.43558418 0 0 Z " fill="#D37A29" transform="translate(279,403)"/>
<path d="M0 0 C8.54199421 0 14.61127606 3.37872028 21 9 C22.1875 11.6953125 22.1875 11.6953125 23 14 C24.64363134 14.72159424 26.31050386 15.39351421 28 16 C28.33 16.99 28.66 17.98 29 19 C26.5 19.875 26.5 19.875 23 20 C18.97925841 17.80544319 15.74330952 14.76236874 12.5625 11.5 C9.59800922 8.60781387 6.41157527 6.58656101 2.890625 4.4296875 C1 3 1 3 0 0 Z " fill="#D17727" transform="translate(776,92)"/>
<path d="M0 0 C2 3 2 3 1.8125 5.5 C0.9476037 8.1612194 0.21018366 9.32026042 -2 11 C-2.66 11 -3.32 11 -4 11 C-4 11.66 -4 12.32 -4 13 C-7.60296594 13.41176754 -8.78402067 13.1535853 -11.8125 11 C-12.534375 10.34 -13.25625 9.68 -14 9 C-13.60799155 6.6174032 -13.27060945 5.28328262 -11.58203125 3.515625 C-7.68047351 0.72510688 -4.98014315 -0.92653826 0 0 Z " fill="#CF7325" transform="translate(561,13)"/>
<path d="M0 0 C0.66 0 1.32 0 2 0 C4.39210639 7.17631916 2.37229219 15.93528291 0.109375 23 C-1.45928318 25.82800348 -3.65925375 27.79694471 -6 30 C-4.15959656 15.88371403 -4.15959656 15.88371403 -2 9 C-1.29326968 6.00849767 -0.64078917 3.00625555 0 0 Z " fill="#D17828" transform="translate(841,69)"/>
<path d="M0 0 C0.94875 0.04125 1.8975 0.0825 2.875 0.125 C4.95966413 3.51257921 5.30405061 6.17773438 4.875 10.125 C1.4397952 12.41513653 -0.110331 12.30342973 -4.125 12.125 C-5.75 9.375 -5.75 9.375 -7.125 6.125 C-5.91162023 2.15393895 -4.24846689 0.16993868 0 0 Z " fill="#D07626" transform="translate(462.125,100.875)"/>
<path d="M0 0 C3.53790403 3.69172595 3.59115883 7.09390595 4 12 C3.34 12 2.68 12 2 12 C0.40861915 7.82262526 -0.21278058 4.46839215 0 0 Z " fill="#DA842E" transform="translate(817,168)"/>
<path d="" fill="#FFBF4A" transform="translate(0,0)"/>
</svg>
