<?xml version="1.0" encoding="UTF-8"?>
<svg version="1.1" xmlns="http://www.w3.org/2000/svg" width="657" height="589">
<path d="M0 0 C6.33123709 5.88270258 7.68381153 14.66431971 8.28515625 22.91015625 C8.59307205 32.17208564 7.66125441 41.13490533 3.79296875 49.66015625 C3.53128906 50.43230469 3.26960938 51.20445313 3 52 C4.25717453 54.04872887 5.60644236 56.04148656 7 58 C7.84248714 60.29518694 8.53656146 62.59421791 9.19140625 64.94921875 C9.85520168 67.04987517 9.85520168 67.04987517 11.41577148 68.36108398 C13.21335183 70.22071672 14.08263052 71.92552671 15.15625 74.2734375 C15.53910156 75.0984375 15.92195313 75.9234375 16.31640625 76.7734375 C16.70699219 77.63195312 17.09757812 78.49046875 17.5 79.375 C19.81064046 84.40807823 22.14026524 89.25210704 25 94 C25 94.66 25 95.32 25 96 C25.99 96.33 26.98 96.66 28 97 C29.25512695 98.68310547 29.25512695 98.68310547 30.48828125 100.8671875 C30.94388428 101.66431152 31.3994873 102.46143555 31.86889648 103.28271484 C32.34528564 104.13816895 32.8216748 104.99362305 33.3125 105.875 C33.80886963 106.74979004 34.30523926 107.62458008 34.81665039 108.52587891 C37.69251776 113.60948762 40.51164231 118.72282156 43.27734375 123.8671875 C46.30850992 129.37964843 49.46280301 134.8225525 52.5949707 140.27807617 C55.79068336 145.85337182 58.92087835 151.44966887 61.9140625 157.13671875 C62.98320585 159.15312021 62.98320585 159.15312021 65 161 C65.89902598 163.0055195 66.7927726 165.01352601 67.6640625 167.03125 C69.34981512 170.77736692 71.16408393 174.45062386 73 178.125 C73.33209473 178.79354004 73.66418945 179.46208008 74.00634766 180.15087891 C75.65350649 183.43629302 77.36160727 186.64570635 79.234375 189.80859375 C80.98357565 192.97031262 81.42727567 194.47497573 81 198 C81.57234375 198.2578125 82.1446875 198.515625 82.734375 198.78125 C85.21128995 200.11365942 87.1341166 201.65056118 89.25 203.5 C89.95640625 204.1084375 90.6628125 204.716875 91.390625 205.34375 C93 207 93 207 93 209 C93.556875 209.20625 94.11375 209.4125 94.6875 209.625 C97.28880306 211.17172074 98.849075 213.06704134 100.7109375 215.42578125 C102.1352901 217.22483273 102.1352901 217.22483273 104.5625 219.5 C107.15501616 222.15899093 108.96538295 224.89551974 111 228 C112.43403796 230.06490863 113.8716613 232.12733099 115.3125 234.1875 C121.5941033 243.25331867 127.22080018 252.2828747 132.0625 262.21484375 C134.11761167 266.32399224 136.45038651 270.24912651 138.8125 274.1875 C143.79433195 282.51395104 148.31047329 291.04251988 152.77099609 299.65673828 C153.98520681 301.97179479 155.23029663 304.26706998 156.48828125 306.55859375 C169.06505608 329.53656421 169.06505608 329.53656421 167 342 C164.75854298 349.04457922 160.63561975 355.43620422 154 359 C145.01602776 360.59898221 135.16454001 353.96481163 127.97265625 349.25390625 C125.12653225 347.44478585 122.15645389 345.88339155 119.17578125 344.30859375 C116.58944909 342.75307979 114.34138323 340.89985005 112 339 C112.00785522 340.27677612 112.00785522 340.27677612 112.01586914 341.5793457 C112.03309062 344.7906061 112.0455364 348.00184265 112.05493164 351.21313477 C112.05990624 352.59302554 112.06668832 353.97291121 112.07543945 355.3527832 C112.12253612 362.97967326 112.02589813 370.46862005 111.11889648 378.04760742 C111.07966064 378.69189697 111.0404248 379.33618652 111 380 C112.17935148 381.39315836 112.17935148 381.39315836 115.5 381.3125 C131.21086176 381.11236163 146.35947677 374.12097608 160.42602539 367.86572266 C165.2960113 365.70958076 170.21075119 363.68935912 175.15356445 361.70629883 C185.37404873 357.5993455 195.28750984 353.19592455 205 348 C205.74797852 347.60135742 206.49595703 347.20271484 207.26660156 346.79199219 C215.33669164 342.46551798 223.27418442 338.1075153 230.67578125 332.69140625 C233.25444507 330.81483241 235.8974041 329.06405426 238.5625 327.3125 C256.21572008 315.5967676 273.66727155 303.21631977 290.125 289.875 C294.92871289 286.00747397 299.86902763 282.42064825 305 279 C306.16789063 278.21109375 306.16789063 278.21109375 307.359375 277.40625 C315.86764017 271.95651153 326.67336629 266.36947889 337 268 C342.34751525 269.90335289 344.32768203 271.94185859 346.875 277 C351.83758467 289.40646169 350.22957412 301.54885727 345.109375 313.62109375 C338.54637214 328.29324835 330.61181617 340.94059754 319.43798828 352.50146484 C316.93708886 355.10766529 314.50271216 357.77462569 312.0625 360.4375 C310.74958984 361.85869141 310.74958984 361.85869141 309.41015625 363.30859375 C307.00697194 365.9217928 307.00697194 365.9217928 305.04296875 368.5625 C302.69062716 371.36911789 300.17935875 373.36548094 297.25 375.5625 C296.69868408 375.97870605 296.14736816 376.39491211 295.5793457 376.82373047 C293.72407373 378.22192879 291.86199756 379.61077346 290 381 C288.5295344 382.10491864 287.05949586 383.21040581 285.58984375 384.31640625 C281.73161154 387.21772552 277.86725906 390.11072558 274 393 C274.61818604 392.98952637 275.23637207 392.97905273 275.87329102 392.96826172 C309.70674783 392.47214235 309.70674783 392.47214235 320 398 C322.12831982 400.11293438 323.89609221 402.19498839 325 405 C324.77093661 408.94147005 322.55743787 410.79396841 319.75 413.375 C304.70524312 426.35562475 282.98232689 429.54866784 264 433 C263.2992334 433.13116211 262.5984668 433.26232422 261.87646484 433.39746094 C246.03559562 436.34442139 229.98975428 438.07304471 214 440 C217.51564488 442.84474577 217.51564488 442.84474577 221.203125 445.45703125 C226.76231884 449.1384058 226.76231884 449.1384058 228 453.625 C228 456.08333333 228 458.54166667 228 461 C208.54920551 468.71324609 184.88518944 463.97609118 166 456 C161.95653264 454.11984431 157.99339419 452.09112669 154.03515625 450.0390625 C150.09520296 448.01334528 146.07411294 446.23637658 142 444.5 C132.21170055 440.29819341 122.68717584 435.59440807 113.35546875 430.45703125 C112.5864624 430.03728027 111.81745605 429.6175293 111.02514648 429.18505859 C109.53806623 428.36962989 108.05677266 427.54353388 106.58227539 426.70556641 C102.95342744 424.59066059 102.95342744 424.59066059 98.8918457 424.2097168 C95.66081943 425.55941767 94.78625805 428.8380212 93.4375 431.875 C89.91468447 439.60800971 89.91468447 439.60800971 87 442 C90.20799435 453.42847988 95.96000736 464.22406333 103.65234375 473.265625 C105 475 105 475 106 478 C110.40475319 480.20237659 115.36900548 481.4738011 120.1875 482.4375 C122.55421013 483.17199625 124.0582221 484.47011439 126 486 C127.65661761 487.01656081 129.32111559 488.02065076 131 489 C128.36507534 501.95504626 124.13580369 513.3253147 118 525 C117.14204478 526.74814574 116.28747283 528.49795922 115.4375 530.25 C111.21920149 538.64537587 106.46198509 547.10499529 100 554 C99.34 554 98.68 554 98 554 C97.95488281 554.56976562 97.90976562 555.13953125 97.86328125 555.7265625 C95.14118831 562.89515116 81.42515321 568.66823471 74.8359375 571.78125 C67.13108119 575.09242792 59.46347942 577.42658324 51 576 C48.125 574 48.125 574 46 571 C45.56042969 570.4534375 45.12085938 569.906875 44.66796875 569.34375 C37.18597597 559.16651487 38.74087714 545.02042172 39 533 C37.74509766 532.97873047 37.74509766 532.97873047 36.46484375 532.95703125 C16.33642622 532.13227882 -5.31318939 522.20132952 -19.92675781 508.14697266 C-24.31711648 504.14164544 -27.21808509 502.5182318 -33.25 502.71875 C-35.50419272 502.93995583 -37.75475886 503.20132113 -40 503.5 C-41.1240625 503.61859375 -42.248125 503.7371875 -43.40625 503.859375 C-46.60964919 504.20366557 -49.80391095 504.5940033 -53 505 C-73.83707327 507.54327879 -97.10968392 505.81539997 -117.0859375 498.9375 C-120.66359968 497.78650949 -124.21768689 497.38007551 -127.9375 497 C-132.02872434 496.57958875 -135.73798012 496.07985368 -139.69140625 494.875 C-145.49858619 493.33921687 -149.13249714 495.40643387 -154.234375 498.24609375 C-154.82536484 498.5729718 -155.41635468 498.89984985 -156.0252533 499.2366333 C-157.93734344 500.29684486 -159.84371315 501.36689481 -161.75 502.4375 C-163.06594942 503.17005993 -164.38211251 503.90223616 -165.69848633 504.6340332 C-172.74780539 508.5630143 -179.75077662 512.56232544 -186.6875 516.6875 C-209.11537584 530 -209.11537584 530 -219 530 C-219 531.65 -219 533.3 -219 535 C-233.58562477 532.35650044 -243.46663064 526.05865964 -255 517 C-255.98355469 516.24589844 -256.96710938 515.49179687 -257.98046875 514.71484375 C-263.21471106 510.64704754 -263.21471106 510.64704754 -265 509 C-265 508.34 -265 507.68 -265 507 C-266.32 506.34 -267.64 505.68 -269 505 C-269 504.34 -269 503.68 -269 503 C-269.66 503 -270.32 503 -271 503 C-284.38962597 489.06451398 -298.19351377 466.81581021 -298 447 C-297.0385702 439.75493972 -292.61449178 434.01995458 -287.125 429.375 C-284.07503353 427.30703031 -282.97086321 426.99812021 -279.125 426.75 C-273.81207627 427.9443782 -269.48436004 431.03886008 -265 434 C-263.75120268 434.80135647 -262.50112462 435.60071943 -261.25 436.3984375 C-257.82432264 438.58522325 -254.41002304 440.78888996 -251 443 C-249.26847042 441.92044741 -247.53988316 440.83617488 -245.8125 439.75 C-244.84957031 439.14671875 -243.88664062 438.5434375 -242.89453125 437.921875 C-239.95794909 436.04028105 -239.95794909 436.04028105 -237.26171875 433.765625 C-235 432 -235 432 -233 432 C-233 430.68 -233 429.36 -233 428 C-232.21625 427.9175 -231.4325 427.835 -230.625 427.75 C-227.93411811 427.26998114 -227.93411811 427.26998114 -226.75390625 425.3125 C-225.73323466 422.18173533 -226.38959618 420.38868612 -227.3125 417.25 C-232.78024789 398.34792132 -230.85505017 377.04578357 -227 358 C-228.32 358 -229.64 358 -231 358 C-229.57358825 348.36272205 -227.93635144 338.77066437 -226.1875 329.1875 C-226.05816071 328.47632019 -225.92882141 327.76514038 -225.79556274 327.03240967 C-219.50610912 292.51832737 -219.50610912 292.51832737 -217 285 C-217.81082031 284.82984375 -218.62164062 284.6596875 -219.45703125 284.484375 C-226.92043401 282.8509411 -233.89818736 280.79151297 -241 278 C-242.55840738 277.41486796 -244.11701951 276.83028112 -245.67578125 276.24609375 C-255.86508496 272.36764091 -264.94808739 268.1360304 -274 262 C-275.38058594 261.12601562 -275.38058594 261.12601562 -276.7890625 260.234375 C-281.42614055 257.27698157 -281.42614055 257.27698157 -283 256 C-283 255.34 -283 254.68 -283 254 C-283.8353125 253.6596875 -283.8353125 253.6596875 -284.6875 253.3125 C-288.68438886 251.04399551 -291.53966649 248.38100054 -293 244 C-293.66 244 -294.32 244 -295 244 C-297.44553423 239.78824661 -297.00070669 236.66314417 -295.82421875 232.14453125 C-293.79079341 226.85377053 -288.77662533 223.67491019 -284 221 C-279.43808991 219.85952248 -275.19105569 220.02991103 -270.5 220.125 C-264.15411284 220.17161197 -258.50715135 219.23274685 -252.33203125 217.85546875 C-246.08523569 216.53509281 -239.72297153 215.88950043 -233.38305664 215.1784668 C-223.85742027 214.04175799 -214.88629535 211.73954547 -206.125 207.8125 C-205.45009521 207.51134277 -204.77519043 207.21018555 -204.07983398 206.89990234 C-185.5935874 198.43401452 -175.77101388 187.95762183 -167 170 C-165.97994938 167.95178039 -164.9550184 165.90605414 -163.92993164 163.86035156 C-163.2723442 162.54485315 -162.61784221 161.22780751 -161.96655273 159.90917969 C-160.27643628 156.49578222 -158.54001779 153.11714046 -156.72265625 149.76953125 C-156.35084229 149.08455566 -155.97902832 148.39958008 -155.59594727 147.69384766 C-154.88209514 146.38700053 -154.1627914 145.08311188 -153.43725586 143.78271484 C-151.89454685 140.961739 -151 139.2709546 -151 136 C-158.89806599 136.89511415 -166.41322886 137.78492613 -173.94921875 140.4140625 C-176 141 -176 141 -180 141 C-180 141.66 -180 142.32 -180 143 C-183.80874901 144.15855655 -187.62256948 145.29947928 -191.4375 146.4375 C-192.50677734 146.76298828 -193.57605469 147.08847656 -194.67773438 147.42382812 C-200.82731133 149.24801456 -206.60016319 150.52219935 -213 151 C-213 151.66 -213 152.32 -213 153 C-217.65608899 154.46152669 -222.31387752 155.91739328 -226.97363281 157.3671875 C-228.70016648 157.90636524 -230.42453795 158.4524587 -232.1484375 159 C-233.43621094 159.4021875 -233.43621094 159.4021875 -234.75 159.8125 C-235.48734375 160.04582031 -236.2246875 160.27914062 -236.984375 160.51953125 C-239 161 -239 161 -243 161 C-243 161.66 -243 162.32 -243 163 C-243.804375 163.11214844 -243.804375 163.11214844 -244.625 163.2265625 C-251.28403535 164.3437033 -257.30635694 166.47998112 -263.55273438 168.96728516 C-266.52316235 170.13795772 -268.775163 171 -272 171 C-272 171.66 -272 172.32 -272 173 C-278.6 173 -285.2 173 -292 173 C-292 172.34 -292 171.68 -292 171 C-292.99 170.67 -293.98 170.34 -295 170 C-296.2866645 167.426671 -296.16824551 165.49776962 -296.1875 162.625 C-296.20167969 161.66851562 -296.21585937 160.71203125 -296.23046875 159.7265625 C-295.99745572 156.96989983 -295.40920164 155.35052605 -294 153 C-293.34 153 -292.68 153 -292 153 C-291.88269531 152.278125 -291.76539063 151.55625 -291.64453125 150.8125 C-290.10951485 144.11424663 -286.42012895 138.18222014 -282 133 C-281.5359375 132.01 -281.5359375 132.01 -281.0625 131 C-279.55087196 128.1545825 -277.27666217 126.27666217 -275 124 C-273.95996683 122.66052284 -272.93991711 121.30535525 -271.9375 119.9375 C-269.8127103 117.04800449 -267.73868675 114.34744579 -265 112 C-264.34 112 -263.68 112 -263 112 C-262.690625 111.38125 -262.38125 110.7625 -262.0625 110.125 C-261.375 108.75 -260.6875 107.375 -260 106 C-259.34 106 -258.68 106 -258 106 C-257.773125 105.46375 -257.54625 104.9275 -257.3125 104.375 C-255.54429911 101.17539839 -253.46329797 98.70962777 -251 96 C-250.34 96 -249.68 96 -249 96 C-248.938125 95.443125 -248.87625 94.88625 -248.8125 94.3125 C-247.65202666 91.00961433 -245.52873996 89.41879475 -243 87 C-241.93249096 85.71247001 -240.87037404 84.42045804 -239.8125 83.125 C-236.43398473 79.1982169 -232.66262225 76.45039428 -228.33203125 73.640625 C-225.95099469 72.07250308 -225.95099469 72.07250308 -224.05078125 70 C-221.6812377 67.68913086 -219.29063513 66.30605325 -216.375 64.75 C-214.93253906 63.96882813 -214.93253906 63.96882813 -213.4609375 63.171875 C-211 62 -211 62 -209 62 C-208.505 60.515 -208.505 60.515 -208 59 C-205.71769113 57.6370355 -203.51312306 56.45412769 -201.125 55.3125 C-200.48691406 54.99216797 -199.84882813 54.67183594 -199.19140625 54.34179688 C-196.28123856 52.91709056 -194.28002036 52 -191 52 C-191 51.34 -191 50.68 -191 50 C-188.10684629 48.84731871 -185.21004513 47.70409257 -182.3125 46.5625 C-181.49587891 46.23701172 -180.67925781 45.91152344 -179.83789062 45.57617188 C-175.91754337 44.03660231 -172.19459951 42.60655105 -168 42 C-168 41.34 -168 40.68 -168 40 C-158.9528498 37.59425143 -149.88508144 35.50313236 -140.6875 33.75 C-139.77460205 33.57500977 -138.8617041 33.40001953 -137.92114258 33.21972656 C-131.39486922 32 -131.39486922 32 -128 32 C-128.44609234 29.39779466 -128.94844807 27.11808988 -130.0078125 24.69140625 C-131.78576774 19.86852766 -131.77374301 15.04934018 -131 10 C-129.466287 7.06702287 -127.70331623 4.91588238 -125 3 C-122.796875 2.32421875 -122.796875 2.32421875 -121 2 C-121 1.34 -121 0.68 -121 0 C-93.49391378 -5.14105307 -93.49391378 -5.14105307 -85 0 C-78.50915547 6.49084453 -77.53130073 15.22437754 -77 24 C-75.82824219 24.04898437 -74.65648437 24.09796875 -73.44921875 24.1484375 C-65.50824826 24.51454059 -57.76919119 24.9484889 -49.96875 26.59765625 C-48.00832379 27.0667422 -48.00832379 27.0667422 -46 27 C-46.061875 25.865625 -46.12375 24.73125 -46.1875 23.5625 C-46.17443242 16.17931776 -43.52349496 9.79572792 -39 4 C-36 2 -36 2 -33 2 C-33 1.34 -33 0.68 -33 0 C-21.79412734 -3.52121295 -10.82770269 -6.36923687 0 0 Z " fill="#FEBC48" transform="translate(301,6)"/>
<path d="M0 0 C6.33123709 5.88270258 7.68381153 14.66431971 8.28515625 22.91015625 C8.59307205 32.17208564 7.66125441 41.13490533 3.79296875 49.66015625 C3.53128906 50.43230469 3.26960938 51.20445313 3 52 C4.25717453 54.04872887 5.60644236 56.04148656 7 58 C7.84248714 60.29518694 8.53656146 62.59421791 9.19140625 64.94921875 C9.85520168 67.04987517 9.85520168 67.04987517 11.41577148 68.36108398 C13.21335183 70.22071672 14.08263052 71.92552671 15.15625 74.2734375 C15.53910156 75.0984375 15.92195313 75.9234375 16.31640625 76.7734375 C16.70699219 77.63195312 17.09757812 78.49046875 17.5 79.375 C19.81064046 84.40807823 22.14026524 89.25210704 25 94 C25 94.66 25 95.32 25 96 C25.99 96.33 26.98 96.66 28 97 C29.25512695 98.68310547 29.25512695 98.68310547 30.48828125 100.8671875 C30.94388428 101.66431152 31.3994873 102.46143555 31.86889648 103.28271484 C32.34528564 104.13816895 32.8216748 104.99362305 33.3125 105.875 C33.80886963 106.74979004 34.30523926 107.62458008 34.81665039 108.52587891 C37.69251776 113.60948762 40.51164231 118.72282156 43.27734375 123.8671875 C46.30850992 129.37964843 49.46280301 134.8225525 52.5949707 140.27807617 C55.79068336 145.85337182 58.92087835 151.44966887 61.9140625 157.13671875 C62.98320585 159.15312021 62.98320585 159.15312021 65 161 C65.89902598 163.0055195 66.7927726 165.01352601 67.6640625 167.03125 C69.34981512 170.77736692 71.16408393 174.45062386 73 178.125 C73.33209473 178.79354004 73.66418945 179.46208008 74.00634766 180.15087891 C75.66430148 183.45782464 77.38774076 186.6704664 79.296875 189.83984375 C79.85890625 190.88269531 80.4209375 191.92554688 81 193 C80.25 195.4375 80.25 195.4375 79 197 C75.82461668 196.65978036 74.97723135 195.97533396 72.75 193.5625 C71 191 71 191 71 189 C70.13713379 188.62609131 70.13713379 188.62609131 69.25683594 188.24462891 C66.67589928 186.82126077 64.95787763 185.18451214 62.890625 183.0859375 C62.13652344 182.32539063 61.38242187 181.56484375 60.60546875 180.78125 C59.82816406 179.9871875 59.05085938 179.193125 58.25 178.375 C57.45722656 177.57320312 56.66445313 176.77140625 55.84765625 175.9453125 C53.89385507 173.96797154 51.94487897 171.98611091 50 170 C50.91164815 174.01219332 52.64712302 176.71147619 54.94140625 180.09765625 C56 182 56 182 56 185 C55.34 185.99 54.68 186.98 54 188 C49.28914731 187.51146713 46.38339568 185.3099721 42.75 182.5 C28.65731038 172.09306208 6.4077651 157.96235435 -11 156 C-12.86300249 156.88903076 -12.86300249 156.88903076 -14.58203125 158.39453125 C-15.25862793 158.93279541 -15.93522461 159.47105957 -16.63232422 160.02563477 C-17.35178223 160.61530029 -18.07124023 161.20496582 -18.8125 161.8125 C-20.35009069 163.02955435 -21.89050334 164.24305128 -23.43359375 165.453125 C-24.20429199 166.05833984 -24.97499023 166.66355469 -25.76904297 167.28710938 C-30.64902736 171.03387787 -35.79952919 174.37002782 -40.97216797 177.69482422 C-42.3989985 178.61317674 -43.82218483 179.53720372 -45.24267578 180.46533203 C-60.82503758 190.64572225 -75.92316754 199.21951005 -94 204 C-95.34191406 204.36931641 -95.34191406 204.36931641 -96.7109375 204.74609375 C-103.01724353 206.18838772 -109.37273583 206.19880776 -115.8125 206.25 C-116.72088623 206.25942627 -117.62927246 206.26885254 -118.56518555 206.27856445 C-123.46845913 206.25454879 -127.39309458 205.85358603 -132 204 C-133.58160087 203.53572361 -135.16488422 203.07713034 -136.75 202.625 C-144.29301692 200.36436692 -151.75861948 197.92740567 -158 193 C-158 192.34 -158 191.68 -158 191 C-158.66 191 -159.32 191 -160 191 C-162.55473999 188.17439601 -164.75158988 185.07213641 -167 182 C-167.680625 181.0925 -168.36125 180.185 -169.0625 179.25 C-170 177 -170 177 -169.28125 174.8125 C-167.73663034 171.42187148 -166.1121967 168.07768133 -164.4375 164.75 C-163.92219727 163.71903198 -163.92219727 163.71903198 -163.39648438 162.66723633 C-161.47291999 158.84212322 -159.50199815 155.04745498 -157.47265625 151.27734375 C-157.06023682 150.5100293 -156.64781738 149.74271484 -156.22290039 148.95214844 C-155.41929341 147.46397548 -154.6100437 145.97883321 -153.79467773 144.49707031 C-151.58192023 140.48253916 -151.58192023 140.48253916 -151 136 C-158.89806599 136.89511415 -166.41322886 137.78492613 -173.94921875 140.4140625 C-176 141 -176 141 -180 141 C-180 141.66 -180 142.32 -180 143 C-183.80874901 144.15855655 -187.62256948 145.29947928 -191.4375 146.4375 C-192.50677734 146.76298828 -193.57605469 147.08847656 -194.67773438 147.42382812 C-200.82731133 149.24801456 -206.60016319 150.52219935 -213 151 C-213 151.66 -213 152.32 -213 153 C-217.65608899 154.46152669 -222.31387752 155.91739328 -226.97363281 157.3671875 C-228.70016648 157.90636524 -230.42453795 158.4524587 -232.1484375 159 C-233.00695312 159.268125 -233.86546875 159.53625 -234.75 159.8125 C-235.48734375 160.04582031 -236.2246875 160.27914062 -236.984375 160.51953125 C-239 161 -239 161 -243 161 C-243 161.66 -243 162.32 -243 163 C-243.804375 163.11214844 -243.804375 163.11214844 -244.625 163.2265625 C-251.28403535 164.3437033 -257.30635694 166.47998112 -263.55273438 168.96728516 C-266.52316235 170.13795772 -268.775163 171 -272 171 C-272 171.66 -272 172.32 -272 173 C-278.6 173 -285.2 173 -292 173 C-292 172.34 -292 171.68 -292 171 C-292.99 170.67 -293.98 170.34 -295 170 C-296.2866645 167.426671 -296.16824551 165.49776962 -296.1875 162.625 C-296.20167969 161.66851562 -296.21585937 160.71203125 -296.23046875 159.7265625 C-295.99745572 156.96989983 -295.40920164 155.35052605 -294 153 C-293.34 153 -292.68 153 -292 153 C-291.88269531 152.278125 -291.76539063 151.55625 -291.64453125 150.8125 C-290.10951485 144.11424663 -286.42012895 138.18222014 -282 133 C-281.5359375 132.01 -281.5359375 132.01 -281.0625 131 C-279.55087196 128.1545825 -277.27666217 126.27666217 -275 124 C-273.95996683 122.66052284 -272.93991711 121.30535525 -271.9375 119.9375 C-269.8127103 117.04800449 -267.73868675 114.34744579 -265 112 C-264.34 112 -263.68 112 -263 112 C-262.690625 111.38125 -262.38125 110.7625 -262.0625 110.125 C-261.375 108.75 -260.6875 107.375 -260 106 C-259.34 106 -258.68 106 -258 106 C-257.773125 105.46375 -257.54625 104.9275 -257.3125 104.375 C-255.54429911 101.17539839 -253.46329797 98.70962777 -251 96 C-250.34 96 -249.68 96 -249 96 C-248.938125 95.443125 -248.87625 94.88625 -248.8125 94.3125 C-247.65202666 91.00961433 -245.52873996 89.41879475 -243 87 C-241.93249096 85.71247001 -240.87037404 84.42045804 -239.8125 83.125 C-236.43398473 79.1982169 -232.66262225 76.45039428 -228.33203125 73.640625 C-225.95099469 72.07250308 -225.95099469 72.07250308 -224.05078125 70 C-221.6812377 67.68913086 -219.29063513 66.30605325 -216.375 64.75 C-214.93253906 63.96882813 -214.93253906 63.96882813 -213.4609375 63.171875 C-211 62 -211 62 -209 62 C-208.505 60.515 -208.505 60.515 -208 59 C-205.71769113 57.6370355 -203.51312306 56.45412769 -201.125 55.3125 C-200.48691406 54.99216797 -199.84882813 54.67183594 -199.19140625 54.34179688 C-196.28123856 52.91709056 -194.28002036 52 -191 52 C-191 51.34 -191 50.68 -191 50 C-188.10684629 48.84731871 -185.21004513 47.70409257 -182.3125 46.5625 C-181.49587891 46.23701172 -180.67925781 45.91152344 -179.83789062 45.57617188 C-175.91754337 44.03660231 -172.19459951 42.60655105 -168 42 C-168 41.34 -168 40.68 -168 40 C-158.9528498 37.59425143 -149.88508144 35.50313236 -140.6875 33.75 C-139.77460205 33.57500977 -138.8617041 33.40001953 -137.92114258 33.21972656 C-131.39486922 32 -131.39486922 32 -128 32 C-128.44609234 29.39779466 -128.94844807 27.11808988 -130.0078125 24.69140625 C-131.78576774 19.86852766 -131.77374301 15.04934018 -131 10 C-129.466287 7.06702287 -127.70331623 4.91588238 -125 3 C-122.796875 2.32421875 -122.796875 2.32421875 -121 2 C-121 1.34 -121 0.68 -121 0 C-93.49391378 -5.14105307 -93.49391378 -5.14105307 -85 0 C-78.50915547 6.49084453 -77.53130073 15.22437754 -77 24 C-75.82824219 24.04898437 -74.65648437 24.09796875 -73.44921875 24.1484375 C-65.50824826 24.51454059 -57.76919119 24.9484889 -49.96875 26.59765625 C-48.00832379 27.0667422 -48.00832379 27.0667422 -46 27 C-46.061875 25.865625 -46.12375 24.73125 -46.1875 23.5625 C-46.17443242 16.17931776 -43.52349496 9.79572792 -39 4 C-36 2 -36 2 -33 2 C-33 1.34 -33 0.68 -33 0 C-21.79412734 -3.52121295 -10.82770269 -6.36923687 0 0 Z " fill="#FEBC48" transform="translate(301,6)"/>
<path d="M0 0 C3.81213317 1.27071106 4.01177287 2.37275935 5.8125 5.875 C6.34101563 6.88304688 6.86953125 7.89109375 7.4140625 8.9296875 C7.93742188 9.94289063 8.46078125 10.95609375 9 12 C15.07380444 23.40170307 21.61501324 34.54391874 28.16015625 45.6796875 C28.76730469 46.71351563 29.37445313 47.74734375 30 48.8125 C30.515625 49.68519531 31.03125 50.55789062 31.5625 51.45703125 C32.62521502 53.33699722 33.61477087 55.25874336 34.5625 57.19921875 C35.84424043 60.04837908 35.84424043 60.04837908 38 62 C38.89902598 64.0055195 39.7927726 66.01352601 40.6640625 68.03125 C42.34981512 71.77736692 44.16408393 75.45062386 46 79.125 C46.33209473 79.79354004 46.66418945 80.46208008 47.00634766 81.15087891 C48.66430148 84.45782464 50.38774076 87.6704664 52.296875 90.83984375 C52.85890625 91.88269531 53.4209375 92.92554688 54 94 C53.25 96.4375 53.25 96.4375 52 98 C48.82461668 97.65978036 47.97723135 96.97533396 45.75 94.5625 C44 92 44 92 44 90 C43.42475586 89.75072754 42.84951172 89.50145508 42.25683594 89.24462891 C39.67589928 87.82126077 37.95787763 86.18451214 35.890625 84.0859375 C35.13652344 83.32539063 34.38242187 82.56484375 33.60546875 81.78125 C32.82816406 80.9871875 32.05085937 80.193125 31.25 79.375 C30.45722656 78.57320313 29.66445313 77.77140625 28.84765625 76.9453125 C26.89385507 74.96797154 24.94487897 72.98611091 23 71 C23.91164815 75.01219332 25.64712302 77.71147619 27.94140625 81.09765625 C29 83 29 83 29 86 C28.34 86.99 27.68 87.98 27 89 C22.28914731 88.51146713 19.38339568 86.3099721 15.75 83.5 C1.65731038 73.09306208 -20.5922349 58.96235435 -38 57 C-39.86300249 57.88903076 -39.86300249 57.88903076 -41.58203125 59.39453125 C-42.25862793 59.93279541 -42.93522461 60.47105957 -43.63232422 61.02563477 C-44.35178223 61.61530029 -45.07124023 62.20496582 -45.8125 62.8125 C-47.35009069 64.02955435 -48.89050334 65.24305128 -50.43359375 66.453125 C-51.58964111 67.36094727 -51.58964111 67.36094727 -52.76904297 68.28710938 C-57.64902736 72.03387787 -62.79952919 75.37002782 -67.97216797 78.69482422 C-69.3989985 79.61317674 -70.82218483 80.53720372 -72.24267578 81.46533203 C-87.82503758 91.64572225 -102.92316754 100.21951005 -121 105 C-121.89460938 105.24621094 -122.78921875 105.49242187 -123.7109375 105.74609375 C-130.01724353 107.18838772 -136.37273583 107.19880776 -142.8125 107.25 C-143.72088623 107.25942627 -144.62927246 107.26885254 -145.56518555 107.27856445 C-150.46845913 107.25454879 -154.39309458 106.85358603 -159 105 C-160.58160087 104.53572361 -162.16488422 104.07713034 -163.75 103.625 C-171.29301692 101.36436692 -178.75861948 98.92740567 -185 94 C-185 93.34 -185 92.68 -185 92 C-185.66 92 -186.32 92 -187 92 C-189.55473999 89.17439601 -191.75158988 86.07213641 -194 83 C-194.680625 82.0925 -195.36125 81.185 -196.0625 80.25 C-197 78 -197 78 -196.28515625 75.8203125 C-194.71969955 72.38487258 -193.07230703 68.99663311 -191.375 65.625 C-191.02888672 64.93470703 -190.68277344 64.24441406 -190.32617188 63.53320312 C-186.67462609 56.28932582 -182.85555208 49.13687299 -179 42 C-177.96101563 42.46535156 -176.92203125 42.93070313 -175.8515625 43.41015625 C-172.73238738 44.74571466 -169.69107217 45.68554561 -166.375 46.4375 C-161.96244158 47.47996693 -157.68470458 48.71723093 -153.375 50.125 C-147.85513629 51.8446246 -142.76706538 52.78203217 -137 53 C-136.17113281 53.0515625 -135.34226563 53.103125 -134.48828125 53.15625 C-118.92194921 53.68919147 -103.09622325 50.69695455 -88.38037109 45.78613281 C-85.65486205 44.88601598 -82.9161151 44.03357571 -80.17578125 43.1796875 C-64.2906222 38.15468803 -50.04729854 32.26839323 -36.453125 22.56640625 C-34.17388758 21.11103331 -32.58660964 20.57917564 -30 20 C-29.34 19.34 -28.68 18.68 -28 18 C-27.01 18 -26.02 18 -25 18 C-24.67 17.34 -24.34 16.68 -24 16 C-23.236875 15.87625 -22.47375 15.7525 -21.6875 15.625 C-18.35961878 14.85107414 -17.34441141 13.41767426 -15 11 C-13.7934375 10.5359375 -13.7934375 10.5359375 -12.5625 10.0625 C-9.23643929 8.68340166 -7.47091994 6.59446594 -5 4 C-2.375 1.625 -2.375 1.625 0 0 Z " fill="#CF7426" transform="translate(328,105)"/>
<path d="M0 0 C2.832452 3.38831059 5.13917778 6.77933931 7.27734375 10.640625 C7.87353516 11.71183594 8.46972656 12.78304687 9.08398438 13.88671875 C9.69564453 14.99660156 10.30730469 16.10648438 10.9375 17.25 C11.54529297 18.34441406 12.15308594 19.43882812 12.77929688 20.56640625 C15.02670988 24.6151438 17.27381523 28.6636863 19.48486328 32.73242188 C19.92427246 33.53744141 20.36368164 34.34246094 20.81640625 35.171875 C21.1935376 35.86893555 21.57066895 36.56599609 21.95922852 37.28417969 C23.0079774 39.16654883 23.0079774 39.16654883 25 41 C25.8969191 43.00081953 26.78782064 45.00450211 27.65234375 47.01953125 C29.70557992 51.56045645 31.98864656 55.98455049 34.27001953 60.41455078 C35.88426019 63.58832513 37.23086706 66.52577257 38 70 C35.625 69.3125 35.625 69.3125 33 68 C32.70125977 67.24444824 32.40251953 66.48889648 32.09472656 65.71044922 C30.01840907 60.56966492 25.60329012 57.007089 21.75 53.125 C20.90308594 52.23296875 20.05617188 51.3409375 19.18359375 50.421875 C18.35472656 49.58398438 17.52585937 48.74609375 16.671875 47.8828125 C15.9200293 47.11340332 15.16818359 46.34399414 14.39355469 45.55126953 C12.01210733 43.66364188 12.01210733 43.66364188 8.70800781 44.25732422 C7.81436523 44.50240723 6.92072266 44.74749023 6 45 C5.34 47.97 4.68 50.94 4 54 C3.12214844 53.38125 3.12214844 53.38125 2.2265625 52.75 C-5.06093628 47.84789872 -12.6130683 44.33876905 -20.66796875 40.89453125 C-23.55873347 39.65618578 -26.37470943 38.33181498 -29.17578125 36.90234375 C-32.38130064 35.27321831 -35.60160611 33.93943786 -39 32.75 C-39.94875 32.41484375 -40.8975 32.0796875 -41.875 31.734375 C-42.57625 31.49203125 -43.2775 31.2496875 -44 31 C-41.00543716 28.40471221 -37.92390442 26.33788983 -34.5 24.375 C-29.79324662 21.60509646 -25.55497063 18.4242142 -21.26879883 15.046875 C-14.41933884 9.69036204 -7.20321723 4.86378981 0 0 Z " fill="#FEBC48" transform="translate(341,126)"/>
<path d="M0 0 C5.87805084 5.87805084 7.14848466 13.6996852 8.27734375 21.640625 C7.83521439 25.40183815 6.96748344 26.58839726 4 29 C-0.09526398 29.77993875 -4.15265677 29.79109429 -8.3125 29.8125 C-9.42818359 29.83763672 -10.54386719 29.86277344 -11.69335938 29.88867188 C-17.12837163 30.00143147 -22.56395242 30.02353267 -28 30 C-28 30.66 -28 31.32 -28 32 C-32.95 32.99 -37.9 33.98 -43 35 C-43 33.02 -43 31.04 -43 29 C-43.495 27.96875 -43.99 26.9375 -44.5 25.875 C-46.8329564 20.80335564 -46.92126732 15.44653238 -46 10 C-44.45860929 7.07185648 -42.70319171 4.91579413 -40 3 C-37.796875 2.32421875 -37.796875 2.32421875 -36 2 C-36 1.34 -36 0.68 -36 0 C-8.49391378 -5.14105307 -8.49391378 -5.14105307 0 0 Z " fill="#FEBC48" transform="translate(216,6)"/>
<path d="M0 0 C17.11397973 1.33982096 34.57171557 5.08197855 51 10 C52.6640521 10.49222267 54.32811542 10.9844074 55.9921875 11.4765625 C60.18683807 12.72355854 64.37667174 13.98546414 68.56176758 15.26416016 C70.25365857 15.77475988 71.94911731 16.27362729 73.6472168 16.76318359 C78.03793667 18.03697664 82.14146272 19.32725709 86.1875 21.5 C89.01201204 22.97634902 91.80867511 24.39675444 94.75 25.625 C97.90670624 26.96052956 100.95015129 28.43788237 104 30 C104 30.66 104 31.32 104 32 C104.721875 32.268125 105.44375 32.53625 106.1875 32.8125 C111.4491769 35.03409691 116.6819963 38.22952415 121 42 C121 42.66 121 43.32 121 44 C121.61875 44.309375 122.2375 44.61875 122.875 44.9375 C124.25 45.625 125.625 46.3125 127 47 C127 47.66 127 48.32 127 49 C127.5775 49.28875 128.155 49.5775 128.75 49.875 C131.875 51.4375 131.875 51.4375 135 53 C135 53.99 135 54.98 135 56 C135.53367187 56.23460937 136.06734375 56.46921875 136.6171875 56.7109375 C139.69716165 58.37715302 142.37795324 60.47163586 145.125 62.625 C145.69250977 63.067229 146.26001953 63.50945801 146.84472656 63.96508789 C148.00419308 64.87012856 149.16240138 65.7767835 150.31933594 66.68505859 C151.88521162 67.91019027 153.46174157 69.12167059 155.0390625 70.33203125 C155.93367187 71.02683594 156.82828125 71.72164063 157.75 72.4375 C158.94882812 73.36369141 158.94882812 73.36369141 160.171875 74.30859375 C162 76 162 76 163 79 C160.4375 79.796875 160.4375 79.796875 157 80 C154.39209969 78.51494566 152.31210638 77.10633119 150 75.25 C149.34773437 74.74847412 148.69546875 74.24694824 148.0234375 73.73022461 C146.00231564 72.16975661 144.00085939 70.58632491 142 69 C140.81361031 68.07799661 139.62615539 67.15736183 138.4375 66.23828125 C133.66371023 62.53141492 128.93848304 58.76634651 124.24609375 54.95703125 C116.39082075 48.59017881 108.47117765 42.533073 100 37 C99.08476562 36.39671875 98.16953125 35.7934375 97.2265625 35.171875 C72.13982844 19.57172105 41.27686793 14.8678049 12.72802734 9.16967773 C12.03114304 9.03044891 11.33425873 8.89122009 10.61625671 8.74777222 C8.72930585 8.37229793 6.84160634 8.00059153 4.95385742 7.62915039 C2 7 2 7 -1 6 C-1.042721 4.33388095 -1.04063832 2.66617115 -1 1 C-0.67 0.67 -0.34 0.34 0 0 Z " fill="#D07627" transform="translate(251,263)"/>
<path d="M0 0 C0.3125 2.6875 0.3125 2.6875 0 6 C-2.375 8.625 -2.375 8.625 -5 11 C-5.28617188 11.64453125 -5.57234375 12.2890625 -5.8671875 12.953125 C-8.57002712 17.83687658 -15.39181516 20.34481358 -20.375 22.375 C-23 23 -23 23 -27 23 C-27 23.66 -27 24.32 -27 25 C-44.11340036 30.43858062 -60.66945737 30.33794692 -78.375 29.0625 C-81.04671247 28.87651284 -83.71864504 28.69381865 -86.390625 28.51171875 C-87.68806641 28.42325684 -88.98550781 28.33479492 -90.32226562 28.24365234 C-98.21010832 27.72107753 -106.10045547 27.29710676 -114 27 C-115.11890625 26.95746094 -116.2378125 26.91492188 -117.390625 26.87109375 C-125.0585522 26.72054544 -132.44416988 27.74814649 -140 29 C-140 28.01 -140 27.02 -140 26 C-138.02 25.67 -136.04 25.34 -134 25 C-134 24.34 -134 23.68 -134 23 C-120.29499141 19.45560123 -106.46000684 19.92285144 -92.4375 20.375 C-90.73919189 20.42347756 -89.04086802 20.47140606 -87.3425293 20.51879883 C-79.4899614 20.74589069 -71.65190783 21.04203066 -63.81079102 21.53320312 C-49.30336498 22.42919582 -32.93267853 22.61787913 -20 15 C-18.63384276 13.36013112 -17.29378033 11.69755354 -16 10 C-15.34 10 -14.68 10 -14 10 C-13.731875 9.443125 -13.46375 8.88625 -13.1875 8.3125 C-9.69364162 1.50867052 -9.69364162 1.50867052 -7.125 -0.375 C-4.44245446 -1.16398398 -2.66329954 -0.73980543 0 0 Z " fill="#D07526" transform="translate(291,114)"/>
<path d="M0 0 C0.99 0.33 1.98 0.66 3 1 C-13 33 -13 33 -14.54296875 35.9609375 C-17.92563182 43.01646531 -20.05281904 50.37961371 -22.10546875 57.90820312 C-23.28030705 62.05755242 -24.71926041 65.30888663 -27 69 C-27.63006485 71.28054208 -27.63006485 71.28054208 -27.9375 73.625 C-28.79196883 78.43587493 -30.25402828 82.80348004 -32 87.359375 C-34.43032472 93.77695122 -36.21240355 100.33343189 -38 106.953125 C-39 110 -39 110 -41 112 C-41.99 112 -42.98 112 -44 112 C-42.93057752 101.72985653 -40.09426521 92.47203284 -36.87939453 82.71386719 C-35.26975638 77.74642195 -33.76401583 72.74724961 -32.25 67.75 C-31.95649658 66.78594238 -31.66299316 65.82188477 -31.3605957 64.82861328 C-29.86275469 59.89755276 -28.3976807 54.9603962 -27 50 C-26.34 50 -25.68 50 -25 50 C-24.90847656 48.99839844 -24.81695312 47.99679688 -24.72265625 46.96484375 C-24.11653308 42.76414665 -22.41674694 39.27801847 -20.4375 35.5625 C-19.71187577 34.15904221 -18.9866266 32.75539045 -18.26171875 31.3515625 C-17.70170166 30.27890137 -17.70170166 30.27890137 -17.13037109 29.18457031 C-14.95697358 24.98423318 -12.88248206 20.73388192 -10.79077148 16.49243164 C-8.67235524 12.23616414 -6.39077957 8.10981356 -4 4 C-3.34 4 -2.68 4 -2 4 C-2 3.01 -2 2.02 -2 1 C-1.34 0.67 -0.68 0.34 0 0 Z " fill="#D17727" transform="translate(124,198)"/>
<path d="M0 0 C5.25581684 3.81046721 8.58921438 8.34250456 12.265625 13.671875 C13.78986827 16.08247564 13.78986827 16.08247564 16 17 C16 17.66 16 18.32 16 19 C16.66 19 17.32 19 18 19 C21 22.46153846 21 22.46153846 21 25 C21.5878125 25.268125 22.175625 25.53625 22.78125 25.8125 C25.02362128 27.01264238 26.62557304 28.28999645 28.5 30 C41.17619325 41.30706996 53.92613956 50.20489869 69 58 C69.84691406 58.43828125 70.69382812 58.8765625 71.56640625 59.328125 C78.3591782 62.78251377 84.53162522 64.63684033 92 66 C92 66.66 92 67.32 92 68 C72.27984288 67.5573026 50.31547322 56.25310044 36 43 C35.21238281 42.30519531 34.42476562 41.61039062 33.61328125 40.89453125 C31.93933681 39.40979246 30.27798913 37.91074199 28.62890625 36.3984375 C26.80423532 34.73373029 24.95594793 33.09468774 23.08984375 31.4765625 C17.43967757 26.53930196 12.41534161 21.38828783 7.75 15.5 C7.27183838 14.90034424 6.79367676 14.30068848 6.30102539 13.68286133 C3 9.38534617 3 9.38534617 3 6 C2.01 6 1.02 6 0 6 C0 4.02 0 2.04 0 0 Z " fill="#D17727" transform="translate(79,432)"/>
<path d="M0 0 C-2.875 4.875 -2.875 4.875 -4 6 C-5.76951793 6.15814714 -7.54493985 6.25116683 -9.3203125 6.31640625 C-10.4134375 6.35830078 -11.5065625 6.40019531 -12.6328125 6.44335938 C-13.78523438 6.48267578 -14.93765625 6.52199219 -16.125 6.5625 C-17.25421875 6.60568359 -18.3834375 6.64886719 -19.546875 6.69335938 C-25.03440083 6.89576811 -30.50878265 7.055708 -36 7 C-36 7.66 -36 8.32 -36 9 C-43.425 10.485 -43.425 10.485 -51 12 C-51 10.35 -51 8.7 -51 7 C-41.48861281 2.56135264 -30.29832138 2.20716838 -20 1 C-18.69289063 0.82791016 -18.69289063 0.82791016 -17.359375 0.65234375 C-11.56693544 -0.08733828 -5.83409037 -0.09814358 0 0 Z " fill="#D17727" transform="translate(224,29)"/>
<path d="M0 0 C4.98713549 0.57229424 6.96493068 2.29662708 10.8125 5.4375 C10.48514472 8.38369748 10.18782687 10.79110372 8.6875 13.375 C5.57900763 15.13647901 3.17222656 14.262696 -0.1875 13.4375 C-2.625 12 -2.625 12 -4.1875 10.4375 C-4.1875 9.7775 -4.1875 9.1175 -4.1875 8.4375 C-4.8475 8.4375 -5.5075 8.4375 -6.1875 8.4375 C-5.1796875 0.7109375 -5.1796875 0.7109375 0 0 Z " fill="#CF7426" transform="translate(87.1875,23.5625)"/>
<path d="M0 0 C1.98828125 0.58984375 1.98828125 0.58984375 3.98828125 2.58984375 C4.31580359 5.30439331 4.11912375 7.84215134 3.98828125 10.58984375 C2.98828125 11.58984375 2.98828125 11.58984375 -0.69921875 11.83984375 C-4.7799971 11.78112751 -7.58731002 10.92846435 -11.01171875 8.58984375 C-12.19921875 6.71484375 -12.19921875 6.71484375 -12.01171875 4.58984375 C-8.53235949 -0.62919514 -5.75688887 -0.86111447 0 0 Z " fill="#D07526" transform="translate(249.01171875,84.41015625)"/>
<path d="M0 0 C0.66 0 1.32 0 2 0 C4.89536431 8.68609294 -1.64905044 21.44215361 -4.5625 29.75 C-4.96146484 30.92304688 -5.36042969 32.09609375 -5.77148438 33.3046875 C-6.15755859 34.41585937 -6.54363281 35.52703125 -6.94140625 36.671875 C-7.28888916 37.6731543 -7.63637207 38.67443359 -7.99438477 39.70605469 C-9 42 -9 42 -11 43 C-9.77901967 33.63915078 -7.72072064 24.82495242 -4.82617188 15.84765625 C-3.25173071 10.93163995 -2.0621768 6.04533979 -1 1 C-0.67 0.67 -0.34 0.34 0 0 Z " fill="#D17727" transform="translate(409,387)"/>
<path d="M0 0 C0.99 0.33 1.98 0.66 3 1 C1.625 2.5 1.625 2.5 0 4 C-0.66 4 -1.32 4 -2 4 C-2 3.01 -2 2.02 -2 1 C-1.34 0.67 -0.68 0.34 0 0 Z M-4 4 C-3.01 4.495 -3.01 4.495 -2 5 C-2.99 5.495 -2.99 5.495 -4 6 C-4 5.34 -4 4.68 -4 4 Z " fill="#D7812C" transform="translate(124,198)"/>
</svg>
