<svg xmlns="http://www.w3.org/2000/svg" width="180" viewBox="0 0 71.928 18.5"><title>Boiling Point</title><defs><style>.st0{fill:red}</style></defs><path d="M62.207 1.058h-2.536a.085.085 0 0 0-.085.085v3.608a.132.132 0 0 1-.131.131h-.05a.133.133 0 0 1-.114-.065l-.004-.008L57.134 1.1a.084.084 0 0 0-.073-.042h-3.04a.085.085 0 0 0-.085.085v7.535c0 .047.038.085.085.085h2.536a.085.085 0 0 0 .085-.085V5.023c0-.047.038-.085.085-.085h.089c.046 0 .089.024.113.064l2.23 3.719a.085.085 0 0 0 .072.041h2.977a.085.085 0 0 0 .085-.085V1.142a.085.085 0 0 0-.085-.085ZM52.806 1.058h-2.601a.085.085 0 0 0-.085.085v7.535c0 .047.038.085.085.085h2.601a.085.085 0 0 0 .085-.085V1.142a.085.085 0 0 0-.085-.085ZM48.973 6.45h-3.829a.085.085 0 0 1-.085-.085V1.142a.085.085 0 0 0-.085-.085h-2.601a.085.085 0 0 0-.085.085v7.535c0 .047.038.085.085.085h6.599a.085.085 0 0 0 .085-.085V6.535a.085.085 0 0 0-.085-.085ZM41.159 1.058h-2.601a.085.085 0 0 0-.085.085v7.535c0 .047.038.085.085.085h2.601a.085.085 0 0 0 .085-.085V1.142a.085.085 0 0 0-.085-.085ZM33.154.801c-2.65 0-4.354 1.58-4.4 4.008l-.002.101c0 2.485 1.715 4.109 4.402 4.109s4.411-1.623 4.411-4.109l-.002-.101c-.046-2.428-1.75-4.008-4.409-4.008Zm0 5.824c-.88 0-1.651-.596-1.651-1.715 0-.034 0-.068.002-.101.045-1.054.795-1.614 1.649-1.614.863 0 1.604.56 1.649 1.614l.002.101c0 1.119-.761 1.715-1.651 1.715ZM71.767 4.497l-4.12-.008a.116.116 0 0 0-.116.116v1.283c0 .04.032.072.072.072h1.214c.021 0 .034.024.021.041-.305.41-.79.624-1.321.624-.88 0-1.651-.596-1.651-1.715 0-.034 0-.068.002-.101l.003-.036c.02-.337.113-.622.259-.853.299-.476.819-.725 1.387-.725.542 0 1.034.222 1.338.648a.178.178 0 0 0 .144.077h2.766a.05.05 0 0 0 .049-.061C71.393 1.977 69.811.801 67.517.801c-2.311 0-3.902 1.202-4.302 3.119a4.85 4.85 0 0 0-.097.853v.036l-.002.101c0 2.485 1.715 4.109 4.402 4.109 4.152 0 4.407-3.324 4.41-4.097 0-.088.027-.424-.159-.424h-.002ZM26.949 4.855a.132.132 0 0 1-.068-.114c0-.055.029-.105.076-.133.474-.285.887-.642.887-1.487 0-1-.596-2.064-2.962-2.064h-4.818a.162.162 0 0 0-.162.162v7.458c0 .047.038.085.085.085h4.721c2.467 0 3.329-.945 3.329-2.174 0-.843-.413-1.352-1.088-1.733Zm-4.277-1.594c0-.047.038-.085.085-.085h1.814c.514 0 .624.284.624.486 0 .183-.11.477-.624.477h-1.814a.085.085 0 0 1-.085-.085V3.26Zm1.935 3.382h-1.851a.085.085 0 0 1-.085-.085v-.867c0-.047.038-.085.085-.085h1.851c.514 0 .624.321.624.514 0 .165-.11.523-.624.523ZM24.387 10.265h-4.4a.085.085 0 0 0-.085.085v7.535c0 .047.038.085.085.085h2.601a.085.085 0 0 0 .085-.085v-1.399c0-.047.038-.085.085-.085h1.64c2.109 0 3.403-.917 3.403-3.063s-1.293-3.072-3.412-3.072h-.002Zm-.248 3.833h-1.383a.085.085 0 0 1-.085-.085V12.65c0-.047.038-.085.085-.085h1.392c.504 0 .844.257.844.77 0 .504-.339.761-.853.761v.002ZM33.008 10.008c-2.687 0-4.402 1.623-4.402 4.109s1.715 4.109 4.402 4.109 4.411-1.623 4.411-4.109-1.715-4.109-4.411-4.109Zm0 5.824c-.88 0-1.651-.596-1.651-1.715s.77-1.715 1.651-1.715c.89 0 1.651.596 1.651 1.715s-.761 1.715-1.651 1.715ZM41.047 10.26h-2.601a.085.085 0 0 0-.085.085v7.535c0 .047.038.085.085.085h2.601a.085.085 0 0 0 .085-.085v-7.535a.085.085 0 0 0-.085-.085ZM50.386 10.265h-2.532a.085.085 0 0 0-.085.085v3.656a.085.085 0 0 1-.084.084h-.123a.084.084 0 0 1-.073-.042l-2.149-3.717a.13.13 0 0 0-.113-.065h-3.001a.085.085 0 0 0-.085.085v7.536c0 .047.038.085.085.085h2.526a.085.085 0 0 0 .085-.085v-3.656c0-.046.038-.084.084-.084h.115c.029 0 .057.016.072.041l2.194 3.673a.227.227 0 0 0 .195.111h2.889a.085.085 0 0 0 .084-.084v-7.537a.085.085 0 0 0-.084-.084v-.002ZM59.639 10.265h-8.067a.085.085 0 0 0-.085.085v2.142c0 .047.038.085.085.085h2.555c.047 0 .085.038.085.085v5.224c0 .047.038.085.085.085h2.61a.085.085 0 0 0 .085-.085v-5.224c0-.047.038-.085.085-.085h2.564a.085.085 0 0 0 .085-.085V10.35a.085.085 0 0 0-.085-.085h-.002ZM4.915 18.054a7.025 7.025 0 0 0 3.932.007 6.846 6.846 0 0 0 2.571-1.395c1.636-1.347 3.407-3.84 3.207-8.276-.017-.37-.314-3.146-.17-4.574.043-.423.111-.843.213-1.238.288-1.109.849-2.02 1.889-2.224 0 0-2.998-1.248-4.462 2.667-.415 1.11-.783 2.07-1.148 2.88-.673 1.495-1.336 2.478-2.259 2.949a3.019 3.019 0 0 1-1.143.314 2.304 2.304 0 0 1-2.328-2.28 2.3 2.3 0 0 1 1.909-2.279A8.418 8.418 0 0 0 6.85 4.6C2.555 4.634-.793 8.563.165 12.991a6.786 6.786 0 0 0 4.75 5.064Z" class="st0"></path></svg>