<svg xmlns="http://www.w3.org/2000/svg" xmlns:xlink="http://www.w3.org/1999/xlink" xmlns:inkscape="http://www.inkscape.org/namespaces/inkscape" version="1.1" width="360" height="360" viewBox="0 0 360 360">
<defs>
<clipPath id="clip_1">
<path transform="matrix(1,0,0,-1,0,360)" d="M0 360H360V0H0Z"/>
</clipPath>
</defs>
<path transform="matrix(1,0,0,-1,0,360)" d="M0 0H360V360H0Z" fill="#ff2400"/>
<g clip-path="url(#clip_1)">
<path transform="matrix(1,0,0,-1,253.4419,152.7134)" d="M0 0H-11.434C-11.645 0-11.815-.171-11.815-.381V-16.648C-11.815-16.743-11.84-16.831-11.879-16.911-11.976-17.105-12.175-17.24-12.408-17.24H-12.632C-12.843-17.24-13.038-17.128-13.144-16.945L-13.164-16.911-22.868-.19C-22.936-.072-23.062 0-23.198 0H-36.902C-37.112 0-37.283-.171-37.283-.381V-16.911-34.348C-37.283-34.558-37.112-34.729-36.902-34.729H-25.468C-25.257-34.729-25.087-34.558-25.087-34.348V-17.87C-25.087-17.659-24.916-17.489-24.705-17.489H-24.306C-24.098-17.489-23.905-17.598-23.798-17.777L-13.745-34.544C-13.676-34.659-13.552-34.729-13.419-34.729H0C.211-34.729 .381-34.558 .381-34.348V-16.911-.381C.381-.171 .211 0 0 0" fill="#f0f2d7"/>
<path transform="matrix(1,0,0,-1,211.0649,152.7134)" d="M0 0H-11.724C-11.934 0-12.105-.171-12.105-.381V-16.911-34.348C-12.105-34.558-11.934-34.729-11.724-34.729H0C.211-34.729 .381-34.558 .381-34.348V-16.911-.381C.381-.171 .211 0 0 0" fill="#f0f2d7"/>
<path transform="matrix(1,0,0,-1,193.7832,177.0237)" d="M0 0H-17.263C-17.474 0-17.645 .171-17.645 .381V7.4 23.929C-17.645 24.14-17.815 24.31-18.026 24.31H-29.749C-29.96 24.31-30.13 24.14-30.13 23.929V7.4-10.037C-30.13-10.248-29.96-10.419-29.749-10.419H0C.211-10.419 .381-10.248 .381-10.038V-.381C.381-.171 .211 0 0 0" fill="#f0f2d7"/>
<path transform="matrix(1,0,0,-1,158.5591,152.7134)" d="M0 0H-11.723C-11.934 0-12.105-.171-12.105-.381V-16.911-34.348C-12.105-34.558-11.934-34.729-11.724-34.729H0C.211-34.729 .381-34.558 .381-34.348V-16.911-.381C.381-.171 .211 0 0 0" fill="#f0f2d7"/>
<path transform="matrix(1,0,0,-1,122.475,177.8093)" d="M0 0C-3.969 0-7.442 2.687-7.442 7.731-7.442 7.885-7.438 8.036-7.432 8.185-7.23 12.936-3.848 15.463 0 15.463 3.888 15.463 7.232 12.936 7.432 8.185 7.439 8.036 7.442 7.885 7.442 7.731 7.442 2.687 4.01 0 0 0M0 26.254C-11.948 26.254-19.628 19.131-19.835 8.185-19.838 8.034-19.845 7.884-19.845 7.731-19.845-3.473-12.114-10.791 0-10.791 12.155-10.791 19.887-3.473 19.887 7.731 19.887 7.884 19.88 8.034 19.877 8.185 19.669 19.131 11.989 26.254 0 26.254" fill="#f0f2d7"/>
<path transform="matrix(1,0,0,-1,296.5409,168.2168)" d="M0 0-18.574 .034C-18.863 .034-19.097-.2-19.097-.489V-6.273C-19.097-6.451-18.953-6.596-18.775-6.596H-13.3C-13.205-6.596-13.149-6.706-13.205-6.782-14.579-8.63-16.766-9.593-19.162-9.593-23.131-9.593-26.604-6.905-26.604-1.861-26.604-1.708-26.601-1.556-26.594-1.407-26.592-1.352-26.583-1.301-26.58-1.246-26.491 .273-26.069 1.556-25.414 2.6-24.067 4.746-21.721 5.87-19.162 5.87-16.72 5.87-14.499 4.868-13.133 2.948-12.981 2.735-12.743 2.6-12.482 2.6H-.011C.133 2.6 .242 2.735 .211 2.876-1.687 11.359-8.82 16.661-19.162 16.661-29.581 16.661-36.751 11.244-38.554 2.6-38.808 1.38-38.956 .096-38.991-1.246-38.992-1.3-38.996-1.353-38.997-1.407-39-1.559-39.007-1.708-39.007-1.861-39.007-13.065-31.276-20.383-19.162-20.383-.445-20.383 .704-5.399 .718-1.912 .72-1.514 .841 0 0 0" fill="#f0f2d7"/>
<path transform="matrix(1,0,0,-1,83.9434,177.8918)" d="M0 0H-8.342C-8.553 0-8.724 .171-8.724 .381V4.29C-8.724 4.501-8.553 4.672-8.342 4.672H0C2.315 4.672 2.811 3.225 2.811 2.356 2.811 1.612 2.315 0 0 0M-8.724 15.247C-8.724 15.457-8.553 15.628-8.342 15.628H-.166C2.15 15.628 2.646 14.346 2.646 13.437 2.646 12.61 2.15 11.287-.166 11.287H-8.342C-8.553 11.287-8.724 11.457-8.724 11.668ZM10.559 8.059C10.468 8.11 10.395 8.183 10.342 8.268 10.286 8.359 10.253 8.464 10.253 8.575 10.253 8.821 10.384 9.047 10.595 9.173 12.73 10.459 14.594 12.067 14.594 15.876 14.594 20.382 11.907 25.178 1.24 25.178H-20.481C-20.883 25.178-21.21 24.852-21.21 24.45V8.268-9.169C-21.21-9.38-21.039-9.551-20.828-9.551H.455C11.576-9.551 15.463-5.292 15.463 .248 15.463 4.05 13.603 6.341 10.559 8.059" fill="#f0f2d7"/>
<path transform="matrix(1,0,0,-1,109.3441,211.5014)" d="M0 0H-6.234C-6.444 0-6.615 .171-6.615 .381V6.523C-6.615 6.734-6.444 6.905-6.234 6.905H.041C2.315 6.905 3.845 5.747 3.845 3.432 3.845 1.158 2.315 0 0 0M1.116 17.282H-18.72C-18.93 17.282-19.101 17.111-19.101 16.901V-17.066C-19.101-17.276-18.93-17.447-18.72-17.447H-6.996C-6.786-17.447-6.615-17.277-6.615-17.066V-10.759C-6.615-10.548-6.444-10.377-6.234-10.377H1.158C10.667-10.377 16.496-6.243 16.496 3.432 16.496 13.147 10.667 17.282 1.116 17.282" fill="#f0f2d7"/>
<path transform="matrix(1,0,0,-1,149.323,219.3153)" d="M0 0C-3.969 0-7.442 2.687-7.442 7.731-7.442 12.775-3.969 15.463 0 15.463 4.011 15.463 7.442 12.775 7.442 7.731 7.442 2.687 4.011 0 0 0M0 26.253C-12.114 26.253-19.845 18.936-19.845 7.731-19.845-3.473-12.114-10.791 0-10.791 12.155-10.791 19.887-3.473 19.887 7.731 19.887 18.936 12.155 26.253 0 26.253" fill="#f0f2d7"/>
<path transform="matrix(1,0,0,-1,185.5632,194.1992)" d="M0 0H-11.724C-11.934 0-12.105-.171-12.105-.381V-16.911-34.348C-12.105-34.558-11.934-34.729-11.724-34.729H0C.21-34.729 .381-34.558 .381-34.348V-16.911-.381C.381-.171 .21 0 0 0" fill="#f0f2d7"/>
<path transform="matrix(1,0,0,-1,227.6651,194.2224)" d="M0 0H-11.413C-11.623 0-11.794-.171-11.794-.381V-16.864C-11.794-17.073-11.964-17.243-12.173-17.243H-12.728C-12.864-17.243-12.989-17.17-13.057-17.053L-22.744-.295C-22.849-.112-23.044 0-23.255 0H-36.783C-36.994 0-37.164-.171-37.164-.381V-34.352C-37.164-34.563-36.994-34.733-36.783-34.733H-25.396C-25.185-34.733-25.015-34.563-25.015-34.352V-17.87C-25.015-17.66-24.845-17.491-24.636-17.491H-24.117C-23.984-17.491-23.861-17.561-23.793-17.675L-13.904-34.234C-13.719-34.544-13.385-34.733-13.025-34.733H0C.209-34.733 .379-34.564 .379-34.354V-.379C.379-.17 .209 0 0 0" fill="#f0f2d7"/>
<path transform="matrix(1,0,0,-1,269.3755,194.2195)" d="M0 0H-36.365C-36.575 0-36.746-.171-36.746-.381V-10.037C-36.746-10.248-36.575-10.419-36.365-10.419H-24.848C-24.637-10.419-24.467-10.589-24.467-10.8V-34.348C-24.467-34.558-24.296-34.729-24.085-34.729H-12.32C-12.11-34.729-11.939-34.558-11.939-34.348V-10.8C-11.939-10.589-11.769-10.419-11.558-10.419H0C.21-10.419 .381-10.248 .381-10.037V-.381C.381-.171 .21 0 0 0" fill="#f0f2d7"/>
<path transform="matrix(1,0,0,-1,175.0475,139.2971)" d="M0 0C3.237-.932 6.357-.837 9.164-.015 10.098 .258 10.997 .611 11.851 1.04 13.047 1.641 14.155 2.387 15.157 3.253 18.97 6.407 23.098 12.249 22.632 22.641 22.593 23.507 21.899 30.011 22.235 33.356 22.335 34.346 22.493 35.331 22.732 36.257 23.404 38.855 24.711 40.989 27.135 41.467 27.135 41.467 20.147 44.392 16.736 35.22 15.769 32.619 14.911 30.37 14.06 28.472 12.491 24.971 10.947 22.668 8.795 21.564 8 21.156 7.123 20.91 6.13 20.83 3.157 20.806 .727 23.197 .703 26.17 .682 28.838 2.608 31.063 5.152 31.509 4.938 31.516 4.725 31.522 4.509 31.52-5.502 31.44-13.305 22.236-11.071 11.862-9.85 6.195-5.571 1.605 0 0" fill="#f0f2d7"/>
<path transform="matrix(1,0,0,-1,126.3991,247.1105)" d="M0 0-2.131 3.024H-1.051L.454 .778H.468L1.98 3.024H3.06L.929 0V-2.016H0Z" fill="#f0f2d7"/>
<path transform="matrix(1,0,0,-1,132.9354,244.79941)" d="M0 0C-1.001 0-1.692-.734-1.692-1.807-1.692-2.887-1.001-3.607 0-3.607 1.001-3.607 1.692-2.887 1.692-1.807 1.692-.734 1.001 0 0 0M0 .821C1.519 .843 2.65-.302 2.628-1.807 2.65-3.312 1.519-4.457 0-4.435-1.519-4.457-2.65-3.312-2.628-1.807-2.65-.302-1.519 .843 0 .821" fill="#f0f2d7"/>
<path transform="matrix(1,0,0,-1,137.3979,244.08661)" d="M0 0H.929V-3.074C.929-3.945 1.354-4.32 2.239-4.32 3.125-4.32 3.542-3.945 3.542-3.074V0H4.471V-3.11C4.471-4.464 3.679-5.148 2.239-5.148 .792-5.148 0-4.464 0-3.11Z" fill="#f0f2d7"/>
<path transform="matrix(1,0,0,-1,146.4974,246.3906)" d="M0 0C.598 0 .914 .259 .914 .749 .914 1.238 .619 1.483-.014 1.483H-1.577V0ZM.49-.806 1.75-2.736H.691L-.525-.828H-1.577V-2.736H-2.506V2.304H.079C1.174 2.304 1.843 1.699 1.843 .742 1.843-.101 1.346-.655 .49-.792Z" fill="#f0f2d7"/>
<path transform="matrix(1,0,0,-1,153.1191,244.08661)" d="M0 0H.929V-2.052H3.492V0H4.421V-5.04H3.492V-2.887H.929V-5.04H0Z" fill="#f0f2d7"/>
<path transform="matrix(1,0,0,-1,162.0389,244.79941)" d="M0 0C-1.001 0-1.692-.734-1.692-1.807-1.692-2.887-1.001-3.607 0-3.607 1.001-3.607 1.692-2.887 1.692-1.807 1.692-.734 1.001 0 0 0M0 .821C1.519 .843 2.65-.302 2.628-1.807 2.65-3.312 1.519-4.457 0-4.435-1.519-4.457-2.65-3.312-2.628-1.807-2.65-.302-1.519 .843 0 .821" fill="#f0f2d7"/>
<path transform="matrix(1,0,0,-1,167.7615,244.9147)" d="M0 0H-1.822V.828H2.765V0H.929V-4.212H0Z" fill="#f0f2d7"/>
<path transform="matrix(1,0,0,-1,177.8757,246.4771)" d="M0 0C.598 0 .936 .274 .936 .785 .936 1.325 .626 1.57 0 1.57H-1.649V0ZM-2.578 2.39H.043C1.116 2.39 1.865 1.757 1.865 .778 1.865-.209 1.13-.828 .043-.828H-1.649V-2.65H-2.578Z" fill="#f0f2d7"/>
<path transform="matrix(1,0,0,-1,183.8286,244.79941)" d="M0 0C-1.001 0-1.692-.734-1.692-1.807-1.692-2.887-1.001-3.607 0-3.607 1.001-3.607 1.692-2.887 1.692-1.807 1.692-.734 1.001 0 0 0M0 .821C1.519 .843 2.65-.302 2.628-1.807 2.65-3.312 1.519-4.457 0-4.435-1.519-4.457-2.65-3.312-2.628-1.807-2.65-.302-1.519 .843 0 .821" fill="#f0f2d7"/>
<path transform="matrix(1,0,0,-1,189.5515,244.9147)" d="M0 0H-1.822V.828H2.765V0H.929V-4.212H0Z" fill="#f0f2d7"/>
<path transform="matrix(1,0,0,-1,197.0875,244.08661)" d="M0 0H1.123L3.01-3.708H3.024L4.911 0H6.034V-5.04H5.105V-1.418H5.091L3.204-5.04H2.83L.943-1.418H.929V-5.04H0Z" fill="#f0f2d7"/>
<path transform="matrix(1,0,0,-1,207.6196,244.79941)" d="M0 0C-1.001 0-1.692-.734-1.692-1.807-1.692-2.887-1.001-3.607 0-3.607 1.001-3.607 1.692-2.887 1.692-1.807 1.692-.734 1.001 0 0 0M0 .821C1.519 .843 2.65-.302 2.628-1.807 2.65-3.312 1.519-4.457 0-4.435-1.519-4.457-2.65-3.312-2.628-1.807-2.65-.302-1.519 .843 0 .821" fill="#f0f2d7"/>
<path transform="matrix(1,0,0,-1,212.118,244.08661)" d="M0 0H1.123L3.01-3.708H3.024L4.911 0H6.034V-5.04H5.105V-1.418H5.091L3.204-5.04H2.83L.943-1.418H.929V-5.04H0Z" fill="#f0f2d7"/>
<path transform="matrix(1,0,0,-1,220.3099,244.08661)" d="M0 0H3.744V-.821H.929V-2.073H3.492V-2.858H.929V-4.212H3.737V-5.04H0Z" fill="#f0f2d7"/>
<path transform="matrix(1,0,0,-1,225.9966,244.08661)" d="M0 0H1.015L3.614-3.737H3.629V0H4.558V-5.04H3.543L.943-1.296H.929V-5.04H0Z" fill="#f0f2d7"/>
<path transform="matrix(1,0,0,-1,234.2106,244.9147)" d="M0 0H-1.822V.828H2.765V0H.929V-4.212H0Z" fill="#f0f2d7"/>
<path transform="matrix(1,0,0,-1,120.8989,132.5527)" d="M0 0H3.744V-.821H.929V-2.073H3.492V-2.858H.929V-4.212H3.737V-5.04H0Z" fill="#f0f2d7"/>
<path transform="matrix(1,0,0,-1,127.1404,135.7207)" d="M0 0C.144-.806 .612-1.181 1.497-1.181 2.196-1.181 2.613-.929 2.613-.504 2.613-.093 2.297 .101 1.152 .36-.259 .662-.792 1.073-.792 1.829-.792 2.65-.007 3.269 1.145 3.269 2.268 3.269 3.139 2.671 3.341 1.742L2.441 1.534C2.29 2.138 1.829 2.47 1.137 2.47 .554 2.47 .137 2.211 .137 1.843 .137 1.527 .418 1.375 1.526 1.13 2.945 .821 3.542 .36 3.542-.497 3.542-1.404 2.736-1.98 1.49-1.98 .129-1.98-.742-1.325-.915-.173Z" fill="#f0f2d7"/>
<path transform="matrix(1,0,0,-1,133.7273,133.3808)" d="M0 0H-1.822V.828H2.765V0H.929V-4.212H0Z" fill="#f0f2d7"/>
<path transform="matrix(1,0,0,-1,140.2995,136.7647)" d="M0 0C1.087 0 1.627 .504 1.627 1.692 1.627 2.844 1.08 3.391 .007 3.391H-1.058V0ZM-1.987 4.212H.029C.814 4.212 1.433 3.996 1.886 3.564 2.34 3.132 2.563 2.505 2.563 1.692 2.563 .014 1.62-.828 .014-.828H-1.987Z" fill="#f0f2d7"/>
<path transform="matrix(1,0,0,-1,221.1886,136.7647)" d="M0 0V-.828H-4.09V-.159C-4.09 .295-3.967 .655-3.73 .936-3.434 1.274-3.017 1.505-2.261 1.757-1.166 2.11-.871 2.318-.871 2.786-.871 3.211-1.267 3.499-1.85 3.499-2.606 3.499-3.067 3.103-3.175 2.362L-4.104 2.441C-3.989 3.586-3.125 4.32-1.85 4.32-.742 4.32 .065 3.672 .065 2.786 .065 1.937-.425 1.462-1.735 1.065-2.426 .857-2.765 .691-2.937 .497-3.046 .374-3.074 .266-3.082 0Z" fill="#f0f2d7"/>
<path transform="matrix(1,0,0,-1,225.1042,133.2656)" d="M0 0C-.886 0-1.454-.677-1.454-1.807-1.454-2.938-.886-3.607 0-3.607 .885-3.607 1.454-2.938 1.454-1.807 1.454-.677 .885 0 0 0M0 .821C1.389 .821 2.39-.23 2.39-1.807 2.39-3.384 1.389-4.435 0-4.435-1.39-4.435-2.391-3.384-2.391-1.807-2.391-.23-1.39 .821 0 .821" fill="#f0f2d7"/>
<path transform="matrix(1,0,0,-1,231.4173,133.2656)" d="M0 0C-.886 0-1.454-.677-1.454-1.807-1.454-2.938-.886-3.607 0-3.607 .885-3.607 1.454-2.938 1.454-1.807 1.454-.677 .885 0 0 0M0 .821C1.389 .821 2.391-.23 2.391-1.807 2.391-3.384 1.389-4.435 0-4.435-1.39-4.435-2.39-3.384-2.39-1.807-2.39-.23-1.39 .821 0 .821" fill="#f0f2d7"/>
<path transform="matrix(1,0,0,-1,238.1699,135.843)" d="M0 0V2.678H-.014L-2.002 0ZM0-.857H-3.017V-.007L-.598 3.29H.929V0H1.67V-.857H.929V-1.75H0Z" fill="#f0f2d7"/>
</g>
</svg>
